<svg width="1100" height="1100" viewBox="0 0 1100 1100" fill="none" xmlns="http://www.w3.org/2000/svg">
<g filter="url(#filter0_d_3_283)">
<g clip-path="url(#clip0_3_283)">
<rect x="224.995" y="269.288" width="600" height="600" rx="300" transform="rotate(-5 224.995 269.288)" fill="url(#paint0_linear_3_283)"/>
<g filter="url(#filter1_i_3_283)">
<path d="M524.347 387.706C509.136 397.017 495.463 390.979 485.907 375.368C476.351 359.757 480.935 339.554 496.146 330.242C511.356 320.931 529.541 326.201 539.097 341.812C548.653 357.423 539.558 378.395 524.347 387.706Z" fill="#E31949"/>
</g>
<g filter="url(#filter2_i_3_283)">
<path d="M523.653 375.179C514.046 381.06 498.592 379.814 492.711 370.207C486.83 360.6 492.144 343.653 501.751 337.772C511.358 331.891 524.519 337.53 530.399 347.137C536.28 356.743 533.26 369.298 523.653 375.179Z" fill="#C60C38"/>
</g>
<g filter="url(#filter3_i_3_283)">
<path d="M603.152 811.487C589.147 820.06 563.343 807.648 554.77 793.643C546.198 779.638 553.944 754.932 567.948 746.359C581.953 737.787 601.139 746.006 609.712 760.011C618.285 774.016 617.157 802.914 603.152 811.487Z" fill="#BA1F44"/>
</g>
<g filter="url(#filter4_i_3_283)">
<path d="M283.304 924.52C301.679 931.748 329.646 911.66 336.874 893.285C344.102 874.91 329.77 847.269 311.395 840.041C293.019 832.813 272.014 846.554 264.786 864.929C257.558 883.304 264.929 917.292 283.304 924.52Z" fill="#E31949"/>
</g>
<g filter="url(#filter5_i_3_283)">
<path d="M712.279 466.467C691.389 489.9 675.351 477.632 651.301 456.193C627.252 434.753 614.616 407.43 635.506 383.997C656.396 360.564 689.719 360.186 713.769 381.626C737.818 403.066 733.169 443.034 712.279 466.467Z" fill="#E31949"/>
</g>
<g filter="url(#filter6_i_3_283)">
<path d="M704.731 445.712C691.537 460.511 673.821 456.23 659.022 443.037C644.222 429.843 635.589 408.63 648.783 393.83C661.976 379.031 687.024 381.831 701.823 395.025C716.623 408.219 717.925 430.912 704.731 445.712Z" fill="#C60C38"/>
</g>
<g filter="url(#filter7_i_3_283)">
<path d="M763.636 840.864C732.917 845.63 728.377 826.157 723.486 794.63C718.595 763.103 726.131 734.262 756.85 729.496C787.569 724.73 813.282 745.414 818.173 776.941C823.065 808.469 794.355 836.098 763.636 840.864Z" fill="#E31949"/>
</g>
<g filter="url(#filter8_i_3_283)">
<path d="M770.929 820.246C751.528 823.256 740.678 808.833 737.668 789.431C734.658 770.03 741.41 748.379 760.811 745.369C780.212 742.359 797.598 760.265 800.608 779.666C803.618 799.068 790.33 817.236 770.929 820.246Z" fill="#C60C38"/>
</g>
<g filter="url(#filter9_i_3_283)">
<path d="M386.879 732.038C380.529 739.161 372.002 737.101 364.879 730.75C357.755 724.4 353.6 714.19 359.95 707.067C366.301 699.943 378.356 701.291 385.48 707.642C392.603 713.992 393.23 724.914 386.879 732.038Z" fill="#BA1F44"/>
</g>
<g filter="url(#filter10_i_3_283)">
<path d="M833.349 567.375C818.813 575.079 806.268 566.635 798.564 552.1C790.86 537.565 790.268 518.571 804.803 510.867C819.338 503.163 838.014 512.572 845.718 527.107C853.422 541.643 847.884 559.671 833.349 567.375Z" fill="#E31949"/>
</g>
<g opacity="0.5" filter="url(#filter11_i_3_283)">
<path d="M365.601 500.959C350.19 524.533 359.081 546.399 383.275 562.216C407.469 578.032 439.575 571.743 454.986 548.17C470.397 524.596 462.931 495.645 438.737 479.829C414.543 464.012 381.012 477.386 365.601 500.959Z" fill="#E31949"/>
</g>
<g filter="url(#filter12_i_3_283)">
<path d="M385.344 502.642C375.611 517.531 376.853 541.984 391.741 551.717C406.63 561.45 433.631 553.857 443.365 538.969C453.098 524.08 444.814 503.041 429.926 493.307C415.037 483.574 395.077 487.753 385.344 502.642Z" fill="#C60C38"/>
</g>
<g filter="url(#filter13_i_3_283)">
<path d="M394.914 398.435C392.051 402.814 392.416 410.006 396.795 412.869C401.174 415.732 409.116 413.499 411.978 409.12C414.841 404.741 412.405 398.552 408.026 395.69C403.647 392.827 397.776 394.056 394.914 398.435Z" fill="#E31949"/>
</g>
<g filter="url(#filter14_i_3_283)">
<path d="M265.783 299.313C262.92 303.692 263.285 310.884 267.664 313.746C272.043 316.609 279.985 314.376 282.848 309.997C285.71 305.618 283.274 299.43 278.895 296.567C274.516 293.704 268.645 294.933 265.783 299.313Z" fill="#E31949"/>
</g>
<g filter="url(#filter15_i_3_283)">
<path d="M817.242 820.413C814.379 824.792 814.744 831.984 819.123 834.847C823.502 837.709 831.444 835.476 834.307 831.097C837.169 826.718 834.733 820.53 830.354 817.667C825.975 814.805 820.105 816.034 817.242 820.413Z" fill="#C60C38"/>
</g>
<g filter="url(#filter16_i_3_283)">
<path d="M826.707 699.126C823.844 703.505 824.21 710.697 828.589 713.56C832.968 716.423 840.909 714.19 843.772 709.811C846.635 705.432 844.198 699.244 839.819 696.381C835.44 693.518 829.57 694.747 826.707 699.126Z" fill="#C60C38"/>
</g>
<g filter="url(#filter17_i_3_283)">
<path d="M420.107 855.525C417.244 859.904 417.609 867.096 421.988 869.959C426.367 872.822 434.309 870.589 437.171 866.21C440.034 861.831 437.598 855.643 433.219 852.78C428.84 849.917 422.969 851.146 420.107 855.525Z" fill="#BA1F44"/>
</g>
<g opacity="0.8">
<g filter="url(#filter18_i_3_283)">
<path d="M337.405 382.489C320.881 377.893 298.774 386.174 294.177 402.698C289.581 419.222 304.442 441.817 320.966 446.413C337.489 451.01 354.404 437.254 359.001 420.731C363.597 404.207 353.929 387.086 337.405 382.489Z" fill="#E31949"/>
</g>
<g filter="url(#filter19_i_3_283)">
<path d="M325.635 391.666C316.425 389.104 304.101 393.72 301.539 402.931C298.977 412.142 307.261 424.737 316.471 427.299C325.682 429.862 335.111 422.194 337.673 412.983C340.236 403.773 334.846 394.229 325.635 391.666Z" fill="#C60C38"/>
</g>
</g>
<g filter="url(#filter20_i_3_283)">
<path d="M159.644 571.171C164.866 600.999 187.91 611.633 218.523 606.274C249.136 600.915 269.72 572.39 264.498 542.562C259.277 512.734 232.146 495.491 201.533 500.85C170.92 506.21 154.423 541.343 159.644 571.171Z" fill="#E31949"/>
</g>
<g filter="url(#filter21_i_3_283)">
<path d="M176.378 557.987C179.676 576.826 198.617 595.109 217.456 591.811C236.294 588.513 251.913 562.715 248.615 543.876C245.317 525.038 223.356 514.607 204.518 517.905C185.679 521.203 173.08 539.148 176.378 557.987Z" fill="#C60C38"/>
</g>
<g filter="url(#filter22_i_3_283)">
<path d="M622.666 243.6C606.125 268.903 615.668 292.373 641.636 309.349C667.605 326.326 702.066 319.576 718.608 294.273C735.149 268.971 727.136 237.896 701.167 220.919C675.198 203.943 639.208 218.297 622.666 243.6Z" fill="#E31949"/>
</g>
<g filter="url(#filter23_i_3_283)">
<path d="M643.857 245.406C633.41 261.387 634.743 287.633 650.724 298.08C666.705 308.527 695.686 300.378 706.133 284.397C716.581 268.416 707.69 245.834 691.709 235.386C675.728 224.939 654.304 229.425 643.857 245.406Z" fill="#C60C38"/>
</g>
<circle cx="499.983" cy="681.746" r="7.24396" transform="rotate(-5 499.983 681.746)" fill="#C60C38"/>
<circle cx="414.689" cy="687.972" r="7.24396" transform="rotate(-5 414.689 687.972)" fill="#BA1F44"/>
<circle cx="463.243" cy="428.029" r="7.24396" transform="rotate(-5 463.243 428.029)" fill="#E31949"/>
<circle cx="485.822" cy="796.932" r="7.24396" transform="rotate(-5 485.822 796.932)" fill="#BA1F44"/>
<circle cx="694.283" cy="824.723" r="7.24396" transform="rotate(-5 694.283 824.723)" fill="#BA1F44"/>
<circle cx="621.848" cy="689.422" r="7.24396" transform="rotate(-5 621.848 689.422)" fill="#E31949"/>
<circle cx="558.479" cy="376.778" r="7.24396" transform="rotate(-5 558.479 376.778)" fill="#E31949"/>
<circle cx="493.791" cy="444.748" r="7.24396" transform="rotate(-5 493.791 444.748)" fill="#E31949"/>
<circle cx="341.134" cy="528.396" r="7.24396" transform="rotate(-5 341.134 528.396)" fill="#BA1F44"/>
<circle cx="772.8" cy="297.701" r="7.24396" transform="rotate(-5 772.8 297.701)" fill="#BA1F44"/>
<path d="M-1140.69 814.39L-937.402 730.519C-881.174 707.321 -819.164 702.008 -759.809 715.305L-639.33 742.293C-580.323 755.511 -518.684 750.34 -462.704 727.475L-340.728 677.655C-285.086 654.929 -223.843 649.68 -165.145 662.606L-40.516 690.052C18.8865 703.134 80.8768 697.597 137.021 674.196L253.53 625.636C310.011 602.094 372.4 596.636 432.11 610.012L554.708 637.475C614.419 650.851 676.807 645.392 733.288 621.851L849.254 573.516C905.735 549.975 968.124 544.517 1027.83 557.893L1242.2 605.914" stroke="#A60823" stroke-width="16"/>
<path d="M-1185.27 878.52L-981.982 794.648C-925.754 771.45 -863.744 766.138 -804.389 779.434L-683.911 806.422C-624.904 819.641 -563.264 814.47 -507.284 791.605L-385.309 741.785C-329.666 719.058 -268.424 713.809 -209.725 726.736L-85.0964 754.182C-25.6939 767.263 36.2964 761.727 92.4407 738.326L208.949 689.765C265.43 666.224 327.819 660.765 387.53 674.141L510.127 701.604C569.838 714.98 632.227 709.522 688.708 685.981L804.674 637.646C861.155 614.105 923.544 608.646 983.254 622.022L1197.62 670.043" stroke="#A60823" stroke-width="16"/>
<path d="M-1232.47 912.763L-1029.18 828.892C-972.949 805.694 -910.939 800.382 -851.584 813.678L-731.106 840.666C-672.099 853.884 -610.459 848.713 -554.479 825.849L-432.504 776.029C-376.861 753.302 -315.619 748.053 -256.921 760.979L-132.292 788.425C-72.889 801.507 -10.8987 795.971 45.2456 772.57L161.754 724.009C218.235 700.467 280.624 695.009 340.335 708.385L462.932 735.848C522.643 749.224 585.032 743.765 641.513 720.224L757.479 671.89C813.96 648.348 876.348 642.89 936.059 656.266L1150.43 704.287" stroke="#A60823" stroke-width="24"/>
<path d="M-1168.84 836.929L-965.545 753.057C-909.316 729.859 -847.306 724.547 -787.952 737.843L-667.473 764.832C-608.466 778.05 -546.826 772.879 -490.846 750.014L-368.871 700.194C-313.229 677.467 -251.986 672.218 -193.288 685.145L-68.6587 712.591C-9.2562 725.672 52.7341 720.136 108.878 696.735L225.387 648.174C281.868 624.633 344.257 619.175 403.968 632.55L526.565 660.013C586.276 673.389 648.665 667.931 705.146 644.39L821.111 596.055C877.593 572.514 939.981 567.055 999.692 580.431L1214.06 628.452" stroke="#A60823" stroke-width="8"/>
<path d="M-1127.25 853.366L-923.954 769.495C-867.725 746.297 -805.716 740.985 -746.361 754.281L-625.882 781.269C-566.875 794.487 -505.235 789.316 -449.256 766.452L-327.28 716.632C-271.638 693.905 -210.395 688.656 -151.697 701.582L-27.0679 729.028C32.3346 742.11 94.3249 736.574 150.469 713.173L266.978 664.612C323.459 641.071 385.848 635.612 445.559 648.988L568.156 676.451C627.867 689.827 690.255 684.369 746.737 660.827L862.702 612.493C919.183 588.951 981.572 583.493 1041.28 596.869L1255.65 644.89" stroke="#A60823" stroke-width="8"/>
<g opacity="0.3" filter="url(#filter24_f_3_283)">
<path d="M441.485 147.71C248.549 455.847 481.384 853.807 844.533 836.596L960.966 831.078L-63.7103 916.331L441.485 147.71Z" fill="#86041B"/>
</g>
<g opacity="0.3" filter="url(#filter25_f_3_283)">
<path d="M526.619 969.245C795.608 724.668 678.909 278.612 324.607 197.103L211.01 170.97L1220.63 365.633L526.619 969.245Z" fill="#FF698D"/>
</g>
</g>
</g>
<defs>
<filter id="filter0_d_3_283" x="-0.00512695" y="-0.00524902" width="1100.01" height="1100.01" filterUnits="userSpaceOnUse" color-interpolation-filters="sRGB">
<feFlood flood-opacity="0" result="BackgroundImageFix"/>
<feColorMatrix in="SourceAlpha" type="matrix" values="0 0 0 0 0 0 0 0 0 0 0 0 0 0 0 0 0 0 127 0" result="hardAlpha"/>
<feMorphology radius="25" operator="dilate" in="SourceAlpha" result="effect1_dropShadow_3_283"/>
<feOffset dy="8"/>
<feGaussianBlur stdDeviation="100"/>
<feComposite in2="hardAlpha" operator="out"/>
<feColorMatrix type="matrix" values="0 0 0 0 0.9125 0 0 0 0 0.0114062 0 0 0 0 0.221506 0 0 0 0.4 0"/>
<feBlend mode="normal" in2="BackgroundImageFix" result="effect1_dropShadow_3_283"/>
<feBlend mode="normal" in="SourceGraphic" in2="effect1_dropShadow_3_283" result="shape"/>
</filter>
<filter id="filter1_i_3_283" x="480.919" y="325.634" width="62.0942" height="70.1489" filterUnits="userSpaceOnUse" color-interpolation-filters="sRGB">
<feFlood flood-opacity="0" result="BackgroundImageFix"/>
<feBlend mode="normal" in="SourceGraphic" in2="BackgroundImageFix" result="shape"/>
<feColorMatrix in="SourceAlpha" type="matrix" values="0 0 0 0 0 0 0 0 0 0 0 0 0 0 0 0 0 0 127 0" result="hardAlpha"/>
<feOffset dy="3.66408"/>
<feGaussianBlur stdDeviation="3.66408"/>
<feComposite in2="hardAlpha" operator="arithmetic" k2="-1" k3="1"/>
<feColorMatrix type="matrix" values="0 0 0 0 0.541667 0 0 0 0 0.040625 0 0 0 0 0.142143 0 0 0 1 0"/>
<feBlend mode="normal" in2="shape" result="effect1_innerShadow_3_283"/>
</filter>
<filter id="filter2_i_3_283" x="490.251" y="335.376" width="43.1518" height="47.0247" filterUnits="userSpaceOnUse" color-interpolation-filters="sRGB">
<feFlood flood-opacity="0" result="BackgroundImageFix"/>
<feBlend mode="normal" in="SourceGraphic" in2="BackgroundImageFix" result="shape"/>
<feColorMatrix in="SourceAlpha" type="matrix" values="0 0 0 0 0 0 0 0 0 0 0 0 0 0 0 0 0 0 127 0" result="hardAlpha"/>
<feOffset dy="3.66408"/>
<feGaussianBlur stdDeviation="3.66408"/>
<feComposite in2="hardAlpha" operator="arithmetic" k2="-1" k3="1"/>
<feColorMatrix type="matrix" values="0 0 0 0 0.541667 0 0 0 0 0.040625 0 0 0 0 0.142143 0 0 0 1 0"/>
<feBlend mode="normal" in2="shape" result="effect1_innerShadow_3_283"/>
</filter>
<filter id="filter3_i_3_283" x="551.184" y="742.866" width="63.9622" height="75.106" filterUnits="userSpaceOnUse" color-interpolation-filters="sRGB">
<feFlood flood-opacity="0" result="BackgroundImageFix"/>
<feBlend mode="normal" in="SourceGraphic" in2="BackgroundImageFix" result="shape"/>
<feColorMatrix in="SourceAlpha" type="matrix" values="0 0 0 0 0 0 0 0 0 0 0 0 0 0 0 0 0 0 127 0" result="hardAlpha"/>
<feOffset dy="3.66408"/>
<feGaussianBlur stdDeviation="3.66408"/>
<feComposite in2="hardAlpha" operator="arithmetic" k2="-1" k3="1"/>
<feColorMatrix type="matrix" values="0 0 0 0 0.541667 0 0 0 0 0.040625 0 0 0 0 0.142143 0 0 0 1 0"/>
<feBlend mode="normal" in2="shape" result="effect1_innerShadow_3_283"/>
</filter>
<filter id="filter4_i_3_283" x="262.045" y="838.079" width="76.7386" height="91.615" filterUnits="userSpaceOnUse" color-interpolation-filters="sRGB">
<feFlood flood-opacity="0" result="BackgroundImageFix"/>
<feBlend mode="normal" in="SourceGraphic" in2="BackgroundImageFix" result="shape"/>
<feColorMatrix in="SourceAlpha" type="matrix" values="0 0 0 0 0 0 0 0 0 0 0 0 0 0 0 0 0 0 127 0" result="hardAlpha"/>
<feOffset dy="3.66408"/>
<feGaussianBlur stdDeviation="3.66408"/>
<feComposite in2="hardAlpha" operator="arithmetic" k2="-1" k3="1"/>
<feColorMatrix type="matrix" values="0 0 0 0 0.541667 0 0 0 0 0.040625 0 0 0 0 0.142143 0 0 0 1 0"/>
<feBlend mode="normal" in2="shape" result="effect1_innerShadow_3_283"/>
</filter>
<filter id="filter5_i_3_283" x="624.944" y="365.969" width="105.011" height="116.867" filterUnits="userSpaceOnUse" color-interpolation-filters="sRGB">
<feFlood flood-opacity="0" result="BackgroundImageFix"/>
<feBlend mode="normal" in="SourceGraphic" in2="BackgroundImageFix" result="shape"/>
<feColorMatrix in="SourceAlpha" type="matrix" values="0 0 0 0 0 0 0 0 0 0 0 0 0 0 0 0 0 0 127 0" result="hardAlpha"/>
<feOffset dy="3.66408"/>
<feGaussianBlur stdDeviation="3.66408"/>
<feComposite in2="hardAlpha" operator="arithmetic" k2="-1" k3="1"/>
<feColorMatrix type="matrix" values="0 0 0 0 0.541667 0 0 0 0 0.040625 0 0 0 0 0.142143 0 0 0 1 0"/>
<feBlend mode="normal" in2="shape" result="effect1_innerShadow_3_283"/>
</filter>
<filter id="filter6_i_3_283" x="642.278" y="383.877" width="71.5562" height="74.8184" filterUnits="userSpaceOnUse" color-interpolation-filters="sRGB">
<feFlood flood-opacity="0" result="BackgroundImageFix"/>
<feBlend mode="normal" in="SourceGraphic" in2="BackgroundImageFix" result="shape"/>
<feColorMatrix in="SourceAlpha" type="matrix" values="0 0 0 0 0 0 0 0 0 0 0 0 0 0 0 0 0 0 127 0" result="hardAlpha"/>
<feOffset dy="3.66408"/>
<feGaussianBlur stdDeviation="3.66408"/>
<feComposite in2="hardAlpha" operator="arithmetic" k2="-1" k3="1"/>
<feColorMatrix type="matrix" values="0 0 0 0 0.541667 0 0 0 0 0.040625 0 0 0 0 0.142143 0 0 0 1 0"/>
<feBlend mode="normal" in2="shape" result="effect1_innerShadow_3_283"/>
</filter>
<filter id="filter7_i_3_283" x="722.115" y="728.814" width="96.6051" height="116.429" filterUnits="userSpaceOnUse" color-interpolation-filters="sRGB">
<feFlood flood-opacity="0" result="BackgroundImageFix"/>
<feBlend mode="normal" in="SourceGraphic" in2="BackgroundImageFix" result="shape"/>
<feColorMatrix in="SourceAlpha" type="matrix" values="0 0 0 0 0 0 0 0 0 0 0 0 0 0 0 0 0 0 127 0" result="hardAlpha"/>
<feOffset dy="3.66408"/>
<feGaussianBlur stdDeviation="3.66408"/>
<feComposite in2="hardAlpha" operator="arithmetic" k2="-1" k3="1"/>
<feColorMatrix type="matrix" values="0 0 0 0 0.541667 0 0 0 0 0.040625 0 0 0 0 0.142143 0 0 0 1 0"/>
<feBlend mode="normal" in2="shape" result="effect1_innerShadow_3_283"/>
</filter>
<filter id="filter8_i_3_283" x="736.982" y="745.037" width="64.051" height="79.2714" filterUnits="userSpaceOnUse" color-interpolation-filters="sRGB">
<feFlood flood-opacity="0" result="BackgroundImageFix"/>
<feBlend mode="normal" in="SourceGraphic" in2="BackgroundImageFix" result="shape"/>
<feColorMatrix in="SourceAlpha" type="matrix" values="0 0 0 0 0 0 0 0 0 0 0 0 0 0 0 0 0 0 127 0" result="hardAlpha"/>
<feOffset dy="3.66408"/>
<feGaussianBlur stdDeviation="3.66408"/>
<feComposite in2="hardAlpha" operator="arithmetic" k2="-1" k3="1"/>
<feColorMatrix type="matrix" values="0 0 0 0 0.541667 0 0 0 0 0.040625 0 0 0 0 0.142143 0 0 0 1 0"/>
<feBlend mode="normal" in2="shape" result="effect1_innerShadow_3_283"/>
</filter>
<filter id="filter9_i_3_283" x="356.82" y="702.276" width="34.441" height="37.9116" filterUnits="userSpaceOnUse" color-interpolation-filters="sRGB">
<feFlood flood-opacity="0" result="BackgroundImageFix"/>
<feBlend mode="normal" in="SourceGraphic" in2="BackgroundImageFix" result="shape"/>
<feColorMatrix in="SourceAlpha" type="matrix" values="0 0 0 0 0 0 0 0 0 0 0 0 0 0 0 0 0 0 127 0" result="hardAlpha"/>
<feOffset dy="3.66408"/>
<feGaussianBlur stdDeviation="3.66408"/>
<feComposite in2="hardAlpha" operator="arithmetic" k2="-1" k3="1"/>
<feColorMatrix type="matrix" values="0 0 0 0 0.541667 0 0 0 0 0.040625 0 0 0 0 0.142143 0 0 0 1 0"/>
<feBlend mode="normal" in2="shape" result="effect1_innerShadow_3_283"/>
</filter>
<filter id="filter10_i_3_283" x="793.207" y="508.11" width="55.9845" height="65.8399" filterUnits="userSpaceOnUse" color-interpolation-filters="sRGB">
<feFlood flood-opacity="0" result="BackgroundImageFix"/>
<feBlend mode="normal" in="SourceGraphic" in2="BackgroundImageFix" result="shape"/>
<feColorMatrix in="SourceAlpha" type="matrix" values="0 0 0 0 0 0 0 0 0 0 0 0 0 0 0 0 0 0 127 0" result="hardAlpha"/>
<feOffset dy="3.66408"/>
<feGaussianBlur stdDeviation="3.66408"/>
<feComposite in2="hardAlpha" operator="arithmetic" k2="-1" k3="1"/>
<feColorMatrix type="matrix" values="0 0 0 0 0.541667 0 0 0 0 0.040625 0 0 0 0 0.142143 0 0 0 1 0"/>
<feBlend mode="normal" in2="shape" result="effect1_innerShadow_3_283"/>
</filter>
<filter id="filter11_i_3_283" x="357.956" y="472.962" width="105.069" height="101.64" filterUnits="userSpaceOnUse" color-interpolation-filters="sRGB">
<feFlood flood-opacity="0" result="BackgroundImageFix"/>
<feBlend mode="normal" in="SourceGraphic" in2="BackgroundImageFix" result="shape"/>
<feColorMatrix in="SourceAlpha" type="matrix" values="0 0 0 0 0 0 0 0 0 0 0 0 0 0 0 0 0 0 127 0" result="hardAlpha"/>
<feOffset dy="3.66408"/>
<feGaussianBlur stdDeviation="3.66408"/>
<feComposite in2="hardAlpha" operator="arithmetic" k2="-1" k3="1"/>
<feColorMatrix type="matrix" values="0 0 0 0 0.541667 0 0 0 0 0.040625 0 0 0 0 0.142143 0 0 0 1 0"/>
<feBlend mode="normal" in2="shape" result="effect1_innerShadow_3_283"/>
</filter>
<filter id="filter12_i_3_283" x="379.086" y="488.054" width="68.4821" height="71.6825" filterUnits="userSpaceOnUse" color-interpolation-filters="sRGB">
<feFlood flood-opacity="0" result="BackgroundImageFix"/>
<feBlend mode="normal" in="SourceGraphic" in2="BackgroundImageFix" result="shape"/>
<feColorMatrix in="SourceAlpha" type="matrix" values="0 0 0 0 0 0 0 0 0 0 0 0 0 0 0 0 0 0 127 0" result="hardAlpha"/>
<feOffset dy="3.66408"/>
<feGaussianBlur stdDeviation="3.66408"/>
<feComposite in2="hardAlpha" operator="arithmetic" k2="-1" k3="1"/>
<feColorMatrix type="matrix" values="0 0 0 0 0.541667 0 0 0 0 0.040625 0 0 0 0 0.142143 0 0 0 1 0"/>
<feBlend mode="normal" in2="shape" result="effect1_innerShadow_3_283"/>
</filter>
<filter id="filter13_i_3_283" x="393.073" y="394.145" width="20.1418" height="23.6695" filterUnits="userSpaceOnUse" color-interpolation-filters="sRGB">
<feFlood flood-opacity="0" result="BackgroundImageFix"/>
<feBlend mode="normal" in="SourceGraphic" in2="BackgroundImageFix" result="shape"/>
<feColorMatrix in="SourceAlpha" type="matrix" values="0 0 0 0 0 0 0 0 0 0 0 0 0 0 0 0 0 0 127 0" result="hardAlpha"/>
<feOffset dy="3.66408"/>
<feGaussianBlur stdDeviation="3.66408"/>
<feComposite in2="hardAlpha" operator="arithmetic" k2="-1" k3="1"/>
<feColorMatrix type="matrix" values="0 0 0 0 0.541667 0 0 0 0 0.040625 0 0 0 0 0.142143 0 0 0 1 0"/>
<feBlend mode="normal" in2="shape" result="effect1_innerShadow_3_283"/>
</filter>
<filter id="filter14_i_3_283" x="263.942" y="295.022" width="20.1418" height="23.6695" filterUnits="userSpaceOnUse" color-interpolation-filters="sRGB">
<feFlood flood-opacity="0" result="BackgroundImageFix"/>
<feBlend mode="normal" in="SourceGraphic" in2="BackgroundImageFix" result="shape"/>
<feColorMatrix in="SourceAlpha" type="matrix" values="0 0 0 0 0 0 0 0 0 0 0 0 0 0 0 0 0 0 127 0" result="hardAlpha"/>
<feOffset dy="3.66408"/>
<feGaussianBlur stdDeviation="3.66408"/>
<feComposite in2="hardAlpha" operator="arithmetic" k2="-1" k3="1"/>
<feColorMatrix type="matrix" values="0 0 0 0 0.541667 0 0 0 0 0.040625 0 0 0 0 0.142143 0 0 0 1 0"/>
<feBlend mode="normal" in2="shape" result="effect1_innerShadow_3_283"/>
</filter>
<filter id="filter15_i_3_283" x="815.401" y="816.122" width="20.1418" height="23.6695" filterUnits="userSpaceOnUse" color-interpolation-filters="sRGB">
<feFlood flood-opacity="0" result="BackgroundImageFix"/>
<feBlend mode="normal" in="SourceGraphic" in2="BackgroundImageFix" result="shape"/>
<feColorMatrix in="SourceAlpha" type="matrix" values="0 0 0 0 0 0 0 0 0 0 0 0 0 0 0 0 0 0 127 0" result="hardAlpha"/>
<feOffset dy="3.66408"/>
<feGaussianBlur stdDeviation="3.66408"/>
<feComposite in2="hardAlpha" operator="arithmetic" k2="-1" k3="1"/>
<feColorMatrix type="matrix" values="0 0 0 0 0.541667 0 0 0 0 0.040625 0 0 0 0 0.142143 0 0 0 1 0"/>
<feBlend mode="normal" in2="shape" result="effect1_innerShadow_3_283"/>
</filter>
<filter id="filter16_i_3_283" x="824.866" y="694.836" width="20.1418" height="23.6695" filterUnits="userSpaceOnUse" color-interpolation-filters="sRGB">
<feFlood flood-opacity="0" result="BackgroundImageFix"/>
<feBlend mode="normal" in="SourceGraphic" in2="BackgroundImageFix" result="shape"/>
<feColorMatrix in="SourceAlpha" type="matrix" values="0 0 0 0 0 0 0 0 0 0 0 0 0 0 0 0 0 0 127 0" result="hardAlpha"/>
<feOffset dy="3.66408"/>
<feGaussianBlur stdDeviation="3.66408"/>
<feComposite in2="hardAlpha" operator="arithmetic" k2="-1" k3="1"/>
<feColorMatrix type="matrix" values="0 0 0 0 0.541667 0 0 0 0 0.040625 0 0 0 0 0.142143 0 0 0 1 0"/>
<feBlend mode="normal" in2="shape" result="effect1_innerShadow_3_283"/>
</filter>
<filter id="filter17_i_3_283" x="418.266" y="851.235" width="20.1418" height="23.6695" filterUnits="userSpaceOnUse" color-interpolation-filters="sRGB">
<feFlood flood-opacity="0" result="BackgroundImageFix"/>
<feBlend mode="normal" in="SourceGraphic" in2="BackgroundImageFix" result="shape"/>
<feColorMatrix in="SourceAlpha" type="matrix" values="0 0 0 0 0 0 0 0 0 0 0 0 0 0 0 0 0 0 127 0" result="hardAlpha"/>
<feOffset dy="3.66408"/>
<feGaussianBlur stdDeviation="3.66408"/>
<feComposite in2="hardAlpha" operator="arithmetic" k2="-1" k3="1"/>
<feColorMatrix type="matrix" values="0 0 0 0 0.541667 0 0 0 0 0.040625 0 0 0 0 0.142143 0 0 0 1 0"/>
<feBlend mode="normal" in2="shape" result="effect1_innerShadow_3_283"/>
</filter>
<filter id="filter18_i_3_283" x="293.331" y="381.231" width="66.8139" height="69.7429" filterUnits="userSpaceOnUse" color-interpolation-filters="sRGB">
<feFlood flood-opacity="0" result="BackgroundImageFix"/>
<feBlend mode="normal" in="SourceGraphic" in2="BackgroundImageFix" result="shape"/>
<feColorMatrix in="SourceAlpha" type="matrix" values="0 0 0 0 0 0 0 0 0 0 0 0 0 0 0 0 0 0 127 0" result="hardAlpha"/>
<feOffset dy="3.66408"/>
<feGaussianBlur stdDeviation="3.66408"/>
<feComposite in2="hardAlpha" operator="arithmetic" k2="-1" k3="1"/>
<feColorMatrix type="matrix" values="0 0 0 0 0.541667 0 0 0 0 0.040625 0 0 0 0 0.142143 0 0 0 1 0"/>
<feBlend mode="normal" in2="shape" result="effect1_innerShadow_3_283"/>
</filter>
<filter id="filter19_i_3_283" x="301.067" y="390.965" width="37.2441" height="40.4984" filterUnits="userSpaceOnUse" color-interpolation-filters="sRGB">
<feFlood flood-opacity="0" result="BackgroundImageFix"/>
<feBlend mode="normal" in="SourceGraphic" in2="BackgroundImageFix" result="shape"/>
<feColorMatrix in="SourceAlpha" type="matrix" values="0 0 0 0 0 0 0 0 0 0 0 0 0 0 0 0 0 0 127 0" result="hardAlpha"/>
<feOffset dy="3.66408"/>
<feGaussianBlur stdDeviation="3.66408"/>
<feComposite in2="hardAlpha" operator="arithmetic" k2="-1" k3="1"/>
<feColorMatrix type="matrix" values="0 0 0 0 0.541667 0 0 0 0 0.040625 0 0 0 0 0.142143 0 0 0 1 0"/>
<feBlend mode="normal" in2="shape" result="effect1_innerShadow_3_283"/>
</filter>
<filter id="filter20_i_3_283" x="158.689" y="499.88" width="106.619" height="111.39" filterUnits="userSpaceOnUse" color-interpolation-filters="sRGB">
<feFlood flood-opacity="0" result="BackgroundImageFix"/>
<feBlend mode="normal" in="SourceGraphic" in2="BackgroundImageFix" result="shape"/>
<feColorMatrix in="SourceAlpha" type="matrix" values="0 0 0 0 0 0 0 0 0 0 0 0 0 0 0 0 0 0 127 0" result="hardAlpha"/>
<feOffset dy="3.66408"/>
<feGaussianBlur stdDeviation="3.66408"/>
<feComposite in2="hardAlpha" operator="arithmetic" k2="-1" k3="1"/>
<feColorMatrix type="matrix" values="0 0 0 0 0.541667 0 0 0 0 0.040625 0 0 0 0 0.142143 0 0 0 1 0"/>
<feBlend mode="normal" in2="shape" result="effect1_innerShadow_3_283"/>
</filter>
<filter id="filter21_i_3_283" x="175.854" y="517.301" width="73.203" height="78.5622" filterUnits="userSpaceOnUse" color-interpolation-filters="sRGB">
<feFlood flood-opacity="0" result="BackgroundImageFix"/>
<feBlend mode="normal" in="SourceGraphic" in2="BackgroundImageFix" result="shape"/>
<feColorMatrix in="SourceAlpha" type="matrix" values="0 0 0 0 0 0 0 0 0 0 0 0 0 0 0 0 0 0 127 0" result="hardAlpha"/>
<feOffset dy="3.66408"/>
<feGaussianBlur stdDeviation="3.66408"/>
<feComposite in2="hardAlpha" operator="arithmetic" k2="-1" k3="1"/>
<feColorMatrix type="matrix" values="0 0 0 0 0.541667 0 0 0 0 0.040625 0 0 0 0 0.142143 0 0 0 1 0"/>
<feBlend mode="normal" in2="shape" result="effect1_innerShadow_3_283"/>
</filter>
<filter id="filter22_i_3_283" x="614.46" y="213.549" width="112.776" height="108.826" filterUnits="userSpaceOnUse" color-interpolation-filters="sRGB">
<feFlood flood-opacity="0" result="BackgroundImageFix"/>
<feBlend mode="normal" in="SourceGraphic" in2="BackgroundImageFix" result="shape"/>
<feColorMatrix in="SourceAlpha" type="matrix" values="0 0 0 0 0 0 0 0 0 0 0 0 0 0 0 0 0 0 127 0" result="hardAlpha"/>
<feOffset dy="3.66408"/>
<feGaussianBlur stdDeviation="3.66408"/>
<feComposite in2="hardAlpha" operator="arithmetic" k2="-1" k3="1"/>
<feColorMatrix type="matrix" values="0 0 0 0 0.541667 0 0 0 0 0.040625 0 0 0 0 0.142143 0 0 0 1 0"/>
<feBlend mode="normal" in2="shape" result="effect1_innerShadow_3_283"/>
</filter>
<filter id="filter23_i_3_283" x="637.14" y="229.748" width="73.5053" height="76.6717" filterUnits="userSpaceOnUse" color-interpolation-filters="sRGB">
<feFlood flood-opacity="0" result="BackgroundImageFix"/>
<feBlend mode="normal" in="SourceGraphic" in2="BackgroundImageFix" result="shape"/>
<feColorMatrix in="SourceAlpha" type="matrix" values="0 0 0 0 0 0 0 0 0 0 0 0 0 0 0 0 0 0 127 0" result="hardAlpha"/>
<feOffset dy="3.66408"/>
<feGaussianBlur stdDeviation="3.66408"/>
<feComposite in2="hardAlpha" operator="arithmetic" k2="-1" k3="1"/>
<feColorMatrix type="matrix" values="0 0 0 0 0.541667 0 0 0 0 0.040625 0 0 0 0 0.142143 0 0 0 1 0"/>
<feBlend mode="normal" in2="shape" result="effect1_innerShadow_3_283"/>
</filter>
<filter id="filter24_f_3_283" x="-123.71" y="87.7096" width="1144.68" height="888.622" filterUnits="userSpaceOnUse" color-interpolation-filters="sRGB">
<feFlood flood-opacity="0" result="BackgroundImageFix"/>
<feBlend mode="normal" in="SourceGraphic" in2="BackgroundImageFix" result="shape"/>
<feGaussianBlur stdDeviation="30" result="effect1_foregroundBlur_3_283"/>
</filter>
<filter id="filter25_f_3_283" x="121.01" y="80.9698" width="1189.62" height="978.275" filterUnits="userSpaceOnUse" color-interpolation-filters="sRGB">
<feFlood flood-opacity="0" result="BackgroundImageFix"/>
<feBlend mode="normal" in="SourceGraphic" in2="BackgroundImageFix" result="shape"/>
<feGaussianBlur stdDeviation="45" result="effect1_foregroundBlur_3_283"/>
</filter>
<linearGradient id="paint0_linear_3_283" x1="740.495" y1="366.788" x2="58.9949" y2="1011.79" gradientUnits="userSpaceOnUse">
<stop stop-color="#F3164E"/>
<stop offset="1" stop-color="#8B0119"/>
</linearGradient>
<clipPath id="clip0_3_283">
<rect x="224.995" y="269.288" width="600" height="600" rx="300" transform="rotate(-5 224.995 269.288)" fill="white"/>
</clipPath>
</defs>
</svg>
