<svg width="810" height="810" viewBox="0 0 810 810" fill="none" xmlns="http://www.w3.org/2000/svg">
<g filter="url(#filter0_d_3_480)">
<g clip-path="url(#clip0_3_480)">
<rect x="79.9949" y="132.288" width="600" height="600" rx="300" transform="rotate(-5 79.9949 132.288)" fill="url(#paint0_linear_3_480)"/>
<g opacity="0.2">
<path d="M404.499 502.191C404.018 496.689 395.463 490.434 389.961 490.915C384.46 491.396 375.515 492.156 375.996 497.658C376.477 503.16 386.203 511.32 391.705 510.839C397.206 510.357 404.981 507.693 404.499 502.191Z" fill="#FFB802"/>
<path d="M527.058 336.88C526.577 331.378 518.022 325.123 512.52 325.604C507.018 326.086 498.073 326.845 498.555 332.347C499.036 337.849 508.761 346.01 514.263 345.528C519.765 345.047 527.539 342.382 527.058 336.88Z" fill="#FFB802"/>
<path d="M626.413 566.093C625.932 560.591 617.377 554.336 611.875 554.817C606.373 555.299 597.428 556.058 597.91 561.56C598.391 567.062 608.117 575.222 613.618 574.741C619.12 574.26 626.895 571.595 626.413 566.093Z" fill="#FFB802"/>
<path d="M191.396 188.046C191.877 193.548 200.432 199.803 205.934 199.322C211.436 198.84 220.381 198.081 219.899 192.579C219.418 187.077 208.074 189.097 202.572 189.578C197.07 190.059 190.915 182.544 191.396 188.046Z" fill="#FFB802"/>
<path d="M556.275 162.299C555.793 156.798 547.238 150.542 541.736 151.024C536.235 151.505 527.29 152.265 527.771 157.766C528.252 163.268 542.088 172.515 547.59 172.034C553.092 171.552 556.756 167.801 556.275 162.299Z" fill="#FFB802"/>
<path d="M183.222 330.824C182.741 325.323 190.079 317.677 195.581 317.195C201.083 316.714 210.024 315.909 210.505 321.411C210.987 326.912 202.826 336.638 197.324 337.119C191.822 337.601 183.703 336.326 183.222 330.824Z" fill="#FFB802"/>
<path d="M402.407 518.435C401.926 512.933 394.068 514.647 388.566 515.129C383.065 515.61 373.422 508.4 373.904 513.902C374.385 519.404 384.111 527.564 389.612 527.083C395.114 526.602 402.889 523.937 402.407 518.435Z" fill="#D66C14"/>
<path d="M210.645 586.908C210.164 581.407 215.101 574.473 209.6 574.954C204.098 575.435 190.496 574.595 190.977 580.097C191.458 585.599 201.184 593.759 206.686 593.278C212.187 592.796 211.127 592.41 210.645 586.908Z" fill="#D66C14"/>
</g>
<g opacity="0.2">
<path d="M506.352 495.7C502.301 491.946 502.606 481.352 506.361 477.302C510.115 473.251 516.2 466.651 520.251 470.405C524.302 474.16 524.784 486.846 521.03 490.897C517.275 494.947 510.403 499.454 506.352 495.7Z" fill="#FFB802"/>
<path d="M300.616 491.134C296.565 487.38 296.87 476.787 300.624 472.736C304.379 468.685 310.464 462.085 314.515 465.839C318.565 469.594 319.047 482.28 315.293 486.331C311.539 490.381 304.667 494.888 300.616 491.134Z" fill="#FFB802"/>
<path d="M420.742 710.177C416.692 706.423 416.997 695.829 420.751 691.778C424.505 687.728 430.591 681.128 434.641 684.882C438.692 688.636 439.174 701.323 435.42 705.373C431.666 709.424 424.793 713.931 420.742 710.177Z" fill="#FFB802"/>
<path d="M388.892 134.725C392.943 138.479 392.638 149.072 388.884 153.123C385.13 157.174 379.044 163.774 374.994 160.019C370.943 156.265 379.495 148.543 383.249 144.492C387.003 140.441 384.842 130.971 388.892 134.725Z" fill="#FFB802"/>
<path d="M144.798 407.153C140.747 403.399 141.052 392.806 144.807 388.755C148.561 384.704 154.646 378.104 158.697 381.858C162.748 385.613 161.567 402.212 157.813 406.263C154.059 410.313 148.849 410.907 144.798 407.153Z" fill="#FFB802"/>
<path d="M506.686 215.825C502.635 212.071 492.095 213.179 488.341 217.23C484.587 221.28 478.468 227.849 482.519 231.603C486.569 235.357 499.256 234.875 503.01 230.825C506.764 226.774 510.736 219.579 506.686 215.825Z" fill="#FFB802"/>
<path d="M520.466 504.009C516.416 500.255 522.588 495.099 526.342 491.049C530.097 486.998 530.314 474.96 534.365 478.714C538.416 482.469 538.898 495.155 535.144 499.206C531.39 503.256 524.517 507.763 520.466 504.009Z" fill="#D66C14"/>
<path d="M692.149 394.527C688.098 390.773 679.594 390.421 683.348 386.37C687.102 382.32 694.779 371.06 698.83 374.814C702.881 378.568 703.363 391.255 699.609 395.305C695.855 399.356 696.2 398.282 692.149 394.527Z" fill="#D66C14"/>
</g>
<g opacity="0.2">
<path d="M732.553 355.731C728.502 351.977 728.807 341.384 732.561 337.333C736.316 333.282 742.401 326.682 746.452 330.437C750.502 334.191 749.322 350.79 745.568 354.841C741.814 358.891 736.604 359.485 732.553 355.731Z" fill="#FFB802"/>
</g>
<g filter="url(#filter1_f_3_480)">
<path opacity="0.8" d="M-10.8743 470.495L96.9219 413.623C164.792 377.815 244.277 371.042 317.227 394.85V394.85C389.764 418.522 468.78 411.965 536.423 376.659L540.838 374.354C609.022 338.766 689.052 332.117 762.277 355.649V355.649C835.8 379.277 916.36 372.149 984.499 335.805V335.805C1052.82 299.364 1133.21 292.256 1206.82 316.279V316.279C1280.43 340.302 1360.65 333.284 1428.97 296.843V296.843C1497.29 260.403 1577.51 253.385 1651.12 277.408L1766.34 315.009" stroke="#FFB802" stroke-width="32"/>
<path opacity="0.5" d="M-89.4789 575.525L18.3173 518.653C86.1876 482.845 165.672 476.072 238.623 499.88V499.88C311.159 523.553 390.176 516.995 457.818 481.689L462.233 479.385C530.417 443.796 610.448 437.147 683.673 460.679V460.679C757.196 484.307 837.755 477.179 905.895 440.835V440.835C974.215 404.395 1054.6 397.286 1128.21 421.309V421.309C1201.82 445.333 1282.05 438.314 1350.37 401.874V401.874C1418.69 365.433 1498.91 358.415 1572.52 382.438L1687.73 420.039" stroke="#FFB802" stroke-width="24"/>
<path d="M-37.6225 508.972L70.1736 452.1C138.044 416.293 217.529 409.519 290.479 433.327V433.327C363.016 457 442.032 450.443 509.674 415.137L514.09 412.832C582.274 377.243 662.304 370.594 735.529 394.126V394.126C809.052 417.754 889.611 410.626 957.751 374.282V374.282C1026.07 337.842 1106.46 330.734 1180.07 354.757V354.757C1253.68 378.78 1333.9 371.761 1402.22 335.321V335.321C1470.54 298.881 1550.76 291.862 1624.37 315.885L1739.59 353.487" stroke="#FFB802" stroke-width="16"/>
<path d="M-63.7728 531.337L44.0233 474.465C111.894 438.657 191.378 431.884 264.329 455.691V455.691C336.866 479.364 415.882 472.807 483.524 437.501L487.939 435.196C556.124 399.607 636.154 392.959 709.379 416.491V416.491C782.902 440.119 863.461 432.99 931.601 396.646V396.646C999.921 360.206 1080.31 353.098 1153.92 377.121V377.121C1227.53 401.144 1307.75 394.126 1376.07 357.685V357.685C1444.39 321.245 1524.61 314.226 1598.22 338.25L1713.44 375.851" stroke="#FFB802" stroke-width="8"/>
<path d="M-54.4642 540.017L53.3319 483.145C121.202 447.337 200.687 440.564 273.637 464.372V464.372C346.174 488.045 425.19 481.488 492.833 446.182L497.248 443.877C565.432 408.288 645.462 401.639 718.687 425.171V425.171C792.21 448.799 872.77 441.671 940.909 405.327V405.327C1009.23 368.887 1089.62 361.779 1163.23 385.802V385.802C1236.84 409.825 1317.06 402.806 1385.38 366.366V366.366C1453.7 329.926 1533.92 322.907 1607.53 346.93L1722.75 384.532" stroke="#FFB802" stroke-width="4"/>
<path d="M-73.1723 553.056L34.6238 496.184C102.494 460.376 181.979 453.603 254.929 477.411V477.411C327.466 501.084 406.482 494.526 474.125 459.22L478.54 456.916C546.724 421.327 626.754 414.678 699.979 438.21V438.21C773.502 461.838 854.062 454.71 922.201 418.366V418.366C990.521 381.925 1070.91 374.817 1144.52 398.84V398.84C1218.13 422.863 1298.35 415.845 1366.67 379.404V379.404C1434.99 342.964 1515.21 335.946 1588.82 359.969L1704.04 397.57" stroke="#FFB802" stroke-width="4"/>
<path opacity="0.7" d="M3.30686 667.007L116.357 608.96C185.573 573.42 266 566.563 340.233 589.871L343.799 590.991C417.61 614.167 497.561 607.524 566.535 572.484L575.962 567.696C644.533 532.861 723.97 526.084 797.45 548.8L804.291 550.915C878.627 573.896 959.022 566.683 1028.08 530.838L1032.82 528.379C1102.28 492.325 1183.19 485.246 1257.86 508.69L1262.22 510.061C1336.89 533.505 1417.8 526.426 1487.26 490.372L1491.32 488.265C1560.78 452.211 1641.69 445.133 1716.35 468.577L1837.3 506.553" stroke="#FFB802" stroke-width="20"/>
<path opacity="0.3" d="M-16.8777 690.725L96.1728 632.678C165.389 597.139 245.815 590.281 320.049 613.59L323.615 614.71C397.426 637.886 477.377 631.243 546.351 596.203L555.778 591.414C624.348 556.58 703.785 549.803 777.266 572.519L784.107 574.634C858.443 597.614 938.838 590.402 1007.9 554.557L1012.63 552.097C1082.09 516.044 1163.01 508.965 1237.67 532.409L1242.04 533.779C1316.7 557.224 1397.61 550.145 1467.07 514.091L1471.13 511.984C1540.59 475.93 1621.5 468.851 1696.17 492.296L1817.12 530.272" stroke="#FFB802" stroke-width="8"/>
<path d="M-20.6659 696.862L92.3846 638.815C161.601 603.275 242.027 596.418 316.26 619.726L319.826 620.846C393.637 644.022 473.589 637.379 542.563 602.339L551.989 597.551C620.56 562.716 699.997 555.939 773.477 578.655L780.319 580.77C854.654 603.751 935.049 596.538 1004.11 560.693L1008.85 558.234C1078.31 522.18 1159.22 515.101 1233.88 538.545L1238.25 539.916C1312.91 563.36 1393.82 556.281 1463.28 520.227L1467.34 518.12C1536.8 482.066 1617.72 474.988 1692.38 498.432L1813.33 536.408" stroke="#FFB802" stroke-width="2"/>
<path d="M-51.6191 714.265L61.4314 656.218C130.647 620.679 211.074 613.821 285.307 637.13L288.873 638.25C362.684 661.426 442.635 654.783 511.609 619.743L521.036 614.954C589.607 580.12 669.044 573.343 742.524 596.059L749.365 598.174C823.701 621.154 904.096 613.942 973.155 578.097L977.893 575.637C1047.35 539.584 1128.26 532.505 1202.93 555.949L1207.29 557.319C1281.96 580.764 1362.87 573.685 1432.33 537.631L1436.39 535.524C1505.85 499.47 1586.76 492.391 1661.43 515.836L1782.38 553.812" stroke="#FFB802" stroke-width="2"/>
<path d="M-16.1395 725.137L96.911 667.09C166.127 631.55 246.553 624.693 320.787 648.002L324.353 649.121C398.164 672.297 478.115 665.654 547.089 630.615L556.516 625.826C625.086 590.991 704.523 584.215 778.004 606.931L784.845 609.045C859.181 632.026 939.576 624.813 1008.63 588.968L1013.37 586.509C1082.83 550.455 1163.74 543.376 1238.41 566.821L1242.77 568.191C1317.44 591.635 1398.35 584.556 1467.81 548.503L1471.87 546.396C1541.33 510.342 1622.24 503.263 1696.91 526.707L1817.85 564.683" stroke="#FFB802" stroke-width="2"/>
<path opacity="0.4" d="M-27.6478 734.548L85.4028 676.501C154.619 640.961 235.045 634.104 309.279 657.412L312.845 658.532C386.656 681.708 466.607 675.065 535.581 640.025L545.008 635.237C613.578 600.402 693.015 593.625 766.495 616.341L773.337 618.456C847.673 641.437 928.068 634.224 997.126 598.379L1001.86 595.92C1071.32 559.866 1152.24 552.787 1226.9 576.231L1231.27 577.602C1305.93 601.046 1386.84 593.967 1456.3 557.913L1460.36 555.806C1529.82 519.753 1610.73 512.674 1685.4 536.118L1806.35 574.094" stroke="#FFB802" stroke-width="8"/>
<path d="M-29.3225 766.504L83.728 708.457C152.944 672.918 233.37 666.06 307.604 689.369L311.17 690.488C384.981 713.664 464.932 707.021 533.906 671.982L543.333 667.193C611.903 632.359 691.34 625.582 764.821 648.298L771.662 650.413C845.998 673.393 926.393 666.181 995.451 630.335L1000.19 627.876C1069.65 591.822 1150.56 584.744 1225.23 608.188L1229.59 609.558C1304.26 633.002 1385.17 625.924 1454.63 589.87L1458.69 587.763C1528.15 551.709 1609.06 544.63 1683.73 568.074L1804.67 606.05" stroke="#FFB802" stroke-width="4"/>
<path d="M-38.7799 449.848L69.0162 392.976C136.887 357.169 216.371 350.395 289.322 374.203V374.203C361.858 397.876 440.875 391.319 508.517 356.013L512.932 353.708C581.116 318.119 661.147 311.47 734.372 335.002V335.002C807.895 358.63 888.454 351.502 956.594 315.158V315.158C1024.91 278.718 1105.3 271.61 1178.91 295.633V295.633C1252.52 319.656 1332.74 312.637 1401.06 276.197V276.197C1469.38 239.757 1549.61 232.738 1623.22 256.761L1738.43 294.363" stroke="#FFB802" stroke-width="8"/>
<path d="M-58.2291 438.815L49.567 381.943C117.437 346.135 196.922 339.362 269.872 363.17V363.17C342.409 386.843 421.425 380.285 489.068 344.979L493.483 342.675C561.667 307.086 641.698 300.437 714.923 323.969V323.969C788.445 347.597 869.005 340.469 937.144 304.125V304.125C1005.46 267.685 1085.85 260.576 1159.46 284.599V284.599C1233.07 308.623 1313.3 301.604 1381.62 265.164V265.164C1449.94 228.723 1530.16 221.705 1603.77 245.728L1718.98 283.329" stroke="#FFB802" stroke-width="4"/>
<path opacity="0.5" d="M-134.936 291.627L-21.8852 233.58C47.3308 198.04 127.757 191.183 201.991 214.491L205.557 215.611C279.368 238.787 359.319 232.144 428.293 197.105L437.72 192.316C506.29 157.481 585.727 150.704 659.208 173.42L666.049 175.535C740.385 198.516 820.78 191.303 889.838 155.458L894.576 152.999C964.036 116.945 1044.95 109.866 1119.61 133.31L1123.98 134.681C1198.64 158.125 1279.55 151.046 1349.02 114.992L1353.07 112.885C1422.54 76.8316 1503.45 69.7528 1578.11 93.197L1699.06 131.173" stroke="#FFB802" stroke-width="8"/>
<path d="M-106.926 273.067L6.12414 215.02C75.3402 179.481 155.766 172.623 230 195.932L233.566 197.051C307.377 220.227 387.328 213.584 456.302 178.545L465.729 173.756C534.3 138.922 613.737 132.145 687.217 154.861L694.058 156.976C768.394 179.956 848.789 172.744 917.847 136.898L922.585 134.439C992.046 98.3855 1072.96 91.3066 1147.62 114.751L1151.99 116.121C1226.65 139.565 1307.56 132.487 1377.02 96.4329L1381.08 94.3257C1450.54 58.272 1531.46 51.1932 1606.12 74.6375L1727.07 112.613" stroke="#FFB802" stroke-width="4"/>
<path opacity="0.7" d="M-103.263 203.163L9.78753 145.116C79.0036 109.577 159.43 102.719 233.663 126.028L237.229 127.148C311.04 150.324 390.991 143.681 459.965 108.641L469.392 103.852C537.963 69.0177 617.4 62.2409 690.88 84.9569L697.721 87.0718C772.057 110.052 852.452 102.84 921.511 66.9947L926.249 64.5353C995.709 28.4817 1076.62 21.4028 1151.29 44.8471L1155.65 46.2173C1230.32 69.6616 1311.23 62.5828 1380.69 26.5291L1384.75 24.4219C1454.21 -11.6318 1535.12 -18.7106 1609.79 4.73367L1730.73 42.7097" stroke="#FFB802" stroke-width="4"/>
<path opacity="0.8" d="M-136.506 321.586L-23.4553 263.539C45.7607 227.999 126.187 221.142 200.42 244.45L203.987 245.57C277.797 268.746 357.749 262.103 426.723 227.064L436.149 222.275C504.72 187.44 584.157 180.663 657.637 203.379L664.479 205.494C738.814 228.475 819.21 221.262 888.268 185.417L893.006 182.958C962.466 146.904 1043.38 139.825 1118.04 163.269L1122.41 164.64C1197.07 188.084 1277.98 181.005 1347.44 144.951L1351.5 142.844C1420.96 106.791 1501.88 99.7117 1576.54 123.156L1697.49 161.132" stroke="#FFB802" stroke-width="8"/>
<path opacity="0.7" d="M-129.084 371.042L-16.0335 312.995C53.1825 277.455 133.609 270.598 207.842 293.906L211.408 295.026C285.219 318.202 365.17 311.559 434.144 276.52L443.571 271.731C512.142 236.896 591.579 230.119 665.059 252.835L671.9 254.95C746.236 277.931 826.631 270.718 895.69 234.873L900.428 232.414C969.888 196.36 1050.8 189.281 1125.47 212.726L1129.83 214.096C1204.49 237.54 1285.41 230.461 1354.87 194.408L1358.93 192.3C1428.39 156.247 1509.3 149.168 1583.96 172.612L1704.91 210.588" stroke="#FFB802" stroke-width="8"/>
<path d="M-163.325 309.629L-50.2744 251.582C18.9417 216.042 99.3678 209.185 173.601 232.493L177.167 233.613C250.978 256.789 330.93 250.146 399.904 215.107L409.33 210.318C477.901 175.483 557.338 168.706 630.818 191.422L637.66 193.537C711.995 216.518 792.39 209.305 861.449 173.46L866.187 171.001C935.647 134.947 1016.56 127.868 1091.22 151.312L1095.59 152.683C1170.25 176.127 1251.17 169.048 1320.63 132.994L1324.69 130.887C1394.15 94.8336 1475.06 87.7547 1549.72 111.199L1670.67 149.175" stroke="#FFB802" stroke-width="4"/>
</g>
<g filter="url(#filter2_f_3_480)">
<path d="M333.533 -0.973956C109.444 285.308 299.406 705.426 662.364 726.269L778.736 732.951L-249.238 710.63L333.533 -0.973956Z" fill="url(#paint1_linear_3_480)" fill-opacity="0.4"/>
</g>
<g opacity="0.2" filter="url(#filter3_f_3_480)">
<path d="M488.123 807.9C729.475 536.014 565.84 104.959 204.864 61.7264L89.1263 47.8649L1113.76 133.672L488.123 807.9Z" fill="#FFEAB3"/>
</g>
</g>
</g>
<defs>
<filter id="filter0_d_3_480" x="-0.00512695" y="-0.00537109" width="810.01" height="810.01" filterUnits="userSpaceOnUse" color-interpolation-filters="sRGB">
<feFlood flood-opacity="0" result="BackgroundImageFix"/>
<feColorMatrix in="SourceAlpha" type="matrix" values="0 0 0 0 0 0 0 0 0 0 0 0 0 0 0 0 0 0 127 0" result="hardAlpha"/>
<feOffset/>
<feGaussianBlur stdDeviation="40"/>
<feComposite in2="hardAlpha" operator="out"/>
<feColorMatrix type="matrix" values="0 0 0 0 0.916667 0 0 0 0 0.420489 0 0 0 0 0.00763887 0 0 0 1 0"/>
<feBlend mode="normal" in2="BackgroundImageFix" result="effect1_dropShadow_3_480"/>
<feBlend mode="normal" in="SourceGraphic" in2="effect1_dropShadow_3_480" result="shape"/>
</filter>
<filter id="filter1_f_3_480" x="-170.238" y="-16.8608" width="2016.54" height="791.144" filterUnits="userSpaceOnUse" color-interpolation-filters="sRGB">
<feFlood flood-opacity="0" result="BackgroundImageFix"/>
<feBlend mode="normal" in="SourceGraphic" in2="BackgroundImageFix" result="shape"/>
<feGaussianBlur stdDeviation="3" result="effect1_foregroundBlur_3_480"/>
</filter>
<filter id="filter2_f_3_480" x="-289.238" y="-40.9741" width="1107.97" height="813.925" filterUnits="userSpaceOnUse" color-interpolation-filters="sRGB">
<feFlood flood-opacity="0" result="BackgroundImageFix"/>
<feBlend mode="normal" in="SourceGraphic" in2="BackgroundImageFix" result="shape"/>
<feGaussianBlur stdDeviation="20" result="effect1_foregroundBlur_3_480"/>
</filter>
<filter id="filter3_f_3_480" x="39.1263" y="-2.13525" width="1124.63" height="860.036" filterUnits="userSpaceOnUse" color-interpolation-filters="sRGB">
<feFlood flood-opacity="0" result="BackgroundImageFix"/>
<feBlend mode="normal" in="SourceGraphic" in2="BackgroundImageFix" result="shape"/>
<feGaussianBlur stdDeviation="25" result="effect1_foregroundBlur_3_480"/>
</filter>
<linearGradient id="paint0_linear_3_480" x1="233.933" y1="444.075" x2="744.438" y2="400.701" gradientUnits="userSpaceOnUse">
<stop stop-color="#F5610F"/>
<stop offset="1" stop-color="#FF9104"/>
</linearGradient>
<linearGradient id="paint1_linear_3_480" x1="157.976" y1="532.746" x2="340.893" y2="472.237" gradientUnits="userSpaceOnUse">
<stop stop-color="#772B06"/>
<stop offset="1" stop-color="#FF9A06"/>
</linearGradient>
<clipPath id="clip0_3_480">
<rect x="79.9949" y="132.288" width="600" height="600" rx="300" transform="rotate(-5 79.9949 132.288)" fill="white"/>
</clipPath>
</defs>
</svg>
