<svg width="760" height="760" viewBox="0 0 760 760" fill="none" xmlns="http://www.w3.org/2000/svg">
<g filter="url(#filter0_d_3_947)">
<g clip-path="url(#clip0_3_947)">
<rect x="79.9999" y="80" width="600" height="600" rx="300" fill="url(#paint0_linear_3_947)"/>
<g filter="url(#filter1_d_3_947)">
<path fill-rule="evenodd" clip-rule="evenodd" d="M-5.39287 179.944L20.5753 156.643C32.0193 146.374 25.3469 127.395 9.99446 126.546C3.86896 126.208 -1.97624 129.145 -5.36105 134.261L-9.04106 139.824C-11.012 142.803 -11.7187 146.444 -11.0057 149.944L-10.5537 152.163C-9.6282 156.706 -11.8086 161.316 -15.908 163.483L-16.6097 163.854C-22.6184 167.03 -23.7013 175.183 -18.7299 179.818C-14.9875 183.306 -9.2009 183.361 -5.39287 179.944ZM-20.3778 148.09L-22.9183 142.245C-24.7601 138.008 -30.0415 136.551 -33.7956 139.244C-35.7059 140.614 -36.8333 142.825 -36.8201 145.176L-36.7845 151.549C-36.7591 156.098 -33.1799 159.832 -28.6365 160.05C-22.303 160.353 -17.85 153.905 -20.3778 148.09ZM-58.6372 163.458L-54.9037 158.293C-52.1971 154.549 -53.6352 149.263 -57.8655 147.405C-60.0181 146.46 -62.4954 146.617 -64.5114 147.827L-69.9761 151.106C-73.8765 153.446 -75.2648 158.429 -73.1365 162.449C-70.1698 168.053 -62.352 168.597 -58.6372 163.458ZM124.044 430.253V428.546C124.044 415.074 130.402 402.392 141.198 394.332L145.589 391.054C158.245 381.605 174.423 378.216 189.807 381.79L193.689 382.692L229.995 391.091C231.175 391.364 232.396 391.412 233.594 391.233L240.558 390.193C246.463 389.31 248.366 381.737 243.579 378.168C241.879 376.901 240.877 374.905 240.877 372.784V372.319C240.877 368.745 243.356 365.648 246.843 364.864L255.758 362.861C261.223 361.633 264.291 355.805 262.211 350.604C260.829 347.15 257.484 344.885 253.763 344.885H249.783C244.295 344.885 239.246 347.887 236.625 352.71L234.279 357.026C233.94 357.649 233.557 358.245 233.133 358.812C226.921 367.093 214.299 366.442 208.973 357.566L208.062 356.048C204.174 349.567 196.235 346.758 189.136 349.349L168.268 356.968C166.463 357.626 164.764 358.543 163.223 359.69L150.748 368.974C146.004 372.505 139.194 370.346 137.35 364.726C136.06 360.795 137.731 356.501 141.339 354.475L145.164 352.328C148.975 350.189 151.334 346.159 151.334 341.79C151.334 338.009 153.103 334.446 156.115 332.161L173.837 318.716C175.302 317.606 176.484 316.165 177.288 314.513C179.589 309.783 184.762 307.169 189.934 308.123L198.465 309.697C205.606 311.014 212.777 307.55 216.184 301.137L217.927 297.857C219.31 295.253 219.375 292.148 218.101 289.489C214.869 282.739 205.388 282.39 201.668 288.884L198.545 294.336C196.099 298.607 190.261 299.386 186.781 295.905L186.359 295.483C185.228 294.352 183.694 293.717 182.095 293.717C178.765 293.717 176.065 291.017 176.065 287.687V278.452C176.065 275.254 177.069 272.137 178.935 269.541L194.017 248.564C202.089 237.337 216.096 232.03 229.582 235.09L243.609 238.274C245.989 238.814 247.946 240.501 248.83 242.775L248.926 243.022C250.304 246.566 248.633 250.566 245.142 252.075L243.257 252.891C241.812 253.515 240.877 254.938 240.877 256.512C240.877 258.691 242.644 260.458 244.823 260.458H249.444C253.548 260.458 257.075 257.548 257.855 253.519L258.504 250.163C259.38 245.638 262.637 241.942 267.016 240.503L290.123 232.914C295.517 231.142 299.52 226.576 300.572 220.996C301.77 214.634 306.778 209.676 313.151 208.541L315.576 208.11C320.534 207.227 324.945 204.426 327.853 200.314L351.129 167.399C356.335 160.038 365.408 156.46 374.237 158.287L376.143 158.681C381.405 159.77 385.93 163.1 388.534 167.8C392.894 175.67 402.299 179.243 410.785 176.252L417.621 173.844C422.879 171.991 428.692 172.615 433.437 175.541C439.306 179.16 446.702 179.205 452.614 175.657L461.066 170.586C467.769 166.565 475.635 164.927 483.386 165.94L508.222 169.186C516.868 170.316 525.658 169.014 533.605 165.428C540.918 162.129 548.954 160.759 556.947 161.45L584.77 163.854C588.49 164.175 591.732 166.512 593.214 169.939C594.554 173.037 594.266 176.598 592.447 179.441L590.357 182.706C587.745 186.788 586.948 191.773 588.159 196.466L589.254 200.706C590.277 204.673 590.401 208.818 589.617 212.84L587.448 223.953C586.71 227.737 584.062 230.866 580.452 232.219C575.814 233.959 572.89 238.562 573.287 243.501L576.296 280.906C576.465 283.003 574.993 284.877 572.915 285.209C570.946 285.524 569.042 284.351 568.437 282.45L562.033 262.304C558.54 251.316 547.179 244.867 535.953 247.502C530.813 248.708 526.275 251.717 523.163 255.983L520.639 259.444C514.195 268.279 512.449 279.695 515.958 290.052L523.365 311.917C526.216 320.331 524.27 329.63 518.285 336.195L513.987 340.908C511.696 343.421 510.674 346.841 511.212 350.199L511.653 352.957C512.676 359.352 506.978 364.789 500.639 363.468C494.031 362.092 488.223 368.03 489.747 374.606L494.155 393.631C496.064 401.869 493.02 410.467 486.353 415.669L478.475 421.815C474.021 425.29 471.417 430.624 471.417 436.273V446.385C471.417 450.929 467.734 454.611 463.191 454.611H457.4C454.99 454.611 453.222 456.876 453.806 459.214C454.79 463.15 449.643 465.577 447.233 462.314L426.391 434.097C423.457 430.126 418.18 428.69 413.639 430.627L406.693 433.591C402.407 435.419 398.885 438.673 396.723 442.801L386.519 462.281C385.55 464.131 382.983 464.339 381.729 462.669L358.743 432.08C351.454 422.381 341.054 415.482 329.284 412.54L316.203 408.261C311.394 406.688 307.587 412.473 310.935 416.267C311.412 416.808 312.002 417.239 312.662 417.529L313.094 417.718C317.854 419.808 318.831 426.136 314.921 429.563L308.779 434.948C305.02 438.244 299.64 438.937 295.169 436.701L289.873 434.053C281.189 429.711 271.61 438.086 274.753 447.272C276.254 451.662 280.381 454.611 285.02 454.611H285.317C293.447 454.611 298.902 462.959 295.636 470.405L282.399 500.585C281.63 502.339 281.016 504.157 280.564 506.018L274.498 530.997C272.574 538.918 268.969 546.334 263.927 552.74L239.767 583.439C235.981 588.25 230.197 591.059 224.074 591.059C218.645 591.059 213.45 588.849 209.686 584.937L204.338 579.381C197.506 572.283 193.689 562.814 193.689 552.962V523.972L190.68 499.526C189.689 491.475 185.747 484.077 179.617 478.764C174.707 474.508 168.642 471.808 162.194 471.007L159.782 470.707C139.369 468.171 124.044 450.823 124.044 430.253ZM-35.02 193.626L-39.3741 199.658C-43.71 205.664 -52.8457 205.029 -56.308 198.48C-58.7877 193.789 -57.1688 187.978 -52.6209 185.246L-46.2444 181.414C-43.8888 179.999 -40.9928 179.815 -38.477 180.921C-33.5433 183.09 -31.8655 189.256 -35.02 193.626ZM-23.496 203.24L-27.888 206.331C-29.7643 207.651 -30.8808 209.802 -30.8808 212.097C-30.8808 214.586 -29.5679 216.891 -27.4268 218.161L-16.5868 224.589C-10.2929 228.321 -6.43388 235.096 -6.43388 242.414V243.616C-6.43388 246.816 -5.51106 249.949 -3.77599 252.638L-1.28021 256.507C2.18788 261.882 9.29088 263.545 14.7842 260.266C19.3773 257.525 21.5711 252.052 20.1427 246.898L12.8385 220.539C10.7181 212.887 5.24597 206.607 -2.04402 203.459L-6.58827 201.496C-12.1439 199.097 -18.5471 199.758 -23.496 203.24ZM75.9731 139.127L33.0391 164.309C29.3659 166.463 27.1094 170.403 27.1094 174.661C27.1094 177.731 28.2855 180.684 30.396 182.913L37.8916 190.83C46.9591 200.407 50.6296 213.887 47.6689 226.739L41.3749 254.061C40.4452 258.097 41.4317 262.336 44.0478 265.547C48.6836 271.236 57.0307 272.144 62.7817 267.585L91.3656 244.925C101.572 236.835 108.248 225.106 109.995 212.2L111.327 202.355C112.032 197.149 113.455 192.065 115.555 187.25L120.892 175.014C122.954 170.286 123.689 165.084 123.017 159.969C121.424 147.836 112.235 138.089 100.216 135.786L97.9228 135.346C90.3899 133.903 82.589 135.246 75.9731 139.127ZM-246.776 253.492C-250.707 232.405 -247.236 188.817 -205.042 170.231C-204.166 169.845 -203.29 169.438 -202.411 169.03L-202.411 169.03L-202.411 169.03L-202.411 169.03L-202.411 169.029L-202.41 169.029L-202.41 169.029C-198.714 167.312 -194.965 165.57 -190.951 165.279C-182.638 164.679 -169.703 169.188 -154.88 188.026C-154.342 188.71 -153.831 189.372 -153.337 190.012C-149.792 194.602 -147.126 198.055 -141.427 200.625C-130.592 205.511 -123.349 195.769 -116.073 185.981C-108.817 176.221 -101.528 166.415 -90.608 171.026C-87.5539 172.315 -83.7826 174.875 -79.1617 179.04C-74.3229 183.402 -70.8372 189.075 -68.3775 195.108L-63.1655 207.889C-61.2416 212.608 -57.5187 216.366 -52.8189 218.334C-40.3627 223.551 -37.06 239.667 -46.4602 249.363L-58.3461 261.622C-65.8843 269.397 -65.5319 281.857 -57.5663 289.194L-53.0138 293.387C-46.2087 299.655 -35.3385 297.942 -30.7903 289.885C-25.649 280.778 -12.806 280.05 -6.6687 288.519L3.23792 302.188C10.9407 312.817 9.18907 327.579 -0.787216 336.11L-59.0124 385.9C-61.9057 388.374 -63.5714 391.99 -63.5714 395.797C-63.5714 405.028 -72.9095 411.328 -81.4689 407.873L-87.4708 405.45C-97.9289 401.227 -109.338 408.925 -109.338 420.203C-109.338 425.692 -106.509 430.794 -101.853 433.7L-74.8419 450.563C-65.4912 456.4 -54.1118 458.022 -43.5025 455.03C-32.926 452.047 -21.5827 453.649 -12.2464 459.445L41.8348 493.018C55.1996 501.315 59.2852 518.889 50.9509 532.23L-0.276901 614.236C-3.04188 618.662 -5.18426 623.448 -6.64368 628.459L-10.6364 642.167C-12.1596 647.397 -12.1055 652.96 -10.4807 658.159L-5.67445 673.539C-4.94177 675.883 -5.81091 678.433 -7.82329 679.841C-10.5723 681.766 -14.3832 680.878 -15.9997 677.938L-34.6898 643.938C-37.9721 637.967 -39.6931 631.263 -39.6931 624.45V565.108C-39.6931 552.827 -44.7727 541.093 -53.7274 532.688L-59.1283 527.619C-67.1746 520.067 -70.6646 508.844 -68.3204 498.061C-65.4779 484.985 -71.2356 471.546 -82.6621 464.584L-120.281 441.662C-123.181 439.895 -125.64 437.49 -127.472 434.63L-154.365 392.623C-156.017 390.042 -159.984 390.868 -160.468 393.894C-161.011 397.291 -165.716 397.742 -166.895 394.511L-177.924 364.276C-178.618 362.373 -178.807 360.322 -178.47 358.324L-172.581 323.344C-170.642 311.832 -172.295 300.002 -177.314 289.461L-192.313 257.964C-195.805 250.631 -203.203 245.96 -211.325 245.96H-212.03C-216.047 245.96 -219.959 247.24 -223.199 249.613L-234.824 258.13C-238.809 261.049 -244.476 259.456 -246.357 254.889C-246.544 254.433 -246.686 253.976 -246.776 253.492ZM480.494 478.935L478.567 481.205C474.712 485.746 475.064 492.505 479.371 496.621L481.238 498.405C483.241 500.318 486.137 500.967 488.764 500.091C491.816 499.074 493.874 496.219 493.874 493.002V483.849C493.874 481.071 492.356 478.515 489.917 477.184C486.758 475.461 482.823 476.192 480.494 478.935ZM478.524 572.798V579.189C478.524 591.397 488.419 601.292 500.627 601.292C503.119 601.292 505.593 600.871 507.945 600.046L511.525 598.79C517.368 596.739 523.761 596.899 529.495 599.24C532.81 600.593 535.801 602.633 538.27 605.226L548.432 615.896C550.501 618.068 553.058 619.716 555.891 620.703C564.315 623.639 573.644 620.278 578.26 612.644L582.206 606.117C584.132 602.932 585.41 599.398 585.968 595.718L588.369 579.87C589.029 575.514 588.221 571.063 586.071 567.218L569.665 537.869C567.437 533.884 561.529 534.475 560.134 538.822C559.441 540.983 557.431 542.449 555.162 542.449H553.761C550.889 542.449 548.296 540.729 547.179 538.083L546.207 535.778C543.636 529.684 536.279 527.259 530.588 530.631L514.048 540.433C511.791 541.77 509.356 542.78 506.815 543.433L499.935 545.198C487.334 548.432 478.524 559.789 478.524 572.798ZM441.567 488.363L450.411 502.288C451.455 503.931 453.266 504.926 455.212 504.926C458.353 504.926 460.899 502.38 460.899 499.239V498.731C460.899 497.227 460.352 495.775 459.361 494.645L448.979 482.81C447.62 481.26 445.401 480.792 443.532 481.66C440.986 482.842 440.062 485.994 441.567 488.363ZM283.085 549.731L292.094 535.911C293.626 533.56 296.878 533.095 299.008 534.922C300.573 536.264 301.066 538.477 300.219 540.356L293.749 554.709C293.131 556.08 292.036 557.179 290.668 557.802L290.205 558.012C287.347 559.314 283.974 558.052 282.673 555.193C281.866 553.422 282.022 551.361 283.085 549.731ZM557.362 511.88L558.513 512.937C560.27 514.55 562.568 515.444 564.953 515.444H570.418C572.801 515.444 575.154 515.972 577.309 516.991L585.982 521.091C588.11 522.097 590.654 521.415 591.995 519.48C593.528 517.264 592.944 514.221 590.698 512.731L568.317 497.884C566.857 496.915 565.142 496.398 563.389 496.398C555.262 496.398 551.374 506.385 557.362 511.88ZM622.922 652.03L609.819 663.118C608.321 664.385 607.831 666.484 608.614 668.283C609.49 670.299 611.71 671.371 613.835 670.805L617.892 669.723C621.023 668.888 623.496 666.487 624.423 663.383L627.014 654.708C627.74 652.277 624.859 650.392 622.922 652.03ZM633.788 637.577L638.778 621.153C639.515 618.725 642.959 618.745 643.668 621.181L646.199 629.874C647.105 632.985 646.331 636.343 644.154 638.743L641.333 641.854C639.856 643.483 637.41 643.787 635.579 642.569C633.946 641.482 633.218 639.454 633.788 637.577Z" fill="#A7CF75"/>
</g>
<g filter="url(#filter2_d_3_947)">
<path fill-rule="evenodd" clip-rule="evenodd" d="M894.607 179.944L920.575 156.643C932.019 146.374 925.347 127.395 909.994 126.546C903.869 126.208 898.024 129.145 894.639 134.261L890.959 139.824C888.988 142.803 888.281 146.444 888.994 149.944L889.446 152.163C890.372 156.706 888.191 161.316 884.092 163.483L883.39 163.854C877.382 167.03 876.299 175.183 881.27 179.818C885.012 183.306 890.799 183.361 894.607 179.944ZM879.622 148.09L877.082 142.245C875.24 138.008 869.958 136.551 866.204 139.244C864.294 140.614 863.167 142.825 863.18 145.176L863.215 151.549C863.241 156.098 866.82 159.832 871.363 160.05C877.697 160.353 882.15 153.905 879.622 148.09ZM841.363 163.458L845.096 158.293C847.803 154.549 846.365 149.263 842.134 147.405C839.982 146.46 837.505 146.617 835.489 147.827L830.024 151.106C826.123 153.446 824.735 158.429 826.863 162.449C829.83 168.053 837.648 168.597 841.363 163.458ZM1024.04 430.253V428.546C1024.04 415.074 1030.4 402.392 1041.2 394.332L1045.59 391.054C1058.25 381.605 1074.42 378.216 1089.81 381.79L1093.69 382.692L1129.99 391.091C1131.17 391.364 1132.4 391.412 1133.59 391.233L1140.56 390.193C1146.46 389.31 1148.37 381.737 1143.58 378.168C1141.88 376.901 1140.88 374.905 1140.88 372.784V372.319C1140.88 368.745 1143.36 365.648 1146.84 364.864L1155.76 362.861C1161.22 361.633 1164.29 355.805 1162.21 350.604C1160.83 347.15 1157.48 344.885 1153.76 344.885H1149.78C1144.29 344.885 1139.25 347.887 1136.62 352.71L1134.28 357.026C1133.94 357.649 1133.56 358.245 1133.13 358.812C1126.92 367.093 1114.3 366.442 1108.97 357.566L1108.06 356.048C1104.17 349.567 1096.23 346.758 1089.14 349.349L1068.27 356.968C1066.46 357.626 1064.76 358.543 1063.22 359.69L1050.75 368.974C1046 372.505 1039.19 370.346 1037.35 364.726C1036.06 360.795 1037.73 356.501 1041.34 354.475L1045.16 352.328C1048.97 350.189 1051.33 346.159 1051.33 341.79C1051.33 338.009 1053.1 334.446 1056.11 332.161L1073.84 318.716C1075.3 317.606 1076.48 316.165 1077.29 314.513C1079.59 309.783 1084.76 307.169 1089.93 308.123L1098.46 309.697C1105.61 311.014 1112.78 307.55 1116.18 301.137L1117.93 297.857C1119.31 295.253 1119.37 292.148 1118.1 289.489C1114.87 282.739 1105.39 282.39 1101.67 288.884L1098.55 294.336C1096.1 298.607 1090.26 299.386 1086.78 295.905L1086.36 295.483C1085.23 294.352 1083.69 293.717 1082.09 293.717C1078.76 293.717 1076.06 291.017 1076.06 287.687V278.452C1076.06 275.254 1077.07 272.137 1078.94 269.541L1094.02 248.564C1102.09 237.337 1116.1 232.03 1129.58 235.09L1143.61 238.274C1145.99 238.814 1147.95 240.501 1148.83 242.775L1148.93 243.022C1150.3 246.566 1148.63 250.566 1145.14 252.075L1143.26 252.891C1141.81 253.515 1140.88 254.938 1140.88 256.512C1140.88 258.691 1142.64 260.458 1144.82 260.458H1149.44C1153.55 260.458 1157.08 257.548 1157.85 253.519L1158.5 250.163C1159.38 245.638 1162.64 241.942 1167.02 240.503L1190.12 232.914C1195.52 231.142 1199.52 226.576 1200.57 220.996C1201.77 214.634 1206.78 209.676 1213.15 208.541L1215.58 208.11C1220.53 207.227 1224.94 204.426 1227.85 200.314L1251.13 167.399C1256.34 160.038 1265.41 156.46 1274.24 158.287L1276.14 158.681C1281.4 159.77 1285.93 163.1 1288.53 167.8C1292.89 175.67 1302.3 179.243 1310.79 176.252L1317.62 173.844C1322.88 171.991 1328.69 172.615 1333.44 175.541C1339.31 179.16 1346.7 179.205 1352.61 175.657L1361.07 170.586C1367.77 166.565 1375.63 164.927 1383.39 165.94L1408.22 169.186C1416.87 170.316 1425.66 169.014 1433.61 165.428C1440.92 162.129 1448.95 160.759 1456.95 161.45L1484.77 163.854C1488.49 164.175 1491.73 166.512 1493.21 169.939C1494.55 173.037 1494.27 176.598 1492.45 179.441L1490.36 182.706C1487.74 186.788 1486.95 191.773 1488.16 196.466L1489.25 200.706C1490.28 204.673 1490.4 208.818 1489.62 212.84L1487.45 223.953C1486.71 227.737 1484.06 230.866 1480.45 232.219C1475.81 233.959 1472.89 238.562 1473.29 243.501L1476.3 280.906C1476.47 283.003 1474.99 284.877 1472.92 285.209C1470.95 285.524 1469.04 284.351 1468.44 282.45L1462.03 262.304C1458.54 251.316 1447.18 244.867 1435.95 247.502C1430.81 248.708 1426.27 251.717 1423.16 255.983L1420.64 259.444C1414.19 268.279 1412.45 279.695 1415.96 290.052L1423.37 311.917C1426.22 320.331 1424.27 329.63 1418.28 336.195L1413.99 340.908C1411.7 343.421 1410.67 346.841 1411.21 350.199L1411.65 352.957C1412.68 359.352 1406.98 364.789 1400.64 363.468C1394.03 362.092 1388.22 368.03 1389.75 374.606L1394.16 393.631C1396.06 401.869 1393.02 410.467 1386.35 415.669L1378.47 421.815C1374.02 425.29 1371.42 430.624 1371.42 436.273V446.385C1371.42 450.929 1367.73 454.611 1363.19 454.611H1357.4C1354.99 454.611 1353.22 456.876 1353.81 459.214C1354.79 463.15 1349.64 465.577 1347.23 462.314L1326.39 434.097C1323.46 430.126 1318.18 428.69 1313.64 430.627L1306.69 433.591C1302.41 435.419 1298.89 438.673 1296.72 442.801L1286.52 462.281C1285.55 464.131 1282.98 464.339 1281.73 462.669L1258.74 432.08C1251.45 422.381 1241.05 415.482 1229.28 412.54L1216.2 408.261C1211.39 406.688 1207.59 412.473 1210.93 416.267C1211.41 416.808 1212 417.239 1212.66 417.529L1213.09 417.718C1217.85 419.808 1218.83 426.136 1214.92 429.563L1208.78 434.948C1205.02 438.244 1199.64 438.937 1195.17 436.701L1189.87 434.053C1181.19 429.711 1171.61 438.086 1174.75 447.272C1176.25 451.662 1180.38 454.611 1185.02 454.611H1185.32C1193.45 454.611 1198.9 462.959 1195.64 470.405L1182.4 500.585C1181.63 502.339 1181.02 504.157 1180.56 506.018L1174.5 530.997C1172.57 538.918 1168.97 546.334 1163.93 552.74L1139.77 583.439C1135.98 588.25 1130.2 591.059 1124.07 591.059C1118.65 591.059 1113.45 588.849 1109.69 584.937L1104.34 579.381C1097.51 572.283 1093.69 562.814 1093.69 552.962V523.972L1090.68 499.526C1089.69 491.475 1085.75 484.077 1079.62 478.764C1074.71 474.508 1068.64 471.808 1062.19 471.007L1059.78 470.707C1039.37 468.171 1024.04 450.823 1024.04 430.253ZM864.98 193.626L860.626 199.658C856.29 205.664 847.154 205.029 843.692 198.48C841.212 193.789 842.831 187.978 847.379 185.246L853.756 181.414C856.111 179.999 859.007 179.815 861.523 180.921C866.457 183.09 868.134 189.256 864.98 193.626ZM876.504 203.24L872.112 206.331C870.236 207.651 869.119 209.802 869.119 212.097C869.119 214.586 870.432 216.891 872.573 218.161L883.413 224.589C889.707 228.321 893.566 235.096 893.566 242.414V243.616C893.566 246.816 894.489 249.949 896.224 252.638L898.72 256.507C902.188 261.882 909.291 263.545 914.784 260.266C919.377 257.525 921.571 252.052 920.143 246.898L912.838 220.539C910.718 212.887 905.246 206.607 897.956 203.459L893.412 201.496C887.856 199.097 881.453 199.758 876.504 203.24ZM975.973 139.127L933.039 164.309C929.366 166.463 927.109 170.403 927.109 174.661C927.109 177.731 928.285 180.684 930.396 182.913L937.892 190.83C946.959 200.407 950.629 213.887 947.669 226.739L941.375 254.061C940.445 258.097 941.432 262.336 944.048 265.547C948.684 271.236 957.031 272.144 962.782 267.585L991.366 244.925C1001.57 236.835 1008.25 225.106 1009.99 212.2L1011.33 202.355C1012.03 197.149 1013.45 192.065 1015.55 187.25L1020.89 175.014C1022.95 170.286 1023.69 165.084 1023.02 159.969C1021.42 147.836 1012.23 138.089 1000.22 135.786L997.923 135.346C990.39 133.903 982.589 135.246 975.973 139.127ZM653.224 253.492C649.293 232.405 652.763 188.817 694.958 170.231C695.834 169.845 696.71 169.438 697.589 169.03L697.589 169.03L697.589 169.03L697.589 169.03L697.589 169.029L697.59 169.029L697.59 169.029C701.286 167.312 705.035 165.57 709.049 165.279C717.361 164.679 730.297 169.188 745.12 188.026C745.658 188.71 746.169 189.372 746.663 190.012C750.208 194.602 752.874 198.055 758.573 200.625C769.408 205.511 776.651 195.769 783.927 185.981C791.183 176.221 798.472 166.415 809.392 171.026C812.446 172.315 816.217 174.875 820.838 179.04C825.677 183.402 829.163 189.075 831.622 195.108L836.834 207.889C838.758 212.608 842.481 216.366 847.181 218.334C859.637 223.551 862.94 239.667 853.54 249.363L841.654 261.622C834.116 269.397 834.468 281.857 842.434 289.194L846.986 293.387C853.791 299.655 864.661 297.942 869.21 289.885C874.351 280.778 887.194 280.05 893.331 288.519L903.238 302.188C910.941 312.817 909.189 327.579 899.213 336.11L840.988 385.9C838.094 388.374 836.429 391.99 836.429 395.797C836.429 405.028 827.09 411.328 818.531 407.873L812.529 405.45C802.071 401.227 790.662 408.925 790.662 420.203C790.662 425.692 793.491 430.794 798.147 433.7L825.158 450.563C834.509 456.4 845.888 458.022 856.497 455.03C867.074 452.047 878.417 453.649 887.754 459.445L941.835 493.018C955.2 501.315 959.285 518.889 950.951 532.23L899.723 614.236C896.958 618.662 894.816 623.448 893.356 628.459L889.364 642.167C887.84 647.397 887.894 652.96 889.519 658.159L894.325 673.539C895.058 675.883 894.189 678.433 892.177 679.841C889.428 681.766 885.617 680.878 884 677.938L865.31 643.938C862.028 637.967 860.307 631.263 860.307 624.45V565.108C860.307 552.827 855.227 541.093 846.273 532.688L840.872 527.619C832.825 520.067 829.335 508.844 831.68 498.061C834.522 484.985 828.764 471.546 817.338 464.584L779.719 441.662C776.819 439.895 774.36 437.49 772.528 434.63L745.635 392.623C743.983 390.042 740.016 390.868 739.532 393.894C738.989 397.291 734.283 397.742 733.105 394.511L722.076 364.276C721.381 362.373 721.193 360.322 721.53 358.324L727.419 323.344C729.358 311.832 727.705 300.002 722.686 289.461L707.687 257.964C704.195 250.631 696.797 245.96 688.675 245.96H687.97C683.953 245.96 680.041 247.24 676.801 249.613L665.175 258.13C661.191 261.049 655.524 259.456 653.643 254.889C653.456 254.433 653.314 253.976 653.224 253.492ZM1380.49 478.935L1378.57 481.205C1374.71 485.746 1375.06 492.505 1379.37 496.621L1381.24 498.405C1383.24 500.318 1386.14 500.967 1388.76 500.091C1391.82 499.074 1393.87 496.219 1393.87 493.002V483.849C1393.87 481.071 1392.36 478.515 1389.92 477.184C1386.76 475.461 1382.82 476.192 1380.49 478.935ZM1378.52 572.798V579.189C1378.52 591.397 1388.42 601.292 1400.63 601.292C1403.12 601.292 1405.59 600.871 1407.94 600.046L1411.52 598.79C1417.37 596.739 1423.76 596.899 1429.49 599.24C1432.81 600.593 1435.8 602.633 1438.27 605.226L1448.43 615.896C1450.5 618.068 1453.06 619.716 1455.89 620.703C1464.31 623.639 1473.64 620.278 1478.26 612.644L1482.21 606.117C1484.13 602.932 1485.41 599.398 1485.97 595.718L1488.37 579.87C1489.03 575.514 1488.22 571.063 1486.07 567.218L1469.66 537.869C1467.44 533.884 1461.53 534.475 1460.13 538.822C1459.44 540.983 1457.43 542.449 1455.16 542.449H1453.76C1450.89 542.449 1448.3 540.729 1447.18 538.083L1446.21 535.778C1443.64 529.684 1436.28 527.259 1430.59 530.631L1414.05 540.433C1411.79 541.77 1409.36 542.78 1406.81 543.433L1399.93 545.198C1387.33 548.432 1378.52 559.789 1378.52 572.798ZM1341.57 488.363L1350.41 502.288C1351.45 503.931 1353.27 504.926 1355.21 504.926C1358.35 504.926 1360.9 502.38 1360.9 499.239V498.731C1360.9 497.227 1360.35 495.775 1359.36 494.645L1348.98 482.81C1347.62 481.26 1345.4 480.792 1343.53 481.66C1340.99 482.842 1340.06 485.994 1341.57 488.363ZM1183.08 549.731L1192.09 535.911C1193.63 533.56 1196.88 533.095 1199.01 534.922C1200.57 536.264 1201.07 538.477 1200.22 540.356L1193.75 554.709C1193.13 556.08 1192.04 557.179 1190.67 557.802L1190.21 558.012C1187.35 559.314 1183.97 558.052 1182.67 555.193C1181.87 553.422 1182.02 551.361 1183.08 549.731ZM1457.36 511.88L1458.51 512.937C1460.27 514.55 1462.57 515.444 1464.95 515.444H1470.42C1472.8 515.444 1475.15 515.972 1477.31 516.991L1485.98 521.091C1488.11 522.097 1490.65 521.415 1491.99 519.48C1493.53 517.264 1492.94 514.221 1490.7 512.731L1468.32 497.884C1466.86 496.915 1465.14 496.398 1463.39 496.398C1455.26 496.398 1451.37 506.385 1457.36 511.88ZM1522.92 652.03L1509.82 663.118C1508.32 664.385 1507.83 666.484 1508.61 668.283C1509.49 670.299 1511.71 671.371 1513.83 670.805L1517.89 669.723C1521.02 668.888 1523.5 666.487 1524.42 663.383L1527.01 654.708C1527.74 652.277 1524.86 650.392 1522.92 652.03ZM1533.79 637.577L1538.78 621.153C1539.51 618.725 1542.96 618.745 1543.67 621.181L1546.2 629.874C1547.1 632.985 1546.33 636.343 1544.15 638.743L1541.33 641.854C1539.86 643.483 1537.41 643.787 1535.58 642.569C1533.95 641.482 1533.22 639.454 1533.79 637.577Z" fill="#A7CF75"/>
</g>
<g opacity="0.6" filter="url(#filter3_f_3_947)">
<path d="M529.517 100.192L527.051 103.428C521.101 111.234 510.893 114.47 501.532 111.517C499.266 110.802 496.905 110.439 494.529 110.439H474.191C467.911 110.439 462.01 113.445 458.318 118.527C451.938 127.308 453.9 139.6 462.697 145.959L473.396 153.694C480.491 158.823 489.341 160.902 497.978 159.468L516.014 156.473C519.077 155.965 522.077 155.134 524.965 153.996C540.884 147.719 558.996 151.22 571.429 162.977L588.074 178.718C591.072 181.553 594.324 184.108 597.788 186.351C627.943 205.877 668.101 198.434 689.255 169.398L699.229 155.709C704.784 148.083 706.778 138.431 704.698 129.228L701.191 113.714C698.867 103.429 688.258 97.3172 678.194 100.466C674.476 101.629 671.233 103.964 668.952 107.121L667.916 108.555C661.944 116.819 651.304 120.259 641.624 117.054L573.878 94.6213L562.604 90.5066C550.644 86.1417 537.235 90.0669 529.517 100.192Z" fill="white"/>
<path d="M312.022 388.184L309.556 391.419C303.606 399.226 293.398 402.461 284.037 399.509L283.603 399.372C281.625 398.748 279.563 398.43 277.489 398.43H270.945C259.461 398.43 251.715 410.166 256.227 420.725C262.475 437.548 279.775 447.577 297.478 444.638L299.015 444.383C301.748 443.929 304.426 443.188 307.003 442.172L307.47 441.987C323.389 435.711 341.501 439.212 353.934 450.969L370.579 466.709C373.578 469.545 376.829 472.1 380.293 474.343C410.448 493.869 450.606 486.426 471.76 457.39L476.227 451.26C485.282 438.83 488.531 423.097 485.141 408.098C481.507 392.021 470.644 378.527 455.714 371.545L454.888 371.159C441.669 362.858 425.47 360.784 410.586 365.487L366.451 379.432C359.923 381.495 352.896 381.34 346.464 378.993L345.109 378.498C333.149 374.133 319.74 378.059 312.022 388.184Z" fill="white"/>
<path d="M832.224 582.66L723.626 609.152C715.455 611.145 706.894 610.861 698.873 608.331L695.099 607.141C693.121 606.517 691.059 606.199 688.985 606.199H682.441C670.958 606.199 663.211 617.935 667.724 628.494C673.971 645.317 691.271 655.346 708.974 652.407L714.622 651.469L808.809 643.48C838.886 640.929 868.622 651.328 890.554 672.067L893.103 674.478C896.102 677.314 899.353 679.869 902.817 682.112C932.972 701.638 973.13 694.195 994.284 665.159L998.751 659.029C1007.81 646.599 1011.06 630.866 1007.67 615.867C1004.03 599.79 993.168 586.296 978.238 579.314L977.412 578.928C964.193 570.627 947.994 568.553 933.11 573.256L895.747 585.061C884.828 588.511 873.074 588.253 862.317 584.327C852.672 580.807 842.199 580.227 832.224 582.66Z" fill="white"/>
<path d="M166.454 209.35L168.92 212.585C174.87 220.392 185.077 223.627 194.439 220.675L194.873 220.538C196.851 219.914 198.913 219.596 200.987 219.596H207.531C219.014 219.596 226.761 231.332 222.249 241.891C216.001 258.714 198.701 268.743 180.998 265.804L179.461 265.549C176.728 265.095 174.05 264.354 171.473 263.338L171.006 263.153C155.087 256.877 136.975 260.378 124.542 272.135L107.897 287.875C104.898 290.711 101.647 293.266 98.1828 295.509C68.0277 315.035 27.8702 307.592 6.7158 278.556L2.2494 272.426C-6.80602 259.996 -10.0555 244.263 -6.66516 229.264C-3.03137 213.187 7.83185 199.693 22.7623 192.711L23.5879 192.325C36.8072 184.024 53.0059 181.95 67.8901 186.653L112.025 200.598C118.553 202.661 125.58 202.506 132.012 200.159L133.367 199.664C145.327 195.299 158.736 199.225 166.454 209.35Z" fill="white"/>
</g>
<g opacity="0.4" filter="url(#filter4_f_3_947)">
<path d="M344.188 -30.6574C96.0007 235.005 248.623 670.08 608.384 722.477L723.731 739.277L-298.386 627.446L344.188 -30.6574Z" fill="#1E819A"/>
</g>
<g opacity="0.3" filter="url(#filter5_f_3_947)">
<path d="M427.692 788.612C691.822 538.796 566.378 95.1195 210.543 20.5898L96.4547 -3.30611L1109.71 171.476L427.692 788.612Z" fill="white"/>
</g>
</g>
</g>
<defs>
<filter id="filter0_d_3_947" x="-0.00012207" y="0" width="760" height="760" filterUnits="userSpaceOnUse" color-interpolation-filters="sRGB">
<feFlood flood-opacity="0" result="BackgroundImageFix"/>
<feColorMatrix in="SourceAlpha" type="matrix" values="0 0 0 0 0 0 0 0 0 0 0 0 0 0 0 0 0 0 127 0" result="hardAlpha"/>
<feOffset/>
<feGaussianBlur stdDeviation="40"/>
<feComposite in2="hardAlpha" operator="out"/>
<feColorMatrix type="matrix" values="0 0 0 0 0 0 0 0 0 0.458156 0 0 0 0 0.566667 0 0 0 0.6 0"/>
<feBlend mode="normal" in2="BackgroundImageFix" result="effect1_dropShadow_3_947"/>
<feBlend mode="normal" in="SourceGraphic" in2="effect1_dropShadow_3_947" result="shape"/>
</filter>
<filter id="filter1_d_3_947" x="-268" y="110.52" width="934.571" height="594.342" filterUnits="userSpaceOnUse" color-interpolation-filters="sRGB">
<feFlood flood-opacity="0" result="BackgroundImageFix"/>
<feColorMatrix in="SourceAlpha" type="matrix" values="0 0 0 0 0 0 0 0 0 0 0 0 0 0 0 0 0 0 127 0" result="hardAlpha"/>
<feOffset dy="4"/>
<feGaussianBlur stdDeviation="10"/>
<feComposite in2="hardAlpha" operator="out"/>
<feColorMatrix type="matrix" values="0 0 0 0 0.160417 0 0 0 0 0.619952 0 0 0 0 0.7 0 0 0 1 0"/>
<feBlend mode="normal" in2="BackgroundImageFix" result="effect1_dropShadow_3_947"/>
<feBlend mode="normal" in="SourceGraphic" in2="effect1_dropShadow_3_947" result="shape"/>
</filter>
<filter id="filter2_d_3_947" x="632" y="110.52" width="934.571" height="594.342" filterUnits="userSpaceOnUse" color-interpolation-filters="sRGB">
<feFlood flood-opacity="0" result="BackgroundImageFix"/>
<feColorMatrix in="SourceAlpha" type="matrix" values="0 0 0 0 0 0 0 0 0 0 0 0 0 0 0 0 0 0 127 0" result="hardAlpha"/>
<feOffset dy="4"/>
<feGaussianBlur stdDeviation="10"/>
<feComposite in2="hardAlpha" operator="out"/>
<feColorMatrix type="matrix" values="0 0 0 0 0.160417 0 0 0 0 0.619952 0 0 0 0 0.7 0 0 0 1 0"/>
<feBlend mode="normal" in2="BackgroundImageFix" result="effect1_dropShadow_3_947"/>
<feBlend mode="normal" in="SourceGraphic" in2="effect1_dropShadow_3_947" result="shape"/>
</filter>
<filter id="filter3_f_3_947" x="-1448.98" y="68.7429" width="2477.96" height="644.242" filterUnits="userSpaceOnUse" color-interpolation-filters="sRGB">
<feFlood flood-opacity="0" result="BackgroundImageFix"/>
<feBlend mode="normal" in="SourceGraphic" in2="BackgroundImageFix" result="shape"/>
<feGaussianBlur stdDeviation="10" result="effect1_foregroundBlur_3_947"/>
</filter>
<filter id="filter4_f_3_947" x="-338.386" y="-70.6575" width="1102.12" height="849.934" filterUnits="userSpaceOnUse" color-interpolation-filters="sRGB">
<feFlood flood-opacity="0" result="BackgroundImageFix"/>
<feBlend mode="normal" in="SourceGraphic" in2="BackgroundImageFix" result="shape"/>
<feGaussianBlur stdDeviation="20" result="effect1_foregroundBlur_3_947"/>
</filter>
<filter id="filter5_f_3_947" x="16.4547" y="-83.3062" width="1173.25" height="951.918" filterUnits="userSpaceOnUse" color-interpolation-filters="sRGB">
<feFlood flood-opacity="0" result="BackgroundImageFix"/>
<feBlend mode="normal" in="SourceGraphic" in2="BackgroundImageFix" result="shape"/>
<feGaussianBlur stdDeviation="40" result="effect1_foregroundBlur_3_947"/>
</filter>
<linearGradient id="paint0_linear_3_947" x1="233.938" y1="391.787" x2="744.443" y2="348.413" gradientUnits="userSpaceOnUse">
<stop stop-color="#228EA9"/>
<stop offset="1" stop-color="#02DEFE"/>
</linearGradient>
<clipPath id="clip0_3_947">
<rect x="79.9999" y="80" width="600" height="600" rx="300" fill="white"/>
</clipPath>
</defs>
</svg>
