<svg width="838" height="838" viewBox="0 0 838 838" fill="none" xmlns="http://www.w3.org/2000/svg">
<g filter="url(#filter0_d_3_618)">
<g clip-path="url(#clip0_3_618)">
<rect x="80.1677" y="163.672" width="600" height="600" rx="300" transform="rotate(-8 80.1677 163.672)" fill="url(#paint0_linear_3_618)"/>
<g filter="url(#filter1_f_3_618)">
<path opacity="0.8" d="M-117.267 574.144L74.9643 481.602C130.687 454.776 193.413 446.078 254.333 456.728L367.944 476.59C428.507 487.178 490.865 478.644 546.357 452.174L657.837 398.998C712.995 372.687 774.944 364.094 835.181 374.397L952.899 394.533C1013.86 404.96 1076.55 396.032 1132.18 369.002L1238.32 317.425C1294.28 290.233 1357.38 281.365 1418.66 292.079L1534.32 312.299C1595.61 323.013 1658.71 314.144 1714.67 286.953L1820.27 235.636C1876.23 208.445 1939.33 199.576 2000.62 210.29L2210.54 246.991" stroke="#D66C14" stroke-width="32"/>
<path opacity="0.5" d="M-217.778 687.011L-25.5469 594.468C30.1762 567.643 92.9021 558.944 153.822 569.595L267.433 589.457C327.996 600.045 390.354 591.511 445.846 565.041L557.325 511.864C612.483 485.554 674.433 476.96 734.67 487.264L852.388 507.4C913.346 517.827 976.04 508.899 1031.66 481.869L1137.81 430.291C1193.76 403.1 1256.87 394.231 1318.15 404.945L1433.81 425.165C1495.1 435.879 1558.2 427.011 1614.16 399.819L1719.76 348.503C1775.72 321.312 1838.82 312.443 1900.11 323.157L2110.03 359.858" stroke="#D66C14" stroke-width="24"/>
<path d="M-151.402 615.295L40.8297 522.753C96.5528 495.927 159.279 487.229 220.199 497.879L333.809 517.741C394.373 528.329 456.73 519.795 512.222 493.325L623.702 440.149C678.86 413.838 740.81 405.245 801.047 415.548L918.764 435.684C979.723 446.111 1042.42 437.183 1098.04 410.154L1204.18 358.576C1260.14 331.384 1323.24 322.516 1384.53 333.23L1500.19 353.45C1561.47 364.164 1624.57 355.295 1680.53 328.104L1786.14 276.787C1842.09 249.596 1905.2 240.728 1966.48 251.442L2176.41 288.142" stroke="#D66C14" stroke-width="16"/>
<path d="M-185.154 640.235L7.07803 547.693C62.8011 520.867 125.527 512.169 186.447 522.819L300.058 542.681C360.621 553.269 422.979 544.735 478.471 518.265L589.95 465.089C645.108 438.778 707.058 430.185 767.295 440.488L885.013 460.624C945.971 471.051 1008.66 462.123 1064.29 435.094L1170.43 383.516C1226.39 356.324 1289.49 347.456 1350.78 358.17L1466.44 378.39C1527.72 389.104 1590.82 380.235 1646.78 353.044L1752.39 301.728C1808.34 274.536 1871.45 265.668 1932.73 276.382L2142.66 313.082" stroke="#D66C14" stroke-width="8"/>
<path d="M-172.724 648.04L19.5071 555.498C75.2302 528.672 137.956 519.974 198.876 530.624L312.487 550.486C373.05 561.074 435.408 552.54 490.9 526.07L602.379 472.894C657.537 446.583 719.487 437.99 779.724 448.293L897.442 468.429C958.4 478.856 1021.09 469.928 1076.72 442.898L1182.86 391.321C1238.82 364.129 1301.92 355.261 1363.21 365.975L1478.86 386.195C1540.15 396.909 1603.25 388.04 1659.21 360.849L1764.81 309.532C1820.77 282.341 1883.87 273.472 1945.16 284.186L2155.09 320.887" stroke="#D66C14" stroke-width="4"/>
<path d="M-196.945 662.914L-4.71299 570.372C51.0101 543.546 113.736 534.848 174.656 545.498L288.267 565.36C348.83 575.948 411.188 567.415 466.68 540.945L578.159 487.768C633.317 461.457 695.267 452.864 755.504 463.168L873.222 483.304C934.18 493.731 996.874 484.803 1052.5 457.773L1158.64 406.195C1214.6 379.004 1277.7 370.135 1338.99 380.849L1454.64 401.069C1515.93 411.783 1579.03 402.915 1634.99 375.723L1740.59 324.407C1796.55 297.215 1859.65 288.347 1920.94 299.061L2130.87 335.762" stroke="#D66C14" stroke-width="4"/>
<path d="M-131.431 752.503L72.3942 656.628C126.703 631.082 187.495 622.649 246.706 632.447L375.001 653.676C433.865 663.417 494.299 655.141 548.377 629.934L673.842 571.452C727.594 546.397 787.633 538.066 846.176 547.538L978.689 568.98C1037.94 578.566 1098.7 569.916 1152.91 544.177L1272.94 487.196C1327.48 461.302 1388.64 452.707 1448.21 462.563L1578.72 484.159C1638.28 494.016 1699.44 485.421 1753.98 459.527L1873.49 402.794C1928.03 376.9 1989.19 368.305 2048.75 378.162L2270.76 414.897" stroke="#D66C14" stroke-width="2"/>
<path d="M-171.608 772.933L32.2173 677.059C86.5262 651.513 147.318 643.08 206.529 652.878L334.824 674.107C393.688 683.847 454.122 675.571 508.2 650.364L633.665 591.882C687.417 566.827 747.456 558.496 805.999 567.969L938.512 589.41C997.759 598.997 1058.52 590.347 1112.74 564.607L1232.76 507.626C1287.31 481.732 1348.46 473.137 1408.03 482.994L1538.54 504.59C1598.11 514.446 1659.26 505.851 1713.81 479.957L1833.31 423.225C1887.85 397.331 1949.01 388.736 2008.58 398.593L2230.58 435.328" stroke="#D66C14" stroke-width="2"/>
<path d="M-124.788 780.412L79.0376 684.538C133.347 658.992 194.138 650.559 253.35 660.357L381.644 681.586C440.508 691.326 500.942 683.05 555.021 657.843L680.486 599.361C734.238 574.306 794.276 565.975 852.82 575.448L985.332 596.889C1044.58 606.476 1105.34 597.826 1159.56 572.087L1279.58 515.105C1334.13 489.211 1395.28 480.616 1454.85 490.473L1585.36 512.069C1644.93 521.925 1706.08 513.33 1760.63 487.436L1880.13 430.704C1934.67 404.81 1995.83 396.215 2055.4 406.072L2277.4 442.807" stroke="#D66C14" stroke-width="8"/>
<path opacity="0.8" d="M-143.202 793.098L60.6236 697.224C114.933 671.678 175.724 663.245 234.936 673.043L363.23 694.272C422.094 704.013 482.528 695.737 536.607 670.529L662.072 612.048C715.824 586.993 775.862 578.661 834.406 588.134L966.918 609.576C1026.16 619.162 1086.93 610.512 1141.14 584.773L1261.17 527.791C1315.71 501.897 1376.87 493.302 1436.44 503.159L1566.95 524.755C1626.51 534.612 1687.67 526.017 1742.21 500.123L1861.72 443.39C1916.26 417.496 1977.42 408.901 2036.98 418.758L2258.99 455.493" stroke="#D66C14" stroke-width="16"/>
<path d="M-141.053 823.152L62.7724 727.278C117.081 701.732 177.873 693.299 237.085 703.097L365.379 724.326C424.243 734.067 484.677 725.791 538.755 700.583L664.22 642.101C717.972 617.047 778.011 608.715 836.554 618.188L969.067 639.63C1028.31 649.216 1089.07 640.566 1143.29 614.827L1263.32 557.845C1317.86 531.951 1379.02 523.356 1438.59 533.213L1569.09 554.809C1628.66 564.666 1689.82 556.071 1744.36 530.177L1863.86 473.444C1918.41 447.55 1979.56 438.955 2039.13 448.812L2261.13 485.547" stroke="#D66C14" stroke-width="4"/>
<path d="M-154.394 556.136L37.8378 463.593C93.5609 436.768 156.287 428.069 217.207 438.72L330.817 458.582C391.381 469.17 453.738 460.636 509.23 434.166L620.71 380.989C675.868 354.679 737.818 346.085 798.055 356.389L915.772 376.525C976.731 386.952 1039.42 378.024 1095.05 350.994L1201.19 299.416C1257.15 272.225 1320.25 263.356 1381.54 274.07L1497.2 294.29C1558.48 305.004 1621.58 296.136 1677.54 268.945L1783.14 217.628C1839.1 190.437 1902.21 181.568 1963.49 192.282L2173.42 228.983" stroke="#D66C14" stroke-width="8"/>
<path d="M-180.186 546.95L12.0457 454.408C67.7688 427.582 130.495 418.883 191.415 429.534L305.025 449.396C365.589 459.984 427.946 451.45 483.438 424.98L594.918 371.804C650.076 345.493 712.026 336.899 772.263 347.203L889.98 367.339C950.939 377.766 1013.63 368.838 1069.26 341.808L1175.4 290.23C1231.36 263.039 1294.46 254.17 1355.75 264.885L1471.4 285.105C1532.69 295.819 1595.79 286.95 1651.75 259.759L1757.35 208.442C1813.31 181.251 1876.41 172.382 1937.7 183.096L2147.63 219.797" stroke="#D66C14" stroke-width="4"/>
<path opacity="0.5" d="M-291.451 357.275L-87.6256 261.4C-33.3166 235.855 27.4747 227.422 86.6866 237.22L214.981 258.449C273.845 268.189 334.279 259.913 388.357 234.706L513.822 176.224C567.574 151.169 627.613 142.838 686.156 152.311L818.669 173.752C877.916 183.339 938.677 174.689 992.894 148.949L1112.92 91.9679C1167.46 66.0739 1228.62 57.4789 1288.19 67.3356L1418.7 88.9314C1478.26 98.7882 1539.42 90.1931 1593.96 64.2992L1713.47 7.56654C1768.01 -18.3274 1829.17 -26.9225 1888.73 -17.0657L2110.74 19.6696" stroke="#D66C14" stroke-width="8"/>
<path d="M-255.165 335.97L-51.3398 240.095C2.96916 214.55 63.7605 206.117 122.972 215.915L251.267 237.144C310.131 246.884 370.565 238.608 424.643 213.401L550.108 154.919C603.86 129.864 663.899 121.533 722.442 131.006L854.955 152.447C914.201 162.034 974.962 153.384 1029.18 127.644L1149.21 70.6629C1203.75 44.7689 1264.91 36.1739 1324.47 46.0306L1454.98 67.6264C1514.55 77.4832 1575.71 68.8881 1630.25 42.9942L1749.75 -13.7385C1804.3 -39.6324 1865.45 -48.2275 1925.02 -38.3707L2147.02 -1.63542" stroke="#D66C14" stroke-width="4"/>
<path opacity="0.7" d="M-252.101 265.539L-48.2759 169.665C6.03306 144.119 66.8244 135.686 126.036 145.484L254.33 166.713C313.195 176.454 373.629 168.178 427.707 142.97L553.172 84.4884C606.924 59.4335 666.963 51.1024 725.506 60.575L858.019 82.0165C917.265 91.603 978.026 82.953 1032.24 57.2136L1152.27 0.232237C1206.81 -25.6617 1267.97 -34.2568 1327.54 -24.4L1458.05 -2.80422C1517.61 7.05255 1578.77 -1.54253 1633.31 -27.4365L1752.82 -84.1691C1807.36 -110.063 1868.52 -118.658 1928.08 -108.801L2150.09 -72.0661" stroke="#D66C14" stroke-width="4"/>
<path opacity="0.8" d="M-292.765 387.46L-88.9391 291.585C-34.6301 266.039 26.1612 257.606 85.373 267.404L213.667 288.633C272.532 298.374 332.965 290.098 387.044 264.891L512.509 206.409C566.261 181.354 626.3 173.023 684.843 182.495L817.356 203.937C876.602 213.523 937.363 204.873 991.58 179.134L1111.61 122.152C1166.15 96.2585 1227.31 87.6634 1286.87 97.5202L1417.38 119.116C1476.95 128.973 1538.11 120.378 1592.65 94.4837L1712.15 37.7511C1766.7 11.8571 1827.85 3.26207 1887.42 13.1188L2109.42 49.8541" stroke="#D66C14" stroke-width="16"/>
<path opacity="0.7" d="M-281.795 436.323L-77.9694 340.449C-23.6605 314.903 37.1309 306.47 96.3427 316.268L224.637 337.497C283.501 347.238 343.935 338.962 398.014 313.754L523.479 255.273C577.231 230.218 637.269 221.886 695.812 231.359L828.325 252.801C887.572 262.387 948.333 253.737 1002.55 227.998L1122.58 171.016C1177.12 145.122 1238.28 136.527 1297.84 146.384L1428.35 167.98C1487.92 177.837 1549.08 169.242 1603.62 143.348L1723.12 86.615C1777.67 60.721 1838.82 52.126 1898.39 61.9827L2120.39 98.718" stroke="#D66C14" stroke-width="8"/>
<path opacity="0.7" d="M-336.771 423.853L-132.946 327.979C-78.637 302.433 -17.8457 294 41.3661 303.798L169.66 325.027C228.525 334.768 288.959 326.492 343.037 301.284L468.502 242.802C522.254 217.748 582.293 209.416 640.836 218.889L773.349 240.331C832.595 249.917 893.356 241.267 947.574 215.528L1067.6 158.546C1122.14 132.652 1183.3 124.057 1242.87 133.914L1373.38 155.51C1432.94 165.367 1494.1 156.771 1548.64 130.878L1668.15 74.1449C1722.69 48.2509 1783.85 39.6559 1843.41 49.5126L2065.42 86.2479" stroke="#D66C14" stroke-width="8"/>
<path d="M-328.249 378.057L-124.423 282.183C-70.1144 256.637 -9.32306 248.204 49.8888 258.002L178.183 279.231C237.047 288.972 297.481 280.696 351.56 255.489L477.025 197.007C530.777 171.952 590.815 163.62 649.359 173.093L781.871 194.535C841.118 204.121 901.879 195.471 956.096 169.732L1076.12 112.75C1130.66 86.8564 1191.82 78.2613 1251.39 88.1181L1381.9 109.714C1441.47 119.571 1502.62 110.976 1557.17 85.0816L1676.67 28.349C1731.21 2.45505 1792.37 -6.14003 1851.94 3.71674L2073.94 40.452" stroke="#D66C14" stroke-width="4"/>
<path opacity="0.7" d="M682.756 510.179C685.99 522.297 648.507 547.498 608.196 559.52C567.885 571.542 531.289 578.373 528.055 566.255C524.821 554.137 556.174 527.659 596.486 515.637C636.797 503.615 679.522 498.061 682.756 510.179Z" fill="#D66C14"/>
<path opacity="0.6" d="M665.705 514.595C668.212 523.99 638.134 545.269 606.881 554.59C575.627 563.911 544.503 570.661 541.996 561.266C539.489 551.871 566.548 529.888 597.802 520.567C629.055 511.246 663.198 505.2 665.705 514.595Z" fill="#F8B375"/>
<path d="M609.025 249.558C611.065 259.065 596.681 274.738 580.77 278.64C564.86 282.542 548.824 283.976 546.783 274.469C544.743 264.962 557.47 248.113 573.38 244.211C589.291 240.309 606.984 240.051 609.025 249.558Z" fill="#F8B375"/>
<path opacity="0.6" d="M597.892 253.723C599.206 259.847 589.941 269.942 579.693 272.455C569.444 274.969 559.115 275.893 557.801 269.769C556.487 263.645 564.684 252.792 574.933 250.279C585.181 247.766 596.577 247.599 597.892 253.723Z" fill="#BA6824"/>
<path opacity="0.5" d="M654.456 517.186C656.036 523.105 630.854 540.646 607.217 547.695C583.58 554.744 557.587 562.691 556.007 556.772C554.428 550.853 577.86 533.31 601.497 526.26C625.134 519.211 652.877 511.267 654.456 517.186Z" fill="#D66C14"/>
<path opacity="0.6" d="M640.273 524.046C641.393 528.243 623.145 539.579 606.385 544.577C589.625 549.575 574.247 553.448 573.127 549.251C572.007 545.054 585.569 534.377 602.329 529.379C619.089 524.38 639.153 519.849 640.273 524.046Z" fill="#91470A"/>
<path opacity="0.6" d="M406.988 438.849C406.713 443.184 385.804 448.115 368.325 447.513C350.846 446.911 335.036 445.682 335.311 441.347C335.587 437.012 351.844 431.212 369.323 431.814C386.802 432.417 407.264 434.514 406.988 438.849Z" fill="#91470A"/>
<path d="M371.398 601.134C372.045 605.429 360.278 613.291 349.554 615.226C338.83 617.162 329.001 618.24 328.355 613.945C327.708 609.65 336.487 601.607 347.211 599.672C357.935 597.736 370.751 596.838 371.398 601.134Z" fill="#CE7422"/>
<path opacity="0.5" d="M391.249 221.661C390.352 217.162 375.097 214.999 357.51 218.505C339.923 222.012 322.751 230.993 323.649 235.493C324.546 239.993 343.443 239.664 361.03 236.158C378.616 232.651 392.146 226.161 391.249 221.661Z" fill="#D66C14"/>
<path opacity="0.4" d="M461.233 190.075C459.172 185.976 451.796 183.972 445.527 187.125C439.258 190.277 435.205 198.416 437.267 202.515C439.328 206.614 447.345 206.358 453.614 203.206C459.883 200.053 463.294 194.174 461.233 190.075Z" fill="#D66C14"/>
<path opacity="0.3" d="M293.316 257.613C292.678 253.07 288.838 248.455 284.977 248.998C281.117 249.54 277.872 255.5 278.51 260.044C279.149 264.587 283.622 267.365 287.482 266.823C291.343 266.28 293.955 262.157 293.316 257.613Z" fill="#D66C14"/>
<path opacity="0.3" d="M221.369 255.84C220.979 253.063 218.667 250.239 216.351 250.564C214.034 250.89 212.096 254.526 212.486 257.302C212.876 260.079 215.565 261.783 217.882 261.457C220.198 261.132 221.759 258.617 221.369 255.84Z" fill="#D66C14"/>
</g>
<g filter="url(#filter2_f_3_618)">
<path d="M326.384 17.3232C117.585 314.941 329.273 724.541 692.825 726.359L809.388 726.942L-218.346 758.451L326.384 17.3232Z" fill="url(#paint1_linear_3_618)" fill-opacity="0.4"/>
</g>
<g opacity="0.2" filter="url(#filter3_f_3_618)">
<path d="M523.096 816.998C749.888 532.853 563.917 110.953 201.173 86.6715L84.8684 78.8862L1112.59 110.95L523.096 816.998Z" fill="#FFEAB3"/>
</g>
</g>
</g>
<defs>
<filter id="filter0_d_3_618" x="0.167664" y="0.167664" width="837.665" height="837.665" filterUnits="userSpaceOnUse" color-interpolation-filters="sRGB">
<feFlood flood-opacity="0" result="BackgroundImageFix"/>
<feColorMatrix in="SourceAlpha" type="matrix" values="0 0 0 0 0 0 0 0 0 0 0 0 0 0 0 0 0 0 127 0" result="hardAlpha"/>
<feOffset/>
<feGaussianBlur stdDeviation="40"/>
<feComposite in2="hardAlpha" operator="out"/>
<feColorMatrix type="matrix" values="0 0 0 0 0.404167 0 0 0 0 0.156468 0 0 0 0 0.0690452 0 0 0 0.8 0"/>
<feBlend mode="normal" in2="BackgroundImageFix" result="effect1_dropShadow_3_618"/>
<feBlend mode="normal" in="SourceGraphic" in2="effect1_dropShadow_3_618" result="shape"/>
</filter>
<filter id="filter1_f_3_618" x="-343.474" y="-119.773" width="2688.92" height="949.735" filterUnits="userSpaceOnUse" color-interpolation-filters="sRGB">
<feFlood flood-opacity="0" result="BackgroundImageFix"/>
<feBlend mode="normal" in="SourceGraphic" in2="BackgroundImageFix" result="shape"/>
<feGaussianBlur stdDeviation="2.5" result="effect1_foregroundBlur_3_618"/>
</filter>
<filter id="filter2_f_3_618" x="-258.346" y="-22.6768" width="1107.73" height="821.128" filterUnits="userSpaceOnUse" color-interpolation-filters="sRGB">
<feFlood flood-opacity="0" result="BackgroundImageFix"/>
<feBlend mode="normal" in="SourceGraphic" in2="BackgroundImageFix" result="shape"/>
<feGaussianBlur stdDeviation="20" result="effect1_foregroundBlur_3_618"/>
</filter>
<filter id="filter3_f_3_618" x="34.8683" y="28.8862" width="1127.72" height="838.112" filterUnits="userSpaceOnUse" color-interpolation-filters="sRGB">
<feFlood flood-opacity="0" result="BackgroundImageFix"/>
<feBlend mode="normal" in="SourceGraphic" in2="BackgroundImageFix" result="shape"/>
<feGaussianBlur stdDeviation="25" result="effect1_foregroundBlur_3_618"/>
</filter>
<linearGradient id="paint0_linear_3_618" x1="667.668" y1="377.671" x2="80.1677" y2="474.172" gradientUnits="userSpaceOnUse">
<stop stop-color="#F4E8D5"/>
<stop offset="1" stop-color="#FC7100"/>
</linearGradient>
<linearGradient id="paint1_linear_3_618" x1="78.5539" y1="594.085" x2="358.5" y2="489.5" gradientUnits="userSpaceOnUse">
<stop stop-color="#511D04"/>
<stop offset="1" stop-color="#CD7121"/>
</linearGradient>
<clipPath id="clip0_3_618">
<rect x="80.1677" y="163.672" width="600" height="600" rx="300" transform="rotate(-8 80.1677 163.672)" fill="white"/>
</clipPath>
</defs>
</svg>
