<svg width="882" height="882" viewBox="0 0 882 882" fill="none" xmlns="http://www.w3.org/2000/svg">
<g filter="url(#filter0_d_3_22)">
<g clip-path="url(#clip0_3_22)">
<rect x="120.804" y="158.658" width="600" height="600" rx="300" transform="rotate(-4 120.804 158.658)" fill="url(#paint0_linear_3_22)"/>
<g opacity="0.5" filter="url(#filter1_i_3_22)">
<path d="M426.204 542.347C410.833 551.391 397.268 545.115 387.986 529.339C378.703 513.564 383.639 493.443 399.01 484.399C414.381 475.355 432.471 480.941 441.753 496.717C451.035 512.492 441.575 533.302 426.204 542.347Z" fill="#C0B1E2"/>
</g>
<g opacity="0.7" filter="url(#filter2_i_3_22)">
<path d="M425.729 529.809C416.021 535.521 400.591 534.006 394.879 524.298C389.167 514.59 394.775 497.738 404.483 492.026C414.191 486.313 427.252 492.181 432.964 501.889C438.676 511.597 435.437 524.097 425.729 529.809Z" fill="#A896D3"/>
</g>
<g opacity="0.5" filter="url(#filter3_i_3_22)">
<path d="M489.44 707.374C475.288 715.701 449.705 702.84 441.378 688.688C433.051 674.536 441.227 649.969 455.379 641.642C469.531 633.315 488.571 641.868 496.898 656.02C505.225 670.172 503.593 699.047 489.44 707.374Z" fill="#A896D3"/>
</g>
<g opacity="0.6" filter="url(#filter4_i_3_22)">
<path d="M167.668 814.807C185.915 822.355 214.228 802.758 221.776 784.512C229.323 766.266 215.475 738.379 197.229 730.831C178.983 723.284 157.741 736.656 150.194 754.902C142.646 773.149 149.422 807.26 167.668 814.807Z" fill="#C0B1E2"/>
</g>
<g opacity="0.7" filter="url(#filter5_i_3_22)">
<path d="M176.767 799.7C189.974 805.163 210.468 790.979 215.931 777.772C221.394 764.565 211.37 744.381 198.164 738.918C184.957 733.454 169.582 743.133 164.119 756.34C158.656 769.547 163.56 794.237 176.767 799.7Z" fill="#A896D3"/>
</g>
<g opacity="0.5" filter="url(#filter6_i_3_22)">
<path d="M604.572 364.311C583.277 387.376 567.455 374.83 543.783 352.974C520.112 331.118 507.954 303.579 529.25 280.514C550.546 257.449 583.871 257.653 607.542 279.509C631.214 301.365 625.868 341.247 604.572 364.311Z" fill="#C0B1E2"/>
</g>
<g opacity="0.7" filter="url(#filter7_i_3_22)">
<path d="M597.388 343.427C583.938 357.994 566.299 353.405 551.732 339.955C537.165 326.505 528.903 305.144 542.353 290.577C555.803 276.01 580.798 279.247 595.365 292.697C609.932 306.147 610.838 328.86 597.388 343.427Z" fill="#C0B1E2"/>
</g>
<g opacity="0.5" filter="url(#filter8_i_3_22)">
<path d="M649.387 739.547C618.59 743.776 614.391 724.227 610.05 692.619C605.71 661.012 613.749 632.306 644.546 628.077C675.343 623.848 700.691 644.978 705.032 676.586C709.372 708.194 680.185 735.318 649.387 739.547Z" fill="#E6D7FF"/>
</g>
<g opacity="0.7" filter="url(#filter9_i_3_22)">
<path d="M657.039 719.059C637.588 721.73 626.992 707.12 624.321 687.669C621.65 668.218 628.778 646.689 648.229 644.018C667.68 641.347 684.751 659.553 687.422 679.004C690.093 698.455 676.49 716.388 657.039 719.059Z" fill="#C0B1E2"/>
</g>
<g opacity="0.7" filter="url(#filter10_i_3_22)">
<path d="M274.587 624.162C268.114 631.174 259.624 628.965 252.612 622.491C245.601 616.017 241.625 605.736 248.098 598.725C254.572 591.713 266.602 593.272 273.614 599.745C280.625 606.219 281.061 617.151 274.587 624.162Z" fill="#A896D3"/>
</g>
<g opacity="0.7" filter="url(#filter11_i_3_22)">
<path d="M723.862 467.317C709.195 474.766 696.799 466.104 689.35 451.437C681.901 436.769 681.64 417.768 696.307 410.319C710.975 402.87 729.483 412.604 736.932 427.271C744.381 441.938 738.53 459.867 723.862 467.317Z" fill="#E6D7FF"/>
</g>
<g opacity="0.7" filter="url(#filter12_i_3_22)">
<path d="M747.511 375.443C732.843 382.892 720.447 374.231 712.998 359.563C705.549 344.896 705.288 325.895 719.956 318.446C734.623 310.997 753.132 320.73 760.581 335.397C768.03 350.065 762.178 367.994 747.511 375.443Z" fill="#E6D7FF"/>
</g>
<g opacity="0.5" filter="url(#filter13_i_3_22)">
<path d="M257.345 392.747C241.525 416.048 250.033 438.067 273.947 454.303C297.861 470.539 330.072 464.812 345.892 441.511C361.712 418.21 354.753 389.133 330.839 372.896C306.925 356.66 273.165 369.446 257.345 392.747Z" fill="#C0B1E2"/>
</g>
<g opacity="0.7" filter="url(#filter14_i_3_22)">
<path d="M277.056 394.775C267.064 409.491 267.879 433.962 282.596 443.954C297.312 453.945 324.442 446.825 334.433 432.109C344.425 417.392 336.51 396.211 321.794 386.22C307.077 376.228 287.047 380.058 277.056 394.775Z" fill="#A896D3"/>
</g>
<g opacity="0.7" filter="url(#filter15_i_3_22)">
<path d="M165.408 432.249C162.333 436.779 162.583 444.311 167.113 447.386C171.643 450.462 179.993 448.27 183.069 443.74C186.144 439.211 183.708 432.691 179.178 429.616C174.649 426.54 168.483 427.719 165.408 432.249Z" fill="#A896D3"/>
</g>
<g opacity="0.7" filter="url(#filter16_i_3_22)">
<path d="M288.442 290.751C285.504 295.079 285.744 302.277 290.072 305.215C294.4 308.154 302.38 306.06 305.318 301.731C308.257 297.403 305.929 291.173 301.601 288.235C297.272 285.296 291.381 286.422 288.442 290.751Z" fill="#C0B1E2"/>
</g>
<g opacity="0.7" filter="url(#filter17_i_3_22)">
<path d="M161.061 189.39C158.123 193.718 158.362 200.915 162.691 203.854C167.019 206.793 174.998 204.698 177.937 200.37C180.876 196.042 178.548 189.812 174.22 186.873C169.891 183.935 164 185.061 161.061 189.39Z" fill="#A896D3"/>
</g>
<g opacity="0.7" filter="url(#filter18_i_3_22)">
<path d="M703.342 720.035C700.403 724.363 700.643 731.56 704.971 734.499C709.3 737.438 717.279 735.343 720.218 731.015C723.156 726.687 720.828 720.457 716.5 717.518C712.172 714.58 706.281 715.706 703.342 720.035Z" fill="#C0B1E2"/>
</g>
<g opacity="0.7" filter="url(#filter19_i_3_22)">
<path d="M714.922 598.932C711.984 603.26 712.223 610.458 716.552 613.396C720.88 616.335 728.859 614.241 731.798 609.913C734.737 605.584 732.409 599.354 728.081 596.416C723.752 593.477 717.861 594.604 714.922 598.932Z" fill="#C0B1E2"/>
</g>
<g opacity="0.7" filter="url(#filter20_i_3_22)">
<path d="M305.654 748.211C302.716 752.539 302.955 759.737 307.284 762.675C311.612 765.614 319.591 763.52 322.53 759.191C325.469 754.863 323.141 748.633 318.813 745.695C314.484 742.756 308.593 743.882 305.654 748.211Z" fill="#A896D3"/>
</g>
<g opacity="0.8">
<g opacity="0.5" filter="url(#filter21_i_3_22)">
<path d="M551.395 460.921C512.661 483.386 509.66 520.793 532.715 560.547C555.771 600.3 605.862 614.315 644.596 591.851C683.329 569.386 693.418 522.935 670.363 483.182C647.307 443.429 590.129 438.457 551.395 460.921Z" fill="#E6D7FF"/>
</g>
<g opacity="0.7" filter="url(#filter22_i_3_22)">
<path d="M578.231 477.42C553.768 491.609 538.055 527.224 552.243 551.687C566.431 576.151 610.204 584.665 634.668 570.477C659.131 556.289 662.404 520.489 648.216 496.026C634.028 471.562 602.695 463.232 578.231 477.42Z" fill="#C0B1E2"/>
</g>
<g opacity="0.7" filter="url(#filter23_i_3_22)">
<path d="M575.489 501.877C561.852 509.786 553.094 529.639 561.002 543.275C568.911 556.912 593.312 561.658 606.948 553.749C620.585 545.841 622.409 525.885 614.501 512.248C606.592 498.611 589.126 493.968 575.489 501.877Z" fill="#A896D3"/>
</g>
<g opacity="0.7" filter="url(#filter24_i_3_22)">
<path d="M514.25 397.375C505.346 402.539 499.627 415.501 504.791 424.405C509.955 433.309 525.887 436.408 534.791 431.244C543.695 426.08 544.886 413.05 539.722 404.147C534.558 395.243 523.154 392.211 514.25 397.375Z" fill="#C0B1E2"/>
</g>
</g>
<g opacity="0.8">
<g opacity="0.5" filter="url(#filter25_i_3_22)">
<path d="M458.942 119.475C451.328 72.163 415.095 54.8359 366.538 62.6503C317.98 70.4648 284.789 115.154 292.403 162.466C300.017 209.779 342.573 237.652 391.131 229.838C439.688 222.023 466.557 166.788 458.942 119.475Z" fill="#E6D7FF"/>
</g>
<g opacity="0.7" filter="url(#filter26_i_3_22)">
<path d="M432.175 139.974C427.366 110.092 397.793 80.7495 367.911 85.5584C338.03 90.3673 312.755 130.85 317.564 160.731C322.373 190.613 356.895 207.595 386.777 202.786C416.658 197.977 436.984 169.855 432.175 139.974Z" fill="#C0B1E2"/>
</g>
<g opacity="0.7" filter="url(#filter27_i_3_22)">
<path d="M408.787 127.866C406.106 111.21 389.621 94.8529 372.964 97.5335C356.307 100.214 342.218 122.78 344.899 139.437C347.58 156.094 366.823 165.561 383.48 162.88C400.137 160.199 411.467 144.523 408.787 127.866Z" fill="#A896D3"/>
</g>
</g>
<g opacity="0.8">
<g opacity="0.5" filter="url(#filter28_i_3_22)">
<path d="M227.329 255.099C201.297 247.365 183.549 261.612 175.612 288.329C167.675 315.045 182.343 342.972 208.375 350.706C234.406 358.439 259.094 343.554 267.03 316.837C274.967 290.121 253.36 262.832 227.329 255.099Z" fill="#E6D7FF"/>
</g>
<g opacity="0.7" filter="url(#filter29_i_3_22)">
<path d="M231.221 273.803C214.78 268.919 192.531 276.814 187.647 293.254C182.763 309.695 197.228 332.546 213.668 337.431C230.109 342.315 247.262 328.857 252.146 312.416C257.03 295.975 247.662 278.688 231.221 273.803Z" fill="#C0B1E2"/>
</g>
<g opacity="0.7" filter="url(#filter30_i_3_22)">
<path d="M219.293 282.773C210.128 280.051 197.726 284.451 195.003 293.616C192.281 302.781 200.344 315.518 209.509 318.241C218.673 320.964 228.235 313.462 230.957 304.297C233.68 295.132 228.458 285.496 219.293 282.773Z" fill="#A896D3"/>
</g>
</g>
<g opacity="0.5" filter="url(#filter31_i_3_22)">
<path d="M86.3997 547.043C91.1001 576.957 113.955 587.991 144.657 583.167C175.359 578.343 196.438 550.182 191.737 520.267C187.037 490.352 160.211 472.639 129.509 477.463C98.8071 482.287 81.6994 517.128 86.3997 547.043Z" fill="#E6D7FF"/>
</g>
<g opacity="0.7" filter="url(#filter32_i_3_22)">
<path d="M103.361 534.152C106.33 553.046 124.949 571.657 143.842 568.688C162.736 565.719 178.802 540.198 175.833 521.304C172.864 502.411 151.089 491.598 132.196 494.567C113.302 497.536 100.393 515.259 103.361 534.152Z" fill="#C0B1E2"/>
</g>
<g opacity="0.5" filter="url(#filter33_i_3_22)">
<path d="M518.863 139.913C501.882 164.924 511.014 188.557 536.682 205.984C562.351 223.411 596.925 217.264 613.905 192.254C630.885 167.243 623.416 136.034 597.747 118.606C572.079 101.179 535.843 114.903 518.863 139.913Z" fill="#C0B1E2"/>
</g>
<g opacity="0.7" filter="url(#filter34_i_3_22)">
<path d="M540.019 142.089C529.294 157.885 530.169 184.151 545.965 194.875C561.761 205.6 590.881 197.957 601.605 182.161C612.33 166.365 603.834 143.631 588.038 132.906C572.242 122.182 550.743 126.293 540.019 142.089Z" fill="#A896D3"/>
</g>
<circle cx="388.552" cy="575.852" r="7.24396" transform="rotate(-4 388.552 575.852)" fill="#A896D3"/>
<circle cx="373.644" cy="362.677" r="7.24396" transform="rotate(-4 373.644 362.677)" fill="#C0B1E2"/>
<circle cx="298.977" cy="520.734" r="7.24396" transform="rotate(-4 298.977 520.734)" fill="#A896D3"/>
<circle cx="356.245" cy="321.533" r="7.24396" transform="rotate(-4 356.245 321.533)" fill="#C0B1E2"/>
<circle cx="372.382" cy="690.774" r="7.24396" transform="rotate(-4 372.382 690.774)" fill="#A896D3"/>
<circle cx="580.326" cy="722.199" r="7.24396" transform="rotate(-4 580.326 722.199)" fill="#A896D3"/>
<circle cx="507.474" cy="545.751" r="7.24396" transform="rotate(-4 507.474 545.751)" fill="#C0B1E2"/>
<circle cx="452.361" cy="271.952" r="7.24396" transform="rotate(-4 452.361 271.952)" fill="#C0B1E2"/>
<circle cx="386.497" cy="338.782" r="7.24396" transform="rotate(-4 386.497 338.782)" fill="#C0B1E2"/>
<circle cx="232.403" cy="419.753" r="7.24396" transform="rotate(-4 232.403 419.753)" fill="#A896D3"/>
<circle cx="668.03" cy="196.627" r="7.24396" transform="rotate(-4 668.03 196.627)" fill="#A896D3"/>
<g opacity="0.8">
<g opacity="0.5" filter="url(#filter35_i_3_22)">
<path d="M92.7178 291.712C74.2895 286.237 61.7247 296.323 56.1059 315.237C50.4871 334.15 60.8713 353.92 79.2997 359.395C97.728 364.87 115.205 354.332 120.824 335.419C126.443 316.505 111.146 297.187 92.7178 291.712Z" fill="#E6D7FF"/>
</g>
</g>
<g filter="url(#filter36_f_3_22)">
<path d="M339.383 40.876C141.099 345.599 366.953 747.562 730.346 736.692L846.859 733.206L-179.15 800.564L339.383 40.876Z" fill="url(#paint1_linear_3_22)" fill-opacity="0.4"/>
</g>
<g opacity="0.2" filter="url(#filter37_f_3_22)">
<path d="M410.166 863.772C683.383 623.927 574.486 175.902 221.661 88.2225L108.537 60.1103L1114.61 272.364L410.166 863.772Z" fill="white"/>
</g>
</g>
</g>
<defs>
<filter id="filter0_d_3_22" x="0.803833" y="0.803711" width="880.392" height="880.393" filterUnits="userSpaceOnUse" color-interpolation-filters="sRGB">
<feFlood flood-opacity="0" result="BackgroundImageFix"/>
<feColorMatrix in="SourceAlpha" type="matrix" values="0 0 0 0 0 0 0 0 0 0 0 0 0 0 0 0 0 0 127 0" result="hardAlpha"/>
<feMorphology radius="20" operator="dilate" in="SourceAlpha" result="effect1_dropShadow_3_22"/>
<feOffset dy="4"/>
<feGaussianBlur stdDeviation="50"/>
<feComposite in2="hardAlpha" operator="out"/>
<feColorMatrix type="matrix" values="0 0 0 0 0.651 0 0 0 0 0.561337 0 0 0 0 0.904167 0 0 0 0.3 0"/>
<feBlend mode="normal" in2="BackgroundImageFix" result="effect1_dropShadow_3_22"/>
<feBlend mode="normal" in="SourceGraphic" in2="effect1_dropShadow_3_22" result="shape"/>
</filter>
<filter id="filter1_i_3_22" x="383.3" y="480.065" width="62.1258" height="70.1138" filterUnits="userSpaceOnUse" color-interpolation-filters="sRGB">
<feFlood flood-opacity="0" result="BackgroundImageFix"/>
<feBlend mode="normal" in="SourceGraphic" in2="BackgroundImageFix" result="shape"/>
<feColorMatrix in="SourceAlpha" type="matrix" values="0 0 0 0 0 0 0 0 0 0 0 0 0 0 0 0 0 0 127 0" result="hardAlpha"/>
<feOffset dy="3.66408"/>
<feGaussianBlur stdDeviation="3.66408"/>
<feComposite in2="hardAlpha" operator="arithmetic" k2="-1" k3="1"/>
<feColorMatrix type="matrix" values="0 0 0 0 0.356863 0 0 0 0 0.262745 0 0 0 0 0.623529 0 0 0 0.5 0"/>
<feBlend mode="normal" in2="shape" result="effect1_innerShadow_3_22"/>
</filter>
<filter id="filter2_i_3_22" x="392.584" y="489.779" width="43.2" height="47.023" filterUnits="userSpaceOnUse" color-interpolation-filters="sRGB">
<feFlood flood-opacity="0" result="BackgroundImageFix"/>
<feBlend mode="normal" in="SourceGraphic" in2="BackgroundImageFix" result="shape"/>
<feColorMatrix in="SourceAlpha" type="matrix" values="0 0 0 0 0 0 0 0 0 0 0 0 0 0 0 0 0 0 127 0" result="hardAlpha"/>
<feOffset dy="3.66408"/>
<feGaussianBlur stdDeviation="3.66408"/>
<feComposite in2="hardAlpha" operator="arithmetic" k2="-1" k3="1"/>
<feColorMatrix type="matrix" values="0 0 0 0 0.356863 0 0 0 0 0.262745 0 0 0 0 0.623529 0 0 0 0.5 0"/>
<feBlend mode="normal" in2="shape" result="effect1_innerShadow_3_22"/>
</filter>
<filter id="filter3_i_3_22" x="438.033" y="638.366" width="63.9132" height="75.3028" filterUnits="userSpaceOnUse" color-interpolation-filters="sRGB">
<feFlood flood-opacity="0" result="BackgroundImageFix"/>
<feBlend mode="normal" in="SourceGraphic" in2="BackgroundImageFix" result="shape"/>
<feColorMatrix in="SourceAlpha" type="matrix" values="0 0 0 0 0 0 0 0 0 0 0 0 0 0 0 0 0 0 127 0" result="hardAlpha"/>
<feOffset dy="3.66408"/>
<feGaussianBlur stdDeviation="3.66408"/>
<feComposite in2="hardAlpha" operator="arithmetic" k2="-1" k3="1"/>
<feColorMatrix type="matrix" values="0 0 0 0 0.356863 0 0 0 0 0.262745 0 0 0 0 0.623529 0 0 0 0.5 0"/>
<feBlend mode="normal" in2="shape" result="effect1_innerShadow_3_22"/>
</filter>
<filter id="filter4_i_3_22" x="147.156" y="728.684" width="76.7206" height="91.4483" filterUnits="userSpaceOnUse" color-interpolation-filters="sRGB">
<feFlood flood-opacity="0" result="BackgroundImageFix"/>
<feBlend mode="normal" in="SourceGraphic" in2="BackgroundImageFix" result="shape"/>
<feColorMatrix in="SourceAlpha" type="matrix" values="0 0 0 0 0 0 0 0 0 0 0 0 0 0 0 0 0 0 127 0" result="hardAlpha"/>
<feOffset dy="3.66408"/>
<feGaussianBlur stdDeviation="3.66408"/>
<feComposite in2="hardAlpha" operator="arithmetic" k2="-1" k3="1"/>
<feColorMatrix type="matrix" values="0 0 0 0 0.356863 0 0 0 0 0.262745 0 0 0 0 0.623529 0 0 0 0.5 0"/>
<feBlend mode="normal" in2="shape" result="effect1_innerShadow_3_22"/>
</filter>
<filter id="filter5_i_3_22" x="161.92" y="737.363" width="55.5315" height="67.2036" filterUnits="userSpaceOnUse" color-interpolation-filters="sRGB">
<feFlood flood-opacity="0" result="BackgroundImageFix"/>
<feBlend mode="normal" in="SourceGraphic" in2="BackgroundImageFix" result="shape"/>
<feColorMatrix in="SourceAlpha" type="matrix" values="0 0 0 0 0 0 0 0 0 0 0 0 0 0 0 0 0 0 127 0" result="hardAlpha"/>
<feOffset dy="3.66408"/>
<feGaussianBlur stdDeviation="3.66408"/>
<feComposite in2="hardAlpha" operator="arithmetic" k2="-1" k3="1"/>
<feColorMatrix type="matrix" values="0 0 0 0 0.356863 0 0 0 0 0.262745 0 0 0 0 0.623529 0 0 0 0.5 0"/>
<feBlend mode="normal" in2="shape" result="effect1_innerShadow_3_22"/>
</filter>
<filter id="filter6_i_3_22" x="518.233" y="263.165" width="104.83" height="117.122" filterUnits="userSpaceOnUse" color-interpolation-filters="sRGB">
<feFlood flood-opacity="0" result="BackgroundImageFix"/>
<feBlend mode="normal" in="SourceGraphic" in2="BackgroundImageFix" result="shape"/>
<feColorMatrix in="SourceAlpha" type="matrix" values="0 0 0 0 0 0 0 0 0 0 0 0 0 0 0 0 0 0 127 0" result="hardAlpha"/>
<feOffset dy="3.66408"/>
<feGaussianBlur stdDeviation="3.66408"/>
<feComposite in2="hardAlpha" operator="arithmetic" k2="-1" k3="1"/>
<feColorMatrix type="matrix" values="0 0 0 0 0.356863 0 0 0 0 0.262745 0 0 0 0 0.623529 0 0 0 0.5 0"/>
<feBlend mode="normal" in2="shape" result="effect1_innerShadow_3_22"/>
</filter>
<filter id="filter7_i_3_22" x="535.548" y="281.036" width="71.3632" height="75.0396" filterUnits="userSpaceOnUse" color-interpolation-filters="sRGB">
<feFlood flood-opacity="0" result="BackgroundImageFix"/>
<feBlend mode="normal" in="SourceGraphic" in2="BackgroundImageFix" result="shape"/>
<feColorMatrix in="SourceAlpha" type="matrix" values="0 0 0 0 0 0 0 0 0 0 0 0 0 0 0 0 0 0 127 0" result="hardAlpha"/>
<feOffset dy="3.66408"/>
<feGaussianBlur stdDeviation="3.66408"/>
<feComposite in2="hardAlpha" operator="arithmetic" k2="-1" k3="1"/>
<feColorMatrix type="matrix" values="0 0 0 0 0.356863 0 0 0 0 0.262745 0 0 0 0 0.623529 0 0 0 0.5 0"/>
<feBlend mode="normal" in2="shape" result="effect1_innerShadow_3_22"/>
</filter>
<filter id="filter8_i_3_22" x="608.959" y="627.54" width="96.503" height="116.244" filterUnits="userSpaceOnUse" color-interpolation-filters="sRGB">
<feFlood flood-opacity="0" result="BackgroundImageFix"/>
<feBlend mode="normal" in="SourceGraphic" in2="BackgroundImageFix" result="shape"/>
<feColorMatrix in="SourceAlpha" type="matrix" values="0 0 0 0 0 0 0 0 0 0 0 0 0 0 0 0 0 0 127 0" result="hardAlpha"/>
<feOffset dy="3.66408"/>
<feGaussianBlur stdDeviation="3.66408"/>
<feComposite in2="hardAlpha" operator="arithmetic" k2="-1" k3="1"/>
<feColorMatrix type="matrix" values="0 0 0 0 0.356863 0 0 0 0 0.262745 0 0 0 0 0.623529 0 0 0 0.5 0"/>
<feBlend mode="normal" in2="shape" result="effect1_innerShadow_3_22"/>
</filter>
<filter id="filter9_i_3_22" x="623.781" y="643.756" width="63.9752" height="79.2832" filterUnits="userSpaceOnUse" color-interpolation-filters="sRGB">
<feFlood flood-opacity="0" result="BackgroundImageFix"/>
<feBlend mode="normal" in="SourceGraphic" in2="BackgroundImageFix" result="shape"/>
<feColorMatrix in="SourceAlpha" type="matrix" values="0 0 0 0 0 0 0 0 0 0 0 0 0 0 0 0 0 0 127 0" result="hardAlpha"/>
<feOffset dy="3.66408"/>
<feGaussianBlur stdDeviation="3.66408"/>
<feComposite in2="hardAlpha" operator="arithmetic" k2="-1" k3="1"/>
<feColorMatrix type="matrix" values="0 0 0 0 0.356863 0 0 0 0 0.262745 0 0 0 0 0.623529 0 0 0 0.5 0"/>
<feBlend mode="normal" in2="shape" result="effect1_innerShadow_3_22"/>
</filter>
<filter id="filter10_i_3_22" x="244.823" y="594.132" width="34.3481" height="38.0181" filterUnits="userSpaceOnUse" color-interpolation-filters="sRGB">
<feFlood flood-opacity="0" result="BackgroundImageFix"/>
<feBlend mode="normal" in="SourceGraphic" in2="BackgroundImageFix" result="shape"/>
<feColorMatrix in="SourceAlpha" type="matrix" values="0 0 0 0 0 0 0 0 0 0 0 0 0 0 0 0 0 0 127 0" result="hardAlpha"/>
<feOffset dy="3.66408"/>
<feGaussianBlur stdDeviation="3.66408"/>
<feComposite in2="hardAlpha" operator="arithmetic" k2="-1" k3="1"/>
<feColorMatrix type="matrix" values="0 0 0 0 0.356863 0 0 0 0 0.262745 0 0 0 0 0.623529 0 0 0 0.5 0"/>
<feBlend mode="normal" in2="shape" result="effect1_innerShadow_3_22"/>
</filter>
<filter id="filter11_i_3_22" x="684.341" y="407.755" width="55.8262" height="65.9492" filterUnits="userSpaceOnUse" color-interpolation-filters="sRGB">
<feFlood flood-opacity="0" result="BackgroundImageFix"/>
<feBlend mode="normal" in="SourceGraphic" in2="BackgroundImageFix" result="shape"/>
<feColorMatrix in="SourceAlpha" type="matrix" values="0 0 0 0 0 0 0 0 0 0 0 0 0 0 0 0 0 0 127 0" result="hardAlpha"/>
<feOffset dy="3.66408"/>
<feGaussianBlur stdDeviation="3.66408"/>
<feComposite in2="hardAlpha" operator="arithmetic" k2="-1" k3="1"/>
<feColorMatrix type="matrix" values="0 0 0 0 0.356863 0 0 0 0 0.262745 0 0 0 0 0.623529 0 0 0 0.5 0"/>
<feBlend mode="normal" in2="shape" result="effect1_innerShadow_3_22"/>
</filter>
<filter id="filter12_i_3_22" x="707.99" y="315.882" width="55.8262" height="65.9492" filterUnits="userSpaceOnUse" color-interpolation-filters="sRGB">
<feFlood flood-opacity="0" result="BackgroundImageFix"/>
<feBlend mode="normal" in="SourceGraphic" in2="BackgroundImageFix" result="shape"/>
<feColorMatrix in="SourceAlpha" type="matrix" values="0 0 0 0 0 0 0 0 0 0 0 0 0 0 0 0 0 0 127 0" result="hardAlpha"/>
<feOffset dy="3.66408"/>
<feGaussianBlur stdDeviation="3.66408"/>
<feComposite in2="hardAlpha" operator="arithmetic" k2="-1" k3="1"/>
<feColorMatrix type="matrix" values="0 0 0 0 0.356863 0 0 0 0 0.262745 0 0 0 0 0.623529 0 0 0 0.5 0"/>
<feBlend mode="normal" in2="shape" result="effect1_innerShadow_3_22"/>
</filter>
<filter id="filter13_i_3_22" x="249.292" y="365.612" width="105.102" height="101.591" filterUnits="userSpaceOnUse" color-interpolation-filters="sRGB">
<feFlood flood-opacity="0" result="BackgroundImageFix"/>
<feBlend mode="normal" in="SourceGraphic" in2="BackgroundImageFix" result="shape"/>
<feColorMatrix in="SourceAlpha" type="matrix" values="0 0 0 0 0 0 0 0 0 0 0 0 0 0 0 0 0 0 127 0" result="hardAlpha"/>
<feOffset dy="3.66408"/>
<feGaussianBlur stdDeviation="3.66408"/>
<feComposite in2="hardAlpha" operator="arithmetic" k2="-1" k3="1"/>
<feColorMatrix type="matrix" values="0 0 0 0 0.356863 0 0 0 0 0.262745 0 0 0 0 0.623529 0 0 0 0.5 0"/>
<feBlend mode="normal" in2="shape" result="effect1_innerShadow_3_22"/>
</filter>
<filter id="filter14_i_3_22" x="270.406" y="380.655" width="68.4879" height="71.6094" filterUnits="userSpaceOnUse" color-interpolation-filters="sRGB">
<feFlood flood-opacity="0" result="BackgroundImageFix"/>
<feBlend mode="normal" in="SourceGraphic" in2="BackgroundImageFix" result="shape"/>
<feColorMatrix in="SourceAlpha" type="matrix" values="0 0 0 0 0 0 0 0 0 0 0 0 0 0 0 0 0 0 127 0" result="hardAlpha"/>
<feOffset dy="3.66408"/>
<feGaussianBlur stdDeviation="3.66408"/>
<feComposite in2="hardAlpha" operator="arithmetic" k2="-1" k3="1"/>
<feColorMatrix type="matrix" values="0 0 0 0 0.356863 0 0 0 0 0.262745 0 0 0 0 0.623529 0 0 0 0.5 0"/>
<feBlend mode="normal" in2="shape" result="effect1_innerShadow_3_22"/>
</filter>
<filter id="filter15_i_3_22" x="163.361" y="427.903" width="21.0805" height="22.5658" filterUnits="userSpaceOnUse" color-interpolation-filters="sRGB">
<feFlood flood-opacity="0" result="BackgroundImageFix"/>
<feBlend mode="normal" in="SourceGraphic" in2="BackgroundImageFix" result="shape"/>
<feColorMatrix in="SourceAlpha" type="matrix" values="0 0 0 0 0 0 0 0 0 0 0 0 0 0 0 0 0 0 127 0" result="hardAlpha"/>
<feOffset dy="1.65225"/>
<feGaussianBlur stdDeviation="1.65225"/>
<feComposite in2="hardAlpha" operator="arithmetic" k2="-1" k3="1"/>
<feColorMatrix type="matrix" values="0 0 0 0 0.403922 0 0 0 0 0.309804 0 0 0 0 0.0156863 0 0 0 0.25 0"/>
<feBlend mode="normal" in2="shape" result="effect1_innerShadow_3_22"/>
</filter>
<filter id="filter16_i_3_22" x="286.487" y="286.598" width="20.1436" height="23.648" filterUnits="userSpaceOnUse" color-interpolation-filters="sRGB">
<feFlood flood-opacity="0" result="BackgroundImageFix"/>
<feBlend mode="normal" in="SourceGraphic" in2="BackgroundImageFix" result="shape"/>
<feColorMatrix in="SourceAlpha" type="matrix" values="0 0 0 0 0 0 0 0 0 0 0 0 0 0 0 0 0 0 127 0" result="hardAlpha"/>
<feOffset dy="3.66408"/>
<feGaussianBlur stdDeviation="3.66408"/>
<feComposite in2="hardAlpha" operator="arithmetic" k2="-1" k3="1"/>
<feColorMatrix type="matrix" values="0 0 0 0 0.356863 0 0 0 0 0.262745 0 0 0 0 0.623529 0 0 0 0.5 0"/>
<feBlend mode="normal" in2="shape" result="effect1_innerShadow_3_22"/>
</filter>
<filter id="filter17_i_3_22" x="159.106" y="185.237" width="20.1436" height="23.648" filterUnits="userSpaceOnUse" color-interpolation-filters="sRGB">
<feFlood flood-opacity="0" result="BackgroundImageFix"/>
<feBlend mode="normal" in="SourceGraphic" in2="BackgroundImageFix" result="shape"/>
<feColorMatrix in="SourceAlpha" type="matrix" values="0 0 0 0 0 0 0 0 0 0 0 0 0 0 0 0 0 0 127 0" result="hardAlpha"/>
<feOffset dy="3.66408"/>
<feGaussianBlur stdDeviation="3.66408"/>
<feComposite in2="hardAlpha" operator="arithmetic" k2="-1" k3="1"/>
<feColorMatrix type="matrix" values="0 0 0 0 0.356863 0 0 0 0 0.262745 0 0 0 0 0.623529 0 0 0 0.5 0"/>
<feBlend mode="normal" in2="shape" result="effect1_innerShadow_3_22"/>
</filter>
<filter id="filter18_i_3_22" x="701.386" y="715.882" width="20.1436" height="23.648" filterUnits="userSpaceOnUse" color-interpolation-filters="sRGB">
<feFlood flood-opacity="0" result="BackgroundImageFix"/>
<feBlend mode="normal" in="SourceGraphic" in2="BackgroundImageFix" result="shape"/>
<feColorMatrix in="SourceAlpha" type="matrix" values="0 0 0 0 0 0 0 0 0 0 0 0 0 0 0 0 0 0 127 0" result="hardAlpha"/>
<feOffset dy="3.66408"/>
<feGaussianBlur stdDeviation="3.66408"/>
<feComposite in2="hardAlpha" operator="arithmetic" k2="-1" k3="1"/>
<feColorMatrix type="matrix" values="0 0 0 0 0.356863 0 0 0 0 0.262745 0 0 0 0 0.623529 0 0 0 0.5 0"/>
<feBlend mode="normal" in2="shape" result="effect1_innerShadow_3_22"/>
</filter>
<filter id="filter19_i_3_22" x="712.967" y="594.779" width="20.1436" height="23.648" filterUnits="userSpaceOnUse" color-interpolation-filters="sRGB">
<feFlood flood-opacity="0" result="BackgroundImageFix"/>
<feBlend mode="normal" in="SourceGraphic" in2="BackgroundImageFix" result="shape"/>
<feColorMatrix in="SourceAlpha" type="matrix" values="0 0 0 0 0 0 0 0 0 0 0 0 0 0 0 0 0 0 127 0" result="hardAlpha"/>
<feOffset dy="3.66408"/>
<feGaussianBlur stdDeviation="3.66408"/>
<feComposite in2="hardAlpha" operator="arithmetic" k2="-1" k3="1"/>
<feColorMatrix type="matrix" values="0 0 0 0 0.356863 0 0 0 0 0.262745 0 0 0 0 0.623529 0 0 0 0.5 0"/>
<feBlend mode="normal" in2="shape" result="effect1_innerShadow_3_22"/>
</filter>
<filter id="filter20_i_3_22" x="303.699" y="744.058" width="20.1436" height="23.648" filterUnits="userSpaceOnUse" color-interpolation-filters="sRGB">
<feFlood flood-opacity="0" result="BackgroundImageFix"/>
<feBlend mode="normal" in="SourceGraphic" in2="BackgroundImageFix" result="shape"/>
<feColorMatrix in="SourceAlpha" type="matrix" values="0 0 0 0 0 0 0 0 0 0 0 0 0 0 0 0 0 0 127 0" result="hardAlpha"/>
<feOffset dy="3.66408"/>
<feGaussianBlur stdDeviation="3.66408"/>
<feComposite in2="hardAlpha" operator="arithmetic" k2="-1" k3="1"/>
<feColorMatrix type="matrix" values="0 0 0 0 0.356863 0 0 0 0 0.262745 0 0 0 0 0.623529 0 0 0 0.5 0"/>
<feBlend mode="normal" in2="shape" result="effect1_innerShadow_3_22"/>
</filter>
<filter id="filter21_i_3_22" x="518.164" y="447.592" width="164.423" height="158.635" filterUnits="userSpaceOnUse" color-interpolation-filters="sRGB">
<feFlood flood-opacity="0" result="BackgroundImageFix"/>
<feBlend mode="normal" in="SourceGraphic" in2="BackgroundImageFix" result="shape"/>
<feColorMatrix in="SourceAlpha" type="matrix" values="0 0 0 0 0 0 0 0 0 0 0 0 0 0 0 0 0 0 127 0" result="hardAlpha"/>
<feOffset dy="3.66408"/>
<feGaussianBlur stdDeviation="3.66408"/>
<feComposite in2="hardAlpha" operator="arithmetic" k2="-1" k3="1"/>
<feColorMatrix type="matrix" values="0 0 0 0 0.356863 0 0 0 0 0.262745 0 0 0 0 0.623529 0 0 0 0.5 0"/>
<feBlend mode="normal" in2="shape" result="effect1_innerShadow_3_22"/>
</filter>
<filter id="filter22_i_3_22" x="546.869" y="470.501" width="109.759" height="110.512" filterUnits="userSpaceOnUse" color-interpolation-filters="sRGB">
<feFlood flood-opacity="0" result="BackgroundImageFix"/>
<feBlend mode="normal" in="SourceGraphic" in2="BackgroundImageFix" result="shape"/>
<feColorMatrix in="SourceAlpha" type="matrix" values="0 0 0 0 0 0 0 0 0 0 0 0 0 0 0 0 0 0 127 0" result="hardAlpha"/>
<feOffset dy="3.66408"/>
<feGaussianBlur stdDeviation="3.66408"/>
<feComposite in2="hardAlpha" operator="arithmetic" k2="-1" k3="1"/>
<feColorMatrix type="matrix" values="0 0 0 0 0.356863 0 0 0 0 0.262745 0 0 0 0 0.623529 0 0 0 0.5 0"/>
<feBlend mode="normal" in2="shape" result="effect1_innerShadow_3_22"/>
</filter>
<filter id="filter23_i_3_22" x="558.006" y="498.02" width="61.183" height="63.2241" filterUnits="userSpaceOnUse" color-interpolation-filters="sRGB">
<feFlood flood-opacity="0" result="BackgroundImageFix"/>
<feBlend mode="normal" in="SourceGraphic" in2="BackgroundImageFix" result="shape"/>
<feColorMatrix in="SourceAlpha" type="matrix" values="0 0 0 0 0 0 0 0 0 0 0 0 0 0 0 0 0 0 127 0" result="hardAlpha"/>
<feOffset dy="3.66408"/>
<feGaussianBlur stdDeviation="3.66408"/>
<feComposite in2="hardAlpha" operator="arithmetic" k2="-1" k3="1"/>
<feColorMatrix type="matrix" values="0 0 0 0 0.356863 0 0 0 0 0.262745 0 0 0 0 0.623529 0 0 0 0.5 0"/>
<feBlend mode="normal" in2="shape" result="effect1_innerShadow_3_22"/>
</filter>
<filter id="filter24_i_3_22" x="502.835" y="394.856" width="39.9485" height="42.5532" filterUnits="userSpaceOnUse" color-interpolation-filters="sRGB">
<feFlood flood-opacity="0" result="BackgroundImageFix"/>
<feBlend mode="normal" in="SourceGraphic" in2="BackgroundImageFix" result="shape"/>
<feColorMatrix in="SourceAlpha" type="matrix" values="0 0 0 0 0 0 0 0 0 0 0 0 0 0 0 0 0 0 127 0" result="hardAlpha"/>
<feOffset dy="3.66408"/>
<feGaussianBlur stdDeviation="3.66408"/>
<feComposite in2="hardAlpha" operator="arithmetic" k2="-1" k3="1"/>
<feColorMatrix type="matrix" values="0 0 0 0 0.356863 0 0 0 0 0.262745 0 0 0 0 0.623529 0 0 0 0.5 0"/>
<feBlend mode="normal" in2="shape" result="effect1_innerShadow_3_22"/>
</filter>
<filter id="filter25_i_3_22" x="291.316" y="60.8467" width="168.905" height="173.96" filterUnits="userSpaceOnUse" color-interpolation-filters="sRGB">
<feFlood flood-opacity="0" result="BackgroundImageFix"/>
<feBlend mode="normal" in="SourceGraphic" in2="BackgroundImageFix" result="shape"/>
<feColorMatrix in="SourceAlpha" type="matrix" values="0 0 0 0 0 0 0 0 0 0 0 0 0 0 0 0 0 0 127 0" result="hardAlpha"/>
<feOffset dy="3.66408"/>
<feGaussianBlur stdDeviation="3.66408"/>
<feComposite in2="hardAlpha" operator="arithmetic" k2="-1" k3="1"/>
<feColorMatrix type="matrix" values="0 0 0 0 0.356863 0 0 0 0 0.262745 0 0 0 0 0.623529 0 0 0 0.5 0"/>
<feBlend mode="normal" in2="shape" result="effect1_innerShadow_3_22"/>
</filter>
<filter id="filter26_i_3_22" x="316.974" y="85.0381" width="115.905" height="122.221" filterUnits="userSpaceOnUse" color-interpolation-filters="sRGB">
<feFlood flood-opacity="0" result="BackgroundImageFix"/>
<feBlend mode="normal" in="SourceGraphic" in2="BackgroundImageFix" result="shape"/>
<feColorMatrix in="SourceAlpha" type="matrix" values="0 0 0 0 0 0 0 0 0 0 0 0 0 0 0 0 0 0 127 0" result="hardAlpha"/>
<feOffset dy="3.66408"/>
<feGaussianBlur stdDeviation="3.66408"/>
<feComposite in2="hardAlpha" operator="arithmetic" k2="-1" k3="1"/>
<feColorMatrix type="matrix" values="0 0 0 0 0.356863 0 0 0 0 0.262745 0 0 0 0 0.623529 0 0 0 0.5 0"/>
<feBlend mode="normal" in2="shape" result="effect1_innerShadow_3_22"/>
</filter>
<filter id="filter27_i_3_22" x="344.57" y="97.2437" width="64.6091" height="69.751" filterUnits="userSpaceOnUse" color-interpolation-filters="sRGB">
<feFlood flood-opacity="0" result="BackgroundImageFix"/>
<feBlend mode="normal" in="SourceGraphic" in2="BackgroundImageFix" result="shape"/>
<feColorMatrix in="SourceAlpha" type="matrix" values="0 0 0 0 0 0 0 0 0 0 0 0 0 0 0 0 0 0 127 0" result="hardAlpha"/>
<feOffset dy="3.66408"/>
<feGaussianBlur stdDeviation="3.66408"/>
<feComposite in2="hardAlpha" operator="arithmetic" k2="-1" k3="1"/>
<feColorMatrix type="matrix" values="0 0 0 0 0.356863 0 0 0 0 0.262745 0 0 0 0 0.623529 0 0 0 0.5 0"/>
<feBlend mode="normal" in2="shape" result="effect1_innerShadow_3_22"/>
</filter>
<filter id="filter28_i_3_22" x="173.457" y="253.003" width="95.2397" height="103.407" filterUnits="userSpaceOnUse" color-interpolation-filters="sRGB">
<feFlood flood-opacity="0" result="BackgroundImageFix"/>
<feBlend mode="normal" in="SourceGraphic" in2="BackgroundImageFix" result="shape"/>
<feColorMatrix in="SourceAlpha" type="matrix" values="0 0 0 0 0 0 0 0 0 0 0 0 0 0 0 0 0 0 127 0" result="hardAlpha"/>
<feOffset dy="3.66408"/>
<feGaussianBlur stdDeviation="3.66408"/>
<feComposite in2="hardAlpha" operator="arithmetic" k2="-1" k3="1"/>
<feColorMatrix type="matrix" values="0 0 0 0 0.356863 0 0 0 0 0.262745 0 0 0 0 0.623529 0 0 0 0.5 0"/>
<feBlend mode="normal" in2="shape" result="effect1_innerShadow_3_22"/>
</filter>
<filter id="filter29_i_3_22" x="186.684" y="272.372" width="66.756" height="69.7378" filterUnits="userSpaceOnUse" color-interpolation-filters="sRGB">
<feFlood flood-opacity="0" result="BackgroundImageFix"/>
<feBlend mode="normal" in="SourceGraphic" in2="BackgroundImageFix" result="shape"/>
<feColorMatrix in="SourceAlpha" type="matrix" values="0 0 0 0 0 0 0 0 0 0 0 0 0 0 0 0 0 0 127 0" result="hardAlpha"/>
<feOffset dy="3.66408"/>
<feGaussianBlur stdDeviation="3.66408"/>
<feComposite in2="hardAlpha" operator="arithmetic" k2="-1" k3="1"/>
<feColorMatrix type="matrix" values="0 0 0 0 0.356863 0 0 0 0 0.262745 0 0 0 0 0.623529 0 0 0 0.5 0"/>
<feBlend mode="normal" in2="shape" result="effect1_innerShadow_3_22"/>
</filter>
<filter id="filter30_i_3_22" x="194.467" y="281.976" width="37.2118" height="40.4951" filterUnits="userSpaceOnUse" color-interpolation-filters="sRGB">
<feFlood flood-opacity="0" result="BackgroundImageFix"/>
<feBlend mode="normal" in="SourceGraphic" in2="BackgroundImageFix" result="shape"/>
<feColorMatrix in="SourceAlpha" type="matrix" values="0 0 0 0 0 0 0 0 0 0 0 0 0 0 0 0 0 0 127 0" result="hardAlpha"/>
<feOffset dy="3.66408"/>
<feGaussianBlur stdDeviation="3.66408"/>
<feComposite in2="hardAlpha" operator="arithmetic" k2="-1" k3="1"/>
<feColorMatrix type="matrix" values="0 0 0 0 0.356863 0 0 0 0 0.262745 0 0 0 0 0.623529 0 0 0 0.5 0"/>
<feBlend mode="normal" in2="shape" result="effect1_innerShadow_3_22"/>
</filter>
<filter id="filter31_i_3_22" x="85.6293" y="476.676" width="106.763" height="111.246" filterUnits="userSpaceOnUse" color-interpolation-filters="sRGB">
<feFlood flood-opacity="0" result="BackgroundImageFix"/>
<feBlend mode="normal" in="SourceGraphic" in2="BackgroundImageFix" result="shape"/>
<feColorMatrix in="SourceAlpha" type="matrix" values="0 0 0 0 0 0 0 0 0 0 0 0 0 0 0 0 0 0 127 0" result="hardAlpha"/>
<feOffset dy="3.66408"/>
<feGaussianBlur stdDeviation="3.66408"/>
<feComposite in2="hardAlpha" operator="arithmetic" k2="-1" k3="1"/>
<feColorMatrix type="matrix" values="0 0 0 0 0.356863 0 0 0 0 0.262745 0 0 0 0 0.623529 0 0 0 0.5 0"/>
<feBlend mode="normal" in2="shape" result="effect1_innerShadow_3_22"/>
</filter>
<filter id="filter32_i_3_22" x="102.937" y="494.08" width="73.2516" height="78.5855" filterUnits="userSpaceOnUse" color-interpolation-filters="sRGB">
<feFlood flood-opacity="0" result="BackgroundImageFix"/>
<feBlend mode="normal" in="SourceGraphic" in2="BackgroundImageFix" result="shape"/>
<feColorMatrix in="SourceAlpha" type="matrix" values="0 0 0 0 0 0 0 0 0 0 0 0 0 0 0 0 0 0 127 0" result="hardAlpha"/>
<feOffset dy="3.66408"/>
<feGaussianBlur stdDeviation="3.66408"/>
<feComposite in2="hardAlpha" operator="arithmetic" k2="-1" k3="1"/>
<feColorMatrix type="matrix" values="0 0 0 0 0.356863 0 0 0 0 0.262745 0 0 0 0 0.623529 0 0 0 0.5 0"/>
<feBlend mode="normal" in2="shape" result="effect1_innerShadow_3_22"/>
</filter>
<filter id="filter33_i_3_22" x="510.219" y="110.788" width="112.812" height="108.774" filterUnits="userSpaceOnUse" color-interpolation-filters="sRGB">
<feFlood flood-opacity="0" result="BackgroundImageFix"/>
<feBlend mode="normal" in="SourceGraphic" in2="BackgroundImageFix" result="shape"/>
<feColorMatrix in="SourceAlpha" type="matrix" values="0 0 0 0 0 0 0 0 0 0 0 0 0 0 0 0 0 0 127 0" result="hardAlpha"/>
<feOffset dy="3.66408"/>
<feGaussianBlur stdDeviation="3.66408"/>
<feComposite in2="hardAlpha" operator="arithmetic" k2="-1" k3="1"/>
<feColorMatrix type="matrix" values="0 0 0 0 0.356863 0 0 0 0 0.262745 0 0 0 0 0.623529 0 0 0 0.5 0"/>
<feBlend mode="normal" in2="shape" result="effect1_innerShadow_3_22"/>
</filter>
<filter id="filter34_i_3_22" x="532.881" y="126.934" width="73.5116" height="76.5933" filterUnits="userSpaceOnUse" color-interpolation-filters="sRGB">
<feFlood flood-opacity="0" result="BackgroundImageFix"/>
<feBlend mode="normal" in="SourceGraphic" in2="BackgroundImageFix" result="shape"/>
<feColorMatrix in="SourceAlpha" type="matrix" values="0 0 0 0 0 0 0 0 0 0 0 0 0 0 0 0 0 0 127 0" result="hardAlpha"/>
<feOffset dy="3.66408"/>
<feGaussianBlur stdDeviation="3.66408"/>
<feComposite in2="hardAlpha" operator="arithmetic" k2="-1" k3="1"/>
<feColorMatrix type="matrix" values="0 0 0 0 0.356863 0 0 0 0 0.262745 0 0 0 0 0.623529 0 0 0 0.5 0"/>
<feBlend mode="normal" in2="shape" result="effect1_innerShadow_3_22"/>
</filter>
<filter id="filter35_i_3_22" x="54.5801" y="290.229" width="67.423" height="74.2749" filterUnits="userSpaceOnUse" color-interpolation-filters="sRGB">
<feFlood flood-opacity="0" result="BackgroundImageFix"/>
<feBlend mode="normal" in="SourceGraphic" in2="BackgroundImageFix" result="shape"/>
<feColorMatrix in="SourceAlpha" type="matrix" values="0 0 0 0 0 0 0 0 0 0 0 0 0 0 0 0 0 0 127 0" result="hardAlpha"/>
<feOffset dy="3.66408"/>
<feGaussianBlur stdDeviation="3.66408"/>
<feComposite in2="hardAlpha" operator="arithmetic" k2="-1" k3="1"/>
<feColorMatrix type="matrix" values="0 0 0 0 0.356863 0 0 0 0 0.262745 0 0 0 0 0.623529 0 0 0 0.5 0"/>
<feBlend mode="normal" in2="shape" result="effect1_innerShadow_3_22"/>
</filter>
<filter id="filter36_f_3_22" x="-219.15" y="0.875977" width="1106.01" height="839.688" filterUnits="userSpaceOnUse" color-interpolation-filters="sRGB">
<feFlood flood-opacity="0" result="BackgroundImageFix"/>
<feBlend mode="normal" in="SourceGraphic" in2="BackgroundImageFix" result="shape"/>
<feGaussianBlur stdDeviation="20" result="effect1_foregroundBlur_3_22"/>
</filter>
<filter id="filter37_f_3_22" x="58.5373" y="10.1104" width="1106.07" height="903.662" filterUnits="userSpaceOnUse" color-interpolation-filters="sRGB">
<feFlood flood-opacity="0" result="BackgroundImageFix"/>
<feBlend mode="normal" in="SourceGraphic" in2="BackgroundImageFix" result="shape"/>
<feGaussianBlur stdDeviation="25" result="effect1_foregroundBlur_3_22"/>
</filter>
<linearGradient id="paint0_linear_3_22" x1="636.304" y1="256.158" x2="-45.1962" y2="901.158" gradientUnits="userSpaceOnUse">
<stop stop-color="#E2D8FE"/>
<stop offset="1" stop-color="#836EBE"/>
</linearGradient>
<linearGradient id="paint1_linear_3_22" x1="188.653" y1="549.643" x2="464.332" y2="452.921" gradientUnits="userSpaceOnUse">
<stop stop-color="#705EA9"/>
<stop offset="1" stop-color="#C4B7EA"/>
</linearGradient>
<clipPath id="clip0_3_22">
<rect x="120.804" y="158.658" width="600" height="600" rx="300" transform="rotate(-4 120.804 158.658)" fill="white"/>
</clipPath>
</defs>
</svg>
