<svg width="760" height="760" viewBox="0 0 760 760" fill="none" xmlns="http://www.w3.org/2000/svg">
<g filter="url(#filter0_d_3_739)">
<g clip-path="url(#clip0_3_739)">
<rect x="80.0003" y="80.0005" width="600" height="600" rx="300" fill="url(#paint0_linear_3_739)"/>
<g filter="url(#filter1_f_3_739)">
<path opacity="0.8" d="M-172.64 459L30.6003 394.112C89.5145 375.302 152.841 375.418 211.685 394.444L321.426 429.924C379.927 448.837 442.865 449.065 501.501 430.576L619.296 393.432C677.579 375.054 740.122 375.166 798.339 393.753L912.109 430.076C971.023 448.885 1034.35 448.769 1093.19 429.744L1205.48 393.44C1264.68 374.301 1328.4 374.301 1387.6 393.44L1499.32 429.56C1558.52 448.699 1622.24 448.699 1681.44 429.56L1793.15 393.44C1852.35 374.301 1916.07 374.301 1975.27 393.44L2178.05 459" stroke="#00D5F5" stroke-width="32"/>
<path opacity="0.5" d="M-287.881 556.78L-84.6407 491.892C-25.7265 473.083 37.5996 473.199 96.4445 492.224L206.185 527.704C264.686 546.618 327.624 546.846 386.26 528.356L504.055 491.212C562.338 472.834 624.881 472.946 683.098 491.533L796.868 527.856C855.782 546.665 919.108 546.549 977.953 527.524L1090.24 491.22C1149.44 472.081 1213.16 472.081 1272.36 491.22L1384.08 527.34C1443.27 546.479 1507 546.479 1566.19 527.34L1677.91 491.22C1737.11 472.081 1800.83 472.081 1860.03 491.22L2062.81 556.78" stroke="#00D5F5" stroke-width="24"/>
<path d="M-212.169 495L-8.92925 430.112C49.9849 411.302 113.311 411.418 172.156 430.444L281.897 465.924C340.397 484.837 403.335 485.065 461.971 466.576L579.767 429.432C638.05 411.054 700.592 411.166 758.809 429.753L872.579 466.076C931.493 484.885 994.819 484.769 1053.66 465.744L1165.95 429.44C1225.15 410.301 1288.87 410.301 1348.07 429.44L1459.79 465.56C1518.99 484.699 1582.71 484.699 1641.91 465.56L1753.62 429.44C1812.82 410.301 1876.54 410.301 1935.74 429.44L2138.52 495" stroke="#00D5F5" stroke-width="16"/>
<path d="M-249.064 515L-45.8234 450.112C13.0908 431.302 76.4169 431.418 135.262 450.444L245.002 485.924C303.503 504.837 366.441 505.065 425.077 486.576L542.873 449.432C601.156 431.054 663.698 431.166 721.915 449.753L835.685 486.076C894.599 504.885 957.925 504.769 1016.77 485.744L1129.06 449.44C1188.26 430.301 1251.98 430.301 1311.18 449.44L1422.89 485.56C1482.09 504.699 1545.81 504.699 1605.01 485.56L1716.73 449.44C1775.93 430.301 1839.65 430.301 1898.85 449.44L2101.63 515" stroke="#00D5F5" stroke-width="8"/>
<path d="M-237.842 524.459L-34.6015 459.571C24.3126 440.761 87.6388 440.877 146.484 459.903L256.224 495.383C314.725 514.296 377.663 514.524 436.299 496.035L554.094 458.891C612.377 440.513 674.92 440.625 733.137 459.212L846.907 495.535C905.821 514.344 969.147 514.228 1027.99 495.203L1140.28 458.899C1199.48 439.76 1263.2 439.76 1322.4 458.899L1434.12 495.019C1493.31 514.158 1557.04 514.158 1616.23 495.019L1727.95 458.899C1787.15 439.76 1850.87 439.76 1910.07 458.899L2112.85 524.459" stroke="#00D5F5" stroke-width="4"/>
<path d="M-263.896 535.818L-60.656 470.93C-1.7418 452.12 61.5843 452.236 120.429 471.261L230.17 506.742C288.67 525.655 351.609 525.883 410.245 507.394L528.04 470.25C586.323 451.872 648.866 451.984 707.082 470.57L820.852 506.893C879.766 525.703 943.093 525.587 1001.94 506.562L1114.23 470.258C1173.42 451.119 1237.15 451.119 1296.34 470.258L1408.06 506.378C1467.26 525.517 1530.98 525.517 1590.18 506.378L1701.9 470.258C1761.1 451.119 1824.82 451.119 1884.02 470.258L2086.79 535.818" stroke="#00D5F5" stroke-width="4"/>
<path d="M-211.489 633.652L3.69626 567.078C61.032 549.339 122.405 549.449 179.677 567.392L303.768 606.27C360.704 624.108 421.702 624.323 478.762 606.887L611.145 566.436C667.861 549.106 728.475 549.211 785.13 566.739L913.369 606.414C970.705 624.153 1032.08 624.044 1089.35 606.1L1216.14 566.378C1273.75 548.327 1335.51 548.327 1393.13 566.378L1519.36 605.927C1576.98 623.978 1638.74 623.978 1696.35 605.927L1822.59 566.378C1880.2 548.327 1941.96 548.327 1999.58 566.378L2214.31 633.652" stroke="#00D5F5" stroke-width="2"/>
<path d="M-254.118 648.292L-38.9331 581.717C18.4026 563.979 79.776 564.088 137.048 582.032L261.139 620.909C318.075 638.747 379.073 638.962 436.133 621.527L568.516 581.075C625.232 563.745 685.846 563.851 742.501 581.379L870.74 621.054C928.076 638.793 989.449 638.683 1046.72 620.74L1173.51 581.017C1231.12 562.966 1292.88 562.966 1350.5 581.017L1476.73 620.567C1534.35 638.618 1596.11 638.618 1653.72 620.567L1779.96 581.017C1837.57 562.966 1899.33 562.966 1956.95 581.017L2171.68 648.292" stroke="#00D5F5" stroke-width="2"/>
<path d="M-208.794 662.215L6.39078 595.64C63.7265 577.902 125.1 578.011 182.372 595.954L306.463 634.832C363.399 652.67 424.396 652.885 481.457 635.45L613.84 594.998C670.556 577.668 731.17 577.774 787.825 595.302L916.064 634.977C973.4 652.716 1034.77 652.606 1092.04 634.663L1218.83 594.94C1276.45 576.889 1338.21 576.889 1395.82 594.94L1522.06 634.489C1579.67 652.54 1641.43 652.54 1699.05 634.489L1825.28 594.94C1882.9 576.889 1944.66 576.889 2002.27 594.94L2217 662.215" stroke="#00D5F5" stroke-width="8"/>
<path opacity="0.8" d="M-228.795 672.215L-13.6096 605.64C43.7261 587.902 105.099 588.011 162.371 605.954L286.463 644.832C343.398 662.67 404.396 662.885 461.456 645.45L593.839 604.998C650.555 587.668 711.169 587.774 767.824 605.302L896.063 644.977C953.399 662.716 1014.77 662.606 1072.04 644.663L1198.83 604.94C1256.45 586.889 1318.21 586.889 1375.82 604.94L1502.06 644.489C1559.67 662.54 1621.43 662.54 1679.05 644.489L1805.28 604.94C1862.9 586.889 1924.66 586.889 1982.27 604.94L2197 672.215" stroke="#00D5F5" stroke-width="16"/>
<path d="M-230.849 702.275L-15.6645 635.701C41.6712 617.962 103.045 618.072 160.317 636.015L284.408 674.893C341.344 692.731 402.341 692.946 459.402 675.51L591.785 635.059C648.5 617.729 709.114 617.834 765.769 635.362L894.009 675.037C951.344 692.776 1012.72 692.667 1069.99 674.723L1196.78 635.001C1254.39 616.95 1316.15 616.95 1373.77 635.001L1500 674.55C1557.62 692.601 1619.38 692.601 1676.99 674.55L1803.23 635.001C1860.84 616.95 1922.6 616.95 1980.22 635.001L2194.95 702.275" stroke="#00D5F5" stroke-width="4"/>
<path d="M-206.899 436L-3.65862 371.112C55.2556 352.302 118.582 352.418 177.427 371.444L287.167 406.924C345.668 425.837 408.606 426.065 467.242 407.576L585.037 370.432C643.32 352.054 705.863 352.166 764.08 370.753L877.85 407.076C936.764 425.885 1000.09 425.769 1058.93 406.744L1171.22 370.44C1230.42 351.301 1294.14 351.301 1353.34 370.44L1465.06 406.56C1524.26 425.699 1587.98 425.699 1647.18 406.56L1758.9 370.44C1818.09 351.301 1881.82 351.301 1941.01 370.44L2143.79 436" stroke="#00D5F5" stroke-width="8"/>
<path d="M-231.161 423.314L-27.9212 358.426C30.9929 339.617 94.3191 339.733 153.164 358.758L262.905 394.238C321.405 413.152 384.343 413.38 442.979 394.89L560.775 357.746C619.058 339.368 681.6 339.48 739.817 358.067L853.587 394.39C912.501 413.199 975.827 413.084 1034.67 394.058L1146.96 357.755C1206.16 338.616 1269.88 338.616 1329.08 357.755L1440.8 393.874C1499.99 413.013 1563.72 413.013 1622.91 393.874L1734.63 357.755C1793.83 338.616 1857.55 338.616 1916.75 357.755L2119.53 423.314" stroke="#00D5F5" stroke-width="4"/>
<path opacity="0.5" d="M-314.946 220L-99.7612 153.425C-42.4255 135.687 18.9479 135.796 76.2199 153.74L200.311 192.617C257.247 210.455 318.244 210.671 375.305 193.235L507.688 152.783C564.404 135.453 625.018 135.559 681.673 153.087L809.912 192.762C867.248 210.501 928.621 210.391 985.893 192.448L1112.68 152.725C1170.3 134.674 1232.05 134.674 1289.67 152.725L1415.91 192.275C1473.52 210.326 1535.28 210.326 1592.9 192.275L1719.13 152.725C1776.75 134.674 1838.5 134.674 1896.12 152.725L2110.85 220" stroke="#00D5F5" stroke-width="8"/>
<path d="M-276.048 203.953L-60.8635 137.378C-3.52779 119.639 57.8456 119.749 115.118 137.692L239.209 176.57C296.145 194.408 357.142 194.623 414.202 177.188L546.586 136.736C603.301 119.406 663.915 119.512 720.57 137.04L848.81 176.715C906.145 194.453 967.519 194.344 1024.79 176.401L1151.58 136.678C1209.19 118.627 1270.95 118.627 1328.57 136.678L1454.8 176.227C1512.42 194.278 1574.18 194.278 1631.79 176.227L1758.03 136.678C1815.64 118.627 1877.4 118.627 1935.02 136.678L2149.75 203.953" stroke="#00D5F5" stroke-width="4"/>
<path opacity="0.7" d="M-263.212 134.634L-48.0273 68.0592C9.30839 50.3205 70.6818 50.4301 127.954 68.3734L252.045 107.251C308.981 125.089 369.978 125.304 427.039 107.869L559.422 67.4173C616.138 50.087 676.752 50.1927 733.407 67.7208L861.646 107.396C918.982 125.135 980.355 125.025 1037.63 107.082L1164.41 67.3592C1222.03 49.3082 1283.79 49.3082 1341.4 67.3592L1467.64 106.908C1525.25 124.959 1587.01 124.959 1644.63 106.908L1770.86 67.3592C1828.48 49.3082 1890.24 49.3082 1947.85 67.3592L2162.58 134.634" stroke="#00D5F5" stroke-width="4"/>
<path opacity="0.8" d="M-320.448 249.708L-105.263 183.133C-47.9271 165.395 13.4463 165.504 70.7183 183.448L194.809 222.325C251.745 240.163 312.743 240.379 369.803 222.943L502.186 182.491C558.902 165.161 619.516 165.267 676.171 182.795L804.41 222.47C861.746 240.209 923.119 240.099 980.391 222.156L1107.18 182.433C1164.79 164.382 1226.55 164.382 1284.17 182.433L1410.4 221.983C1468.02 240.034 1529.78 240.034 1587.39 221.983L1713.63 182.433C1771.24 164.382 1833 164.382 1890.62 182.433L2105.35 249.708" stroke="#00D5F5" stroke-width="16"/>
<path opacity="0.7" d="M-316.385 299.623L-101.2 233.048C-43.8647 215.31 17.5087 215.419 74.7807 233.363L198.872 272.24C255.808 290.078 316.805 290.294 373.866 272.858L506.249 232.407C562.964 215.076 623.578 215.182 680.233 232.71L808.473 272.385C865.808 290.124 927.182 290.014 984.454 272.071L1111.24 232.348C1168.86 214.297 1230.62 214.297 1288.23 232.348L1414.47 271.898C1472.08 289.949 1533.84 289.949 1591.46 271.898L1717.69 232.348C1775.31 214.297 1837.06 214.297 1894.68 232.348L2109.41 299.623" stroke="#00D5F5" stroke-width="8"/>
<path opacity="0.7" d="M-369.091 279.623L-153.906 213.048C-96.5708 195.31 -35.1974 195.419 22.0746 213.363L146.166 252.24C203.102 270.078 264.099 270.294 321.159 252.858L453.543 212.407C510.258 195.076 570.872 195.182 627.527 212.71L755.767 252.385C813.102 270.124 874.476 270.014 931.748 252.071L1058.54 212.348C1116.15 194.297 1177.91 194.297 1235.53 212.348L1361.76 251.898C1419.38 269.949 1481.13 269.949 1538.75 251.898L1664.98 212.348C1722.6 194.297 1784.36 194.297 1841.97 212.348L2056.7 279.623" stroke="#00D5F5" stroke-width="8"/>
<path d="M-354.278 235.459L-139.093 168.884C-81.7575 151.146 -20.3841 151.255 36.8879 169.199L160.979 208.076C217.915 225.914 278.912 226.129 335.973 208.694L468.356 168.242C525.072 150.912 585.686 151.018 642.341 168.546L770.58 208.221C827.916 225.96 889.289 225.85 946.561 207.907L1073.35 168.184C1130.96 150.133 1192.72 150.133 1250.34 168.184L1376.57 207.734C1434.19 225.785 1495.95 225.785 1553.56 207.734L1679.8 168.184C1737.41 150.133 1799.17 150.133 1856.79 168.184L2071.52 235.459" stroke="#00D5F5" stroke-width="4"/>
<path opacity="0.7" d="M423.016 374.204C421.899 386.696 378.049 397.519 336.059 394.994C294.069 392.468 257.349 386.338 258.466 373.846C259.582 361.354 298.112 347.23 340.102 349.755C382.092 352.281 424.132 361.711 423.016 374.204Z" fill="#B3F0FA"/>
<path opacity="0.6" d="M404.985 372.476C404.891 373.534 404.317 374.642 403.247 375.779C402.176 376.915 400.638 378.05 398.683 379.154C394.774 381.362 389.279 383.405 382.769 385.092C369.755 388.464 352.782 390.389 336.558 389.413C320.286 388.434 304.29 386.864 292.479 384.335C286.569 383.069 281.742 381.57 278.459 379.804C275.142 378.021 273.584 376.073 273.772 373.969C273.868 372.896 274.412 371.756 275.417 370.573C276.421 369.39 277.862 368.191 279.695 367.01C283.361 364.647 288.53 362.395 294.712 360.498C307.072 356.707 323.388 354.36 339.604 355.336C355.867 356.314 372.511 358.307 384.97 361.26C391.204 362.737 396.359 364.447 399.89 366.374C401.656 367.337 402.989 368.34 403.85 369.371C404.706 370.397 405.079 371.427 404.985 372.476Z" fill="#00D5F5" stroke="#0B6573"/>
<path opacity="0.5" d="M370.263 373.629C369.97 374.915 368.694 376.318 366.542 377.668C364.417 379.001 361.539 380.216 358.242 381.165C351.644 383.063 343.459 383.868 336.427 382.479C336.023 382.4 335.617 382.32 335.211 382.24C328.446 380.907 321.508 379.54 316.307 377.826C313.547 376.917 311.324 375.924 309.883 374.818C308.445 373.715 307.882 372.583 308.161 371.357C308.457 370.058 309.696 368.611 311.764 367.201C313.809 365.806 316.579 364.507 319.766 363.475C326.144 361.409 334.107 360.437 341.132 361.824C348.266 363.232 355.95 364.83 361.677 366.816C364.545 367.81 366.88 368.888 368.406 370.061C369.937 371.238 370.54 372.413 370.263 373.629Z" fill="#0B6573" stroke="#0B6573"/>
<path d="M307.513 553.736C307.556 558.08 294.81 564.228 283.921 564.652C273.032 565.076 263.149 564.776 263.106 560.432C263.063 556.089 272.877 549.346 283.766 548.922C294.655 548.498 307.471 549.392 307.513 553.736Z" fill="#5068E7"/>
<path opacity="0.5" d="M378.644 180.796C378.619 180.361 378.181 179.556 376.546 178.57C374.997 177.636 372.702 176.746 369.784 176.008C363.965 174.536 355.926 173.733 347.089 174.239C338.257 174.744 329.339 176.603 322.688 178.889C319.356 180.035 316.653 181.267 314.828 182.453C313.912 183.048 313.274 183.595 312.885 184.068C312.489 184.549 312.45 184.827 312.456 184.932C312.461 185.017 312.511 185.245 312.925 185.606C313.342 185.969 314.016 186.364 314.984 186.758C316.914 187.543 319.72 188.209 323.158 188.713C330.01 189.718 339.083 190.038 347.964 189.53C356.838 189.022 364.772 187.643 370.418 185.849C373.251 184.949 375.433 183.967 376.862 182.987C378.369 181.954 378.666 181.191 378.644 180.796Z" fill="#0B6573" stroke="#0B6573" stroke-width="2.68397"/>
<path opacity="0.4" d="M452.411 159.611C451.849 157.949 450.126 156.342 447.591 155.413C445.092 154.498 441.989 154.322 438.97 155.344C435.955 156.364 433.224 158.605 431.426 161.114C429.578 163.692 428.964 166.181 429.489 167.734C429.98 169.182 431.682 170.338 434.534 170.791C437.303 171.231 440.738 170.915 443.88 169.852C446.992 168.798 449.472 167.037 450.985 165.109C452.507 163.17 452.954 161.215 452.411 159.611Z" fill="#0B6573" stroke="#0B6573" stroke-width="2.68397"/>
<path opacity="0.3" d="M276.658 202.692C276.658 200.681 275.957 198.522 274.829 196.888C273.684 195.231 272.277 194.342 270.942 194.342C269.594 194.342 267.956 195.33 266.57 197.12C265.213 198.875 264.342 201.103 264.342 203.038C264.342 206.816 267.713 209.658 270.942 209.658C273.902 209.658 276.658 206.753 276.658 202.692Z" fill="#0B6573" stroke="#0B6573" stroke-width="2.68397"/>
<path opacity="0.3" d="M205.658 190.923C205.658 189.798 205.27 188.578 204.649 187.663C204.01 186.721 203.309 186.342 202.765 186.342C202.208 186.342 201.365 186.787 200.574 187.828C199.814 188.829 199.342 190.085 199.342 191.135C199.342 193.151 201.119 194.658 202.765 194.658C204.146 194.658 205.658 193.224 205.658 190.923Z" fill="#0B6573" stroke="#0B6573" stroke-width="2.68397"/>
</g>
<g filter="url(#filter2_f_3_739)">
<path d="M344.189 -30.6574C96.0021 235.005 248.625 670.08 608.385 722.477L723.733 739.277L-298.385 627.446L344.189 -30.6574Z" fill="url(#paint1_linear_3_739)" fill-opacity="0.4"/>
</g>
<g opacity="0.2" filter="url(#filter3_f_3_739)">
<path d="M427.692 788.613C691.822 538.796 566.379 95.1202 210.544 20.5905L96.4551 -3.30544L1109.71 171.477L427.692 788.613Z" fill="#DBF2FF"/>
</g>
</g>
</g>
<defs>
<filter id="filter0_d_3_739" x="0.000335693" y="0.000488281" width="760" height="760" filterUnits="userSpaceOnUse" color-interpolation-filters="sRGB">
<feFlood flood-opacity="0" result="BackgroundImageFix"/>
<feColorMatrix in="SourceAlpha" type="matrix" values="0 0 0 0 0 0 0 0 0 0 0 0 0 0 0 0 0 0 127 0" result="hardAlpha"/>
<feOffset/>
<feGaussianBlur stdDeviation="40"/>
<feComposite in2="hardAlpha" operator="out"/>
<feColorMatrix type="matrix" values="0 0 0 0 0.049375 0 0 0 0 0.292622 0 0 0 0 0.329167 0 0 0 0.5 0"/>
<feBlend mode="normal" in2="BackgroundImageFix" result="effect1_dropShadow_3_739"/>
<feBlend mode="normal" in="SourceGraphic" in2="effect1_dropShadow_3_739" result="shape"/>
</filter>
<filter id="filter1_f_3_739" x="-386.274" y="35.8208" width="2698.79" height="684.365" filterUnits="userSpaceOnUse" color-interpolation-filters="sRGB">
<feFlood flood-opacity="0" result="BackgroundImageFix"/>
<feBlend mode="normal" in="SourceGraphic" in2="BackgroundImageFix" result="shape"/>
<feGaussianBlur stdDeviation="8" result="effect1_foregroundBlur_3_739"/>
</filter>
<filter id="filter2_f_3_739" x="-338.385" y="-70.6572" width="1102.12" height="849.934" filterUnits="userSpaceOnUse" color-interpolation-filters="sRGB">
<feFlood flood-opacity="0" result="BackgroundImageFix"/>
<feBlend mode="normal" in="SourceGraphic" in2="BackgroundImageFix" result="shape"/>
<feGaussianBlur stdDeviation="20" result="effect1_foregroundBlur_3_739"/>
</filter>
<filter id="filter3_f_3_739" x="46.4551" y="-53.3057" width="1113.25" height="891.918" filterUnits="userSpaceOnUse" color-interpolation-filters="sRGB">
<feFlood flood-opacity="0" result="BackgroundImageFix"/>
<feBlend mode="normal" in="SourceGraphic" in2="BackgroundImageFix" result="shape"/>
<feGaussianBlur stdDeviation="25" result="effect1_foregroundBlur_3_739"/>
</filter>
<linearGradient id="paint0_linear_3_739" x1="667.5" y1="294" x2="80.0003" y2="390.501" gradientUnits="userSpaceOnUse">
<stop stop-color="#00DDFE"/>
<stop offset="1" stop-color="#5F36D7"/>
</linearGradient>
<linearGradient id="paint1_linear_3_739" x1="18.5013" y1="506" x2="310.278" y2="441.394" gradientUnits="userSpaceOnUse">
<stop stop-color="#0D0525"/>
<stop offset="1" stop-color="#2384CC"/>
</linearGradient>
<clipPath id="clip0_3_739">
<rect x="80.0003" y="80.0005" width="600" height="600" rx="300" fill="white"/>
</clipPath>
</defs>
</svg>
