<svg width="1383" height="1200" viewBox="0 0 1383 1200" fill="none" xmlns="http://www.w3.org/2000/svg">
<g filter="url(#filter0_d_3_895)">
<g clip-path="url(#clip0_3_895)">
<rect x="268.193" y="709.808" width="600" height="600" rx="300" transform="rotate(-60 268.193 709.808)" fill="url(#paint0_linear_3_895)"/>
<g filter="url(#filter1_f_3_895)">
<path opacity="0.7" d="M182.444 1011.33L199.883 965.046C228.612 888.8 267.797 816.917 316.314 751.459L338.153 721.995C372.182 676.084 399.665 625.668 419.814 572.192V572.192C439.964 518.715 467.447 468.299 501.475 422.389L545.153 363.46C579.182 317.55 606.665 267.133 626.814 213.657V213.657C646.964 160.181 674.447 109.764 708.475 63.8541L773.992 -24.5388C793.532 -50.901 809.313 -79.8508 820.883 -110.557V-110.557C849.612 -186.803 888.797 -258.686 937.314 -324.145L959.153 -353.609C993.182 -399.519 1020.67 -449.936 1040.81 -503.412C1060.96 -556.888 1088.45 -607.305 1122.48 -653.215L1166.15 -712.144C1200.18 -758.054 1227.67 -808.47 1247.81 -861.947C1267.96 -915.423 1295.45 -965.839 1329.48 -1011.75L1424.44 -1139.88" stroke="#5D2FE4" stroke-width="8"/>
<path opacity="0.7" d="M217.085 1031.33L234.524 985.046C263.253 908.8 302.438 836.917 350.955 771.459L372.794 741.995C406.823 696.084 434.306 645.668 454.455 592.192V592.192C474.605 538.715 502.088 488.299 536.116 442.389L579.794 383.46C613.823 337.55 641.306 287.133 661.455 233.657V233.657C681.605 180.181 709.088 129.764 743.116 83.8541L808.633 -4.53878C828.173 -30.901 843.954 -59.8508 855.524 -90.5575V-90.5575C884.253 -166.803 923.438 -238.686 971.955 -304.145L993.794 -333.609C1027.82 -379.519 1055.31 -429.936 1075.46 -483.412C1095.6 -536.888 1123.09 -587.305 1157.12 -633.215L1200.79 -692.144C1234.82 -738.054 1262.31 -788.47 1282.46 -841.947C1302.6 -895.423 1330.09 -945.839 1364.12 -991.75L1459.08 -1119.88" stroke="#120827" stroke-width="16"/>
<path opacity="0.7" d="M416.271 1146.33L433.71 1100.05C462.438 1023.8 501.624 951.917 550.141 886.459L571.98 856.995C606.009 811.084 633.492 760.668 653.641 707.192V707.192C673.791 653.715 701.274 603.299 735.302 557.389L778.98 498.46C813.009 452.55 840.492 402.133 860.641 348.657V348.657C880.791 295.181 908.274 244.764 942.302 198.854L1007.82 110.461C1027.36 84.099 1043.14 55.1492 1054.71 24.4425V24.4425C1083.44 -51.8032 1122.62 -123.686 1171.14 -189.145L1192.98 -218.609C1227.01 -264.519 1254.49 -314.936 1274.64 -368.412C1294.79 -421.888 1322.27 -472.305 1356.3 -518.215L1399.98 -577.144C1434.01 -623.054 1461.49 -673.47 1481.64 -726.947C1501.79 -780.423 1529.27 -830.839 1563.3 -876.75L1658.27 -1004.88" stroke="#B098E4" stroke-width="32"/>
<path opacity="0.7" d="M344.39 1104.83L361.83 1058.55C390.558 982.3 429.744 910.417 478.261 844.959L500.1 815.495C534.128 769.584 561.612 719.168 581.761 665.692V665.692C601.91 612.215 629.394 561.799 663.422 515.889L707.1 456.96C741.128 411.05 768.612 360.633 788.761 307.157V307.157C808.91 253.681 836.394 203.264 870.422 157.354L935.939 68.9612C955.478 42.599 971.26 13.6492 982.83 -17.0575V-17.0575C1011.56 -93.3032 1050.74 -165.186 1099.26 -230.645L1121.1 -260.109C1155.13 -306.019 1182.61 -356.436 1202.76 -409.912C1222.91 -463.388 1250.39 -513.805 1284.42 -559.715L1328.1 -618.644C1362.13 -664.554 1389.61 -714.97 1409.76 -768.447C1429.91 -821.923 1457.39 -872.339 1491.42 -918.25L1586.39 -1046.38" stroke="#331E6F" stroke-width="42"/>
<path opacity="0.7" d="M563.495 1231.33L580.934 1185.05C609.663 1108.8 648.848 1036.92 697.365 971.459L719.204 941.995C753.233 896.084 780.716 845.668 800.866 792.192V792.192C821.015 738.715 848.498 688.299 882.527 642.389L926.204 583.46C960.233 537.55 987.716 487.133 1007.87 433.657V433.657C1028.01 380.181 1055.5 329.764 1089.53 283.854L1155.04 195.461C1174.58 169.099 1190.36 140.149 1201.93 109.443V109.443C1230.66 33.1968 1269.85 -38.6864 1318.37 -104.145L1340.2 -133.609C1374.23 -179.519 1401.72 -229.936 1421.87 -283.412C1442.01 -336.888 1469.5 -387.305 1503.53 -433.215L1547.2 -492.144C1581.23 -538.054 1608.72 -588.47 1628.87 -641.947C1649.01 -695.423 1676.5 -745.839 1710.53 -791.75L1805.49 -919.878" stroke="#6C44DD" stroke-width="8"/>
<path opacity="0.7" d="M606.796 1256.33L624.235 1210.05C652.964 1133.8 692.149 1061.92 740.667 996.459L762.506 966.995C796.534 921.084 824.017 870.668 844.167 817.192V817.192C864.316 763.715 891.799 713.299 925.828 667.389L969.506 608.46C1003.53 562.55 1031.02 512.133 1051.17 458.657V458.657C1071.32 405.181 1098.8 354.764 1132.83 308.854L1198.34 220.461C1217.88 194.099 1233.67 165.149 1245.24 134.443V134.443C1273.96 58.1968 1313.15 -13.6864 1361.67 -79.1447L1383.51 -108.609C1417.53 -154.519 1445.02 -204.936 1465.17 -258.412C1485.32 -311.888 1512.8 -362.305 1546.83 -408.215L1590.51 -467.144C1624.53 -513.054 1652.02 -563.47 1672.17 -616.947C1692.32 -670.423 1719.8 -720.839 1753.83 -766.75L1848.8 -894.878" stroke="#180F37" stroke-width="16"/>
<path opacity="0.7" d="M528.854 1211.33L546.293 1165.05C575.022 1088.8 614.207 1016.92 662.724 951.459L684.563 921.995C718.592 876.084 746.075 825.668 766.225 772.192V772.192C786.374 718.715 813.857 668.299 847.886 622.389L891.563 563.46C925.592 517.55 953.075 467.133 973.225 413.657V413.657C993.374 360.181 1020.86 309.764 1054.89 263.854L1120.4 175.461C1139.94 149.099 1155.72 120.149 1167.29 89.4425V89.4425C1196.02 13.1968 1235.21 -58.6864 1283.72 -124.145L1305.56 -153.609C1339.59 -199.519 1367.08 -249.936 1387.22 -303.412C1407.37 -356.888 1434.86 -407.305 1468.89 -453.215L1512.56 -512.144C1546.59 -558.054 1574.08 -608.47 1594.22 -661.947C1614.37 -715.423 1641.86 -765.839 1675.89 -811.75L1770.85 -939.878" stroke="#401F9E" stroke-width="16"/>
</g>
<g filter="url(#filter2_f_3_895)">
<path d="M304.455 425.686C410.431 773.453 863.529 858.815 1088.79 573.452L1161.01 481.958L553.103 1311.22L304.455 425.686Z" fill="url(#paint1_linear_3_895)" fill-opacity="0.4"/>
</g>
<g opacity="0.2" filter="url(#filter3_f_3_895)">
<path d="M1055.72 763.004C971.433 409.352 524.476 296.152 282.014 567.049L204.275 653.905L862.268 -136.207L1055.72 763.004Z" fill="#DDCDFF"/>
</g>
</g>
</g>
<g opacity="0.8" filter="url(#filter4_f_3_895)">
<path d="M804.551 322.285C901.026 167.651 963.242 80.9491 975.434 87.9878C993.099 98.1871 877.423 331.618 717.063 609.37C556.702 887.122 412.384 1104.02 394.718 1093.82C382.527 1086.78 417.463 1005.21 503.142 844.341" stroke="url(#paint2_linear_3_895)" stroke-width="16"/>
</g>
<g opacity="0.8" filter="url(#filter5_f_3_895)">
<path d="M815.635 330.425C901.548 189.162 936.237 136.126 943.613 140.384C954.302 146.555 845.002 355.879 699.484 607.922C553.967 859.965 427.338 1059.28 416.649 1053.11C409.273 1048.85 435.599 996.21 514.98 851.176" stroke="url(#paint3_linear_3_895)" stroke-width="12"/>
</g>
<defs>
<filter id="filter0_d_3_895" x="188.193" y="110.192" width="979.615" height="979.615" filterUnits="userSpaceOnUse" color-interpolation-filters="sRGB">
<feFlood flood-opacity="0" result="BackgroundImageFix"/>
<feColorMatrix in="SourceAlpha" type="matrix" values="0 0 0 0 0 0 0 0 0 0 0 0 0 0 0 0 0 0 127 0" result="hardAlpha"/>
<feOffset/>
<feGaussianBlur stdDeviation="40"/>
<feComposite in2="hardAlpha" operator="out"/>
<feColorMatrix type="matrix" values="0 0 0 0 0.124624 0 0 0 0 0.0614583 0 0 0 0 0.245833 0 0 0 1 0"/>
<feBlend mode="normal" in2="BackgroundImageFix" result="effect1_dropShadow_3_895"/>
<feBlend mode="normal" in="SourceGraphic" in2="effect1_dropShadow_3_895" result="shape"/>
</filter>
<filter id="filter1_f_3_895" x="162.701" y="-1158.26" width="1708.52" height="2433.41" filterUnits="userSpaceOnUse" color-interpolation-filters="sRGB">
<feFlood flood-opacity="0" result="BackgroundImageFix"/>
<feBlend mode="normal" in="SourceGraphic" in2="BackgroundImageFix" result="shape"/>
<feGaussianBlur stdDeviation="8" result="effect1_foregroundBlur_3_895"/>
</filter>
<filter id="filter2_f_3_895" x="264.455" y="385.686" width="936.555" height="965.537" filterUnits="userSpaceOnUse" color-interpolation-filters="sRGB">
<feFlood flood-opacity="0" result="BackgroundImageFix"/>
<feBlend mode="normal" in="SourceGraphic" in2="BackgroundImageFix" result="shape"/>
<feGaussianBlur stdDeviation="20" result="effect1_foregroundBlur_3_895"/>
</filter>
<filter id="filter3_f_3_895" x="154.275" y="-186.207" width="951.44" height="999.211" filterUnits="userSpaceOnUse" color-interpolation-filters="sRGB">
<feFlood flood-opacity="0" result="BackgroundImageFix"/>
<feBlend mode="normal" in="SourceGraphic" in2="BackgroundImageFix" result="shape"/>
<feGaussianBlur stdDeviation="25" result="effect1_foregroundBlur_3_895"/>
</filter>
<filter id="filter4_f_3_895" x="374.361" y="69.5916" width="620.855" height="1042.58" filterUnits="userSpaceOnUse" color-interpolation-filters="sRGB">
<feFlood flood-opacity="0" result="BackgroundImageFix"/>
<feBlend mode="normal" in="SourceGraphic" in2="BackgroundImageFix" result="shape"/>
<feGaussianBlur stdDeviation="5" result="effect1_foregroundBlur_3_895"/>
</filter>
<filter id="filter5_f_3_895" x="399.465" y="124.15" width="560.87" height="945.103" filterUnits="userSpaceOnUse" color-interpolation-filters="sRGB">
<feFlood flood-opacity="0" result="BackgroundImageFix"/>
<feBlend mode="normal" in="SourceGraphic" in2="BackgroundImageFix" result="shape"/>
<feGaussianBlur stdDeviation="5" result="effect1_foregroundBlur_3_895"/>
</filter>
<linearGradient id="paint0_linear_3_895" x1="821.193" y1="865.308" x2="268.193" y2="1065.31" gradientUnits="userSpaceOnUse">
<stop stop-color="#B68AFF"/>
<stop offset="1" stop-color="#3E16B6"/>
</linearGradient>
<linearGradient id="paint1_linear_3_895" x1="606.37" y1="976.068" x2="696.308" y2="691.079" gradientUnits="userSpaceOnUse">
<stop stop-color="#281E3C"/>
<stop offset="1" stop-color="#6B47B4"/>
</linearGradient>
<linearGradient id="paint2_linear_3_895" x1="658.368" y1="575.482" x2="717.063" y2="609.37" gradientUnits="userSpaceOnUse">
<stop stop-color="#311D64"/>
<stop offset="1" stop-color="#DCCBFF"/>
</linearGradient>
<linearGradient id="paint3_linear_3_895" x1="666.438" y1="588.843" x2="699.484" y2="607.922" gradientUnits="userSpaceOnUse">
<stop stop-color="#9747FF"/>
<stop offset="1" stop-color="#A77FF2"/>
</linearGradient>
<clipPath id="clip0_3_895">
<rect x="268.193" y="709.808" width="600" height="600" rx="300" transform="rotate(-60 268.193 709.808)" fill="white"/>
</clipPath>
</defs>
</svg>
